<?xml version="1.0" standalone="no"?>
<!DOCTYPE svg PUBLIC "-//W3C//DTD SVG 1.1//EN" "http://www.w3.org/Graphics/SVG/1.1/DTD/svg11.dtd" >
<svg xmlns="http://www.w3.org/2000/svg">
<metadata></metadata>
<defs>
<font id="eb_garamond_sc08_regular" horiz-adv-x="1089" >
<font-face units-per-em="2048" ascent="1487" descent="-561" />
<missing-glyph horiz-adv-x="423" />
<glyph horiz-adv-x="0" />
<glyph unicode="&#xd;" horiz-adv-x="434" />
<glyph unicode=" "  horiz-adv-x="423" />
<glyph unicode="&#x09;" horiz-adv-x="423" />
<glyph unicode="&#xa0;" horiz-adv-x="423" />
<glyph unicode="!" horiz-adv-x="423" d="M86 102q0 53 32 93.5t81 40.5q47 0 82.5 -30t35.5 -73q0 -53 -34.5 -95t-85.5 -42q-45 0 -78 30.5t-33 75.5zM115 1122q0 45 33.5 79t78.5 34q92 0 92 -92q0 -285 -32 -445q-39 -207 -76 -206.5t-49 77.5q-47 340 -47 553z" />
<glyph unicode="&#x22;" horiz-adv-x="632" d="M106 1257v13q0 37 39 71q53 43 107 43q29 0 29 -65q0 -100 -115 -358q-20 -51 -39 -52q-14 0 -14 47v117q0 20 -1 48t-1 52.5t-1 47t-4 36.5zM375 1270q0 37 39 71q53 43 106 43q29 0 29 -65q0 -100 -115 -358q-20 -51 -39 -52q-14 0 -14 47v117q0 20 -1 48t-2 52.5 t-1 47v36.5z" />
<glyph unicode="#" horiz-adv-x="1490" d="M86 426q0 25 45 42t127 17h129l117 312h-133q-53 0 -98.5 19.5t-45.5 53.5q0 25 45 42.5t127 17.5h156l84 223q49 129 119 129q49 0 26 -80q-6 -23 -47 -129l-53 -143h326l84 223q49 129 100 129q23 0 33 -14.5t8 -43t-12.5 -64.5t-30.5 -87l-53 -143h155 q45 0 93.5 -18.5t48.5 -51.5q0 -25 -46.5 -44t-125.5 -19h-177l-116 -312h182q45 0 93 -18t48 -51q0 -25 -46 -44.5t-126 -19.5h-202l-84 -225q-49 -127 -123 -127q-53 0 24 207l56 145h-328l-84 -225q-49 -127 -105 -127q-18 0 -26 20.5t-1 68.5t34 118l55 145h-109 q-53 0 -98 19.5t-45 54.5zM516 485h326l116 312h-325z" />
<glyph unicode="$" horiz-adv-x="837" d="M70 145q0 137 55 138q39 0 65 -93q33 -102 158 -127l39 453l-186 154q-90 72 -90 184q0 145 99.5 256t240.5 121l12 147q2 31 25.5 52.5t50.5 21.5q29 0 20 -74l-14 -155q84 -16 137 -47q45 -27 57.5 -67t12.5 -108q0 -55 -41 -55q-16 0 -31.5 18.5t-40.5 57.5l-3 6l-3 6 t-4 6q-33 53 -94 68l-35 -410l192 -161q98 -82 99 -209q0 -137 -103.5 -232.5t-251.5 -113.5l-14 -164q-2 -25 -24.5 -43.5t-47.5 -18.5q-27 0 -24 58l14 166q-104 10 -176 43q-57 27 -75.5 50t-18.5 72zM299 928q0 -14 2 -26.5t8 -24t11.5 -19.5t17.5 -20.5t18 -17.5 t23.5 -19.5t23.5 -20.5l7 -6l30 338q-63 -10 -102 -62.5t-39 -121.5zM442 59q68 14 108 78t40 146q0 68 -82 135l-31 24z" />
<glyph unicode="%" horiz-adv-x="1562" d="M84 1006q0 111 83 187.5t198 76.5q119 0 208 -67.5t89 -174.5q0 -129 -86.5 -223t-210.5 -94q-119 0 -200 87t-81 208zM201 989q0 -72 51 -122t123 -50q74 0 124 56.5t50 134.5q0 68 -55.5 110.5t-128.5 42.5q-68 0 -116 -51t-48 -121zM261.5 0q-3.5 37 17.5 63l806 1065 q27 35 43.5 53.5t42 37t50 18.5t31.5 -25t-11 -45l-864 -1147q-43 -57 -92 -57q-20 0 -23.5 37zM920 293q0 111 82.5 187.5t197.5 76.5q119 0 208 -67.5t89 -174.5q0 -129 -86 -223t-211 -94q-119 0 -199.5 87t-80.5 208zM1036 276q0 -72 51.5 -122t122.5 -50q74 0 124 56.5 t50 134.5q0 68 -55 111t-129 43q-68 0 -116 -51.5t-48 -121.5z" />
<glyph unicode="&#x26;" horiz-adv-x="1603" d="M86 399q0 63 46 142.5t120 134.5l182 137l-35 31q-117 100 -116 229q0 106 95 164.5t220 58.5q104 0 182 -41t78 -125q0 -76 -92 -153l-113 -94l15 -13q133 -117 297 -311q4 -4 12 -14l12 -15l135 154q29 35 29 57q0 14 -12.5 24.5t-22.5 12.5q-49 10 -49 35 q0 16 14.5 28.5t36.5 12.5h162q16 0 61.5 6t61.5 6q49 0 49 -41q0 -25 -70 -47q-20 -8 -68 -43t-83 -73l-184 -205l204 -260q37 -47 75 -70t67.5 -28t101.5 -11q35 -4 35 -35q0 -27 -53.5 -44t-104.5 -17q-115 0 -191.5 23.5t-129.5 95.5q-63 100 -135 196l-136 -149 q-78 -88 -149.5 -135.5t-161.5 -47.5q-168 0 -276.5 118t-108.5 306zM268 489q0 -129 69 -232t175 -103q88 0 155.5 45t143.5 131l47 53q-2 4 -7 8t-7 8q-184 211 -326 340l-18 17l-191 -160q-41 -35 -41 -107zM446 1110q0 -18 45.5 -73.5t67.5 -71.5l37 -33l35 26 q20 16 41.5 53.5t21.5 65.5q0 55 -35.5 89t-89.5 34q-35 0 -79 -29.5t-44 -60.5z" />
<glyph unicode="'" horiz-adv-x="364" d="M106 1257v13q0 37 39 71q53 43 109 43q29 0 29 -65q0 -96 -117 -358q-20 -51 -39 -52q-14 0 -14 47q2 43 2 117q0 20 -1 48t-2 52.5t-2 47t-4 36.5z" />
<glyph unicode="(" horiz-adv-x="595" d="M92 442q0 299 89 521.5t255 437.5q62 80 105 80q59 0 59 -39q0 -10 -9 -21.5t-30.5 -33t-36.5 -39.5q-166 -217 -246.5 -432.5t-80.5 -526.5q0 -199 88 -396.5t213 -330.5q18 -20 42.5 -42.5t35 -32t17.5 -28t7 -42.5q0 -27 -33 -27q-27 0 -65.5 30.5t-66 61.5t-73.5 86 q-270 334 -270 774z" />
<glyph unicode=")" horiz-adv-x="595" d="M0 -471q0 10 9 21.5t30.5 33t36.5 39.5q166 217 246.5 432t80.5 527q0 199 -88 396.5t-213 330.5q-18 20 -42.5 42.5t-35 32t-17.5 28t-7 42.5q0 27 33 27q27 0 65.5 -31t66.5 -61.5t73 -85.5q270 -334 270 -775q0 -299 -89 -521t-255 -437q-62 -80 -105 -80 q-59 0 -59 39z" />
<glyph unicode="*" horiz-adv-x="808" d="M49 1116q0 31 41 31q37 0 135 -47q68 -37 84 -37q2 0 5 2t6.5 7t5.5 10t5 14.5t5 18.5t6 23.5t8 26.5q39 131 86 131q23 0 34 -22.5t11 -40.5q0 -39 -20 -135q-6 -41 -6 -54q0 -18 49 -18q57 0 168 -4q90 -4 90 -43q0 -47 -187 -64q-63 -6 -84.5 -19t-11.5 -38 q61 -152 62 -207q0 -20 -10.5 -37.5t-26.5 -17.5q-27 0 -49.5 29.5t-54 96t-44.5 89.5q-2 4 -6 11l-6 10.5t-5 6.5t-7 0t-10 -10q-4 -4 -14.5 -13t-28 -24.5t-33.5 -33.5q-72 -76 -121 -76t-49 47q0 29 80 98q78 70 77 107q0 23 -59 57q-125 74 -125 125z" />
<glyph unicode="+" horiz-adv-x="940" d="M86 414q0 29 30.5 51t78.5 22h215v215q0 51 19.5 80t46 29t47 -20.5t20.5 -65.5v-238h235q37 0 61.5 -16t24.5 -41q0 -27 -22.5 -51.5t-65.5 -24.5h-233v-239q0 -82 -66 -82q-68 0 -67 78v241h-215q-109 0 -109 62z" />
<glyph unicode="," horiz-adv-x="512" d="M84 129q0 47 34 77t81 30q96 0 164.5 -67t68.5 -159q0 -104 -95 -235t-183 -131q-29 0 -29 26q0 10 74.5 90t74.5 138q0 16 -3 29.5t-10 24.5t-12 18t-19.5 16.5t-19.5 13.5t-23.5 14.5t-22.5 12.5q-80 43 -80 102z" />
<glyph unicode="-" horiz-adv-x="790" d="M92 399q0 37 19.5 75t56.5 42l487 39q63 4 64 -57q0 -39 -17.5 -69t-50.5 -32l-448 -37q-111 -10 -111 39z" />
<glyph unicode="." horiz-adv-x="421" d="M86 119q0 53 44 86t103 33q43 0 75 -35t32 -76q0 -51 -38 -93t-87 -42q-57 0 -93 34.5t-36 92.5z" />
<glyph unicode="/" horiz-adv-x="485" d="M8 6l570 1321q29 68 46 88.5t52 20.5q25 0 30.5 -22.5t-6.5 -47.5l-612 -1403q-25 -57 -74 -57q-51 0 -6 100z" />
<glyph unicode="0" horiz-adv-x="1044" d="M84 444q0 168 132 302.5t298 134.5q174 0 316.5 -119t142.5 -281q0 -193 -135.5 -341t-323.5 -148q-174 0 -302 136t-128 316zM211 434q0 -121 95 -214t218 -93q125 0 218.5 104.5t93.5 235.5q0 117 -104.5 209t-227.5 92q-115 0 -204 -105.5t-89 -228.5z" />
<glyph unicode="1" horiz-adv-x="565" d="M31 37q0 27 90 53q39 12 58.5 50t19.5 81v420q0 43 -19.5 81t-58.5 50q-78 23 -78 53q0 41 70 41q25 0 90 -6t80 -6q20 0 82.5 6t85.5 6q72 0 71 -41q0 -29 -80 -53q-73 -22 -73 -131v-420q0 -43 19.5 -81t57.5 -50q88 -27 89 -53q0 -41 -70 -41q-25 0 -95.5 6t-84.5 6 q-20 0 -90 -6t-93 -6q-72 0 -71 41z" />
<glyph unicode="2" horiz-adv-x="849" d="M82 39q0 10 14 24q51 51 107 97q31 27 71.5 63.5t104 104t104.5 140.5t41 130q0 141 -127 141q-72 0 -121 -20.5t-100 -77.5q-20 -20 -31 -20q-8 0 -17 17t-9 28q0 8 11 29.5t39 53t64.5 60.5t96 49.5t127.5 20.5q100 0 170.5 -63.5t70.5 -158.5q0 -84 -143 -258 q-45 -53 -130 -144t-101 -101q-14 -10 10 -15l8 -2l215 2q82 -8 141 62q14 16 36 47t32 41t20 10q29 0 29 -51q0 -72 -40 -162t-64 -90q-33 0 -127.5 6t-157.5 6q-59 0 -134 -3t-126 -5l-51 -4q-4 0 -18.5 18.5t-14.5 24.5z" />
<glyph unicode="3" horiz-adv-x="643" d="M61 -256q0 31 26 50.5t56 19.5q6 0 67.5 -12.5t84.5 -12.5q74 0 125 86t51 193q0 49 -2 71.5t-15.5 55t-46 46t-85.5 13.5q-29 0 -59 -6t-48 -12.5t-20 -6.5q-12 0 -23.5 16.5t-11.5 28.5q0 14 22.5 41t40.5 37q14 8 42 21.5t51.5 28t50.5 38.5q66 57 65 191q0 55 -36 88 t-87 33q-84 0 -174 -97q-12 -16 -33 -16q-29 0 -28 33q0 43 96.5 125t200.5 82q92 0 156.5 -61.5t64.5 -151.5q0 -92 -35 -150.5t-154 -134.5q-16 -8 3 -12q129 -14 179 -81t50 -147q0 -197 -148.5 -328.5t-351.5 -131.5q-31 0 -52.5 19t-21.5 44z" />
<glyph unicode="4" horiz-adv-x="1083" d="M86 98q0 12 8 26.5t29.5 42.5t30.5 38l460 641q27 39 70 39q45 0 45 -133v-529q0 -27 10.5 -36t44.5 -9h191q33 0 33 -39q0 -35 -29 -61.5t-76 -26.5h-137q-37 0 -37 -82v-202q0 -43 -36 -78t-79 -35q-55 0 -55 61v287q0 47 -53 47h-352q-68 0 -68 49zM258 185.5 q6 -7.5 37 -7.5h237q6 0 11.5 1t8.5 3t5 3t2 6.5v8.5v10v11v338q0 45 -6 45q-4 0 -12 -10l-277 -381q-12 -20 -6 -27.5z" />
<glyph unicode="5" horiz-adv-x="671" d="M29 -285q0 82 73 101q25 6 154 6q35 0 90 63.5t55 137.5q0 55 -20.5 109t-42 90t-71.5 87t-72.5 69.5t-81.5 70.5q-33 29 -33 63q0 45 37 80l190 180q86 80 139 84l146 12q18 2 25.5 -10t7.5 -29q0 -25 -29 -70.5t-61 -53.5q-23 -6 -107 -11.5t-98 -13.5 q-23 -10 -36 -31.5t-13 -40.5q0 -37 137 -162q66 -59 98.5 -147t32.5 -160q0 -186 -338 -450q-45 -35 -111 -35q-23 0 -47 20.5t-24 40.5z" />
<glyph unicode="6" horiz-adv-x="970" d="M86 471q0 193 164 378t377 286q68 32 125 32q41 0 41 -37q0 -12 -26 -35.5t-62 -39.5q-104 -49 -206 -137.5t-137 -194.5q-4 -14 19 -10l16 4q49 16 115 16q145 0 268 -95t123 -226q0 -164 -118.5 -298t-280.5 -134q-195 0 -306.5 138t-111.5 353zM291 406 q0 -119 69.5 -227.5t171.5 -108.5q174 0 175 323q0 100 -86 182t-199 82q-49 0 -80 -42t-41 -95t-10 -114z" />
<glyph unicode="7" horiz-adv-x="868" d="M86 604q0 18 37 115q16 43 27.5 66.5t33 47t45.5 23.5h439q88 0 123.5 -9t35.5 -40q0 -33 -43 -119l-487 -964q-10 -20 -23.5 -51t-20.5 -44.5t-19.5 -29t-28 -21.5t-37.5 -6q-33 0 -33 61q0 16 45 103l428 813q41 82 41 100q0 20 -10 26.5t-53 6.5h-285 q-37 0 -72.5 -23.5t-46.5 -54.5q-18 -57 -65 -57q-31 0 -31 57z" />
<glyph unicode="8" horiz-adv-x="843" d="M78 242q0 29 4 53t17.5 49t21.5 40t32.5 41t35 35t42 37.5t41.5 37.5l64 57l-121 108q-80 74 -80 183q0 123 104.5 197.5t241.5 74.5q100 0 171 -72.5t71 -175.5q0 -43 -21.5 -74.5t-64.5 -74.5l-115 -113l144 -145q100 -100 100 -232q0 -139 -130 -211.5t-300 -72.5 q-106 0 -182 75.5t-76 182.5zM262 264q0 -74 44 -136t110 -62q59 0 112.5 40.5t53.5 96.5q0 164 -107 260l-74 67l-69 -69q-70 -70 -70 -197zM303 913q0 -23 11.5 -46t20.5 -33.5t38.5 -39t36.5 -34.5l53 -53l55 49q62 55 62 155q0 61 -45.5 113.5t-106.5 52.5 q-53 0 -89 -51t-36 -113z" />
<glyph unicode="9" horiz-adv-x="958" d="M84 483q0 172 139.5 285t323.5 113q166 0 272.5 -107.5t106.5 -273.5q0 -129 -70 -274.5t-199 -270.5t-284 -180q-188 -68 -223 -68q-51 0 -52 37q0 23 15.5 48.5t31.5 31.5q70 27 179 86q82 47 153.5 104.5t81.5 83.5q2 4 -4 7.5t-20.5 5.5t-31 3t-41 4t-44.5 7 q-154 27 -244 119t-90 239zM287 426q0 -104 70.5 -173t174.5 -69q88 0 139.5 95.5t51.5 252.5q0 102 -48 188.5t-134 86.5q-123 0 -188.5 -115.5t-65.5 -265.5z" />
<glyph unicode=":" horiz-adv-x="407" d="M88 104q0 55 42 94.5t99 39.5q47 0 79 -38t32 -89q0 -53 -41 -87t-96 -34q-47 0 -81 33.5t-34 80.5zM88 696q0 55 42 94t99 39q47 0 79 -37.5t32 -89.5q0 -53 -41 -86.5t-96 -33.5q-47 0 -81 33.5t-34 80.5z" />
<glyph unicode=";" horiz-adv-x="473" d="M84 129q0 47 34 77t81 30q96 0 164.5 -67t68.5 -159q0 -104 -95 -235t-183 -131q-29 0 -29 26q0 10 74.5 90t74.5 138q0 16 -3 29.5t-10 24.5t-12 18t-19.5 16.5t-19.5 13.5t-23.5 14.5t-22.5 12.5q-80 43 -80 102zM111 590q0 55 42 94t99 39q47 0 78.5 -38t31.5 -89 q0 -53 -40.5 -87t-96.5 -34q-47 0 -80.5 34t-33.5 81z" />
<glyph unicode="&#x3c;" horiz-adv-x="1183" d="M90 487q0 18 20.5 50t47.5 45l895 409h2q2 2 4 2q20 0 20 -20q0 -25 -20.5 -67t-46.5 -54l-736 -332q-8 -4 -6.5 -9t9.5 -9l749 -340q25 -12 39 -52t14 -63q0 -8 -7 -17.5t-15 -9.5h-2l-4 3l-879 409q-84 39 -84 55z" />
<glyph unicode="=" horiz-adv-x="940" d="M86 238q0 29 30.5 51t78.5 22h583q37 0 61.5 -16t24.5 -41q0 -27 -22.5 -51.5t-65.5 -24.5l-581 -2q-109 0 -109 62zM86 561q0 29 30.5 51.5t78.5 22.5h583q37 0 61.5 -16.5t24.5 -40.5q0 -27 -22.5 -51.5t-65.5 -24.5l-581 -2q-109 0 -109 61z" />
<glyph unicode="&#x3e;" horiz-adv-x="1183" d="M102 967q0 8 7.5 17t15.5 9q2 0 6 -2l879 -409q84 -39 84 -56q0 -18 -20.5 -50t-47.5 -44l-895 -409l-2 -3h-4q-20 0 -21 21q0 25 20.5 67t47.5 54l735 332q8 4 7 9t-9 9l-749 340q-25 12 -39.5 52t-14.5 63z" />
<glyph unicode="?" horiz-adv-x="544" d="M86 117q0 53 37 88t92 35q49 0 83 -30t34 -77q0 -57 -34 -95t-91 -38q-49 0 -85 34t-36 83zM109 1137q0 147 36 147q176 0 251 -140.5t75 -400.5q0 -127 -61 -151q-25 -10 -72 -25.5t-80 -27.5q-4 -2 -29.5 -62.5t-48.5 -60.5q-20 0 -36.5 60.5t-16.5 109.5q0 100 35 114 q25 10 68.5 23.5t66.5 24.5q106 45 106 143q0 31 -22.5 62.5t-46.5 39.5q-98 27 -152 47q-74 27 -73 97z" />
<glyph unicode="@" horiz-adv-x="1484" d="M98 403q0 313 217 490.5t529 177.5q231 0 407 -165t176 -392q0 -174 -125.5 -284.5t-297.5 -110.5q-37 0 -59.5 21.5t-34 43t-17.5 21.5t-39 -21.5t-87 -43t-112 -21.5q-106 0 -183 64.5t-77 168.5q0 180 137.5 299t313.5 119q53 0 133 -27q37 -12 47 -12t25.5 19.5 t25.5 19.5q37 -4 51 -16q-29 -76 -45 -164l-43 -271q0 -6 -2 -17t-3 -20.5t-1 -17.5q0 -59 37 -59q109 0 179.5 76.5t70.5 201.5q0 211 -151.5 353.5t-366.5 142.5q-252 0 -425 -151.5t-173 -403.5q0 -242 174 -404.5t422 -162.5q102 0 225 42t199 105q25 20 37 21 q29 0 28.5 -27t-80.5 -82t-204.5 -103.5t-227.5 -48.5q-281 0 -480.5 181.5t-199.5 457.5zM573 391q0 -102 44.5 -147t111.5 -45q47 0 111 45q41 27 55 100l39 211q2 8 2 25q0 118 -135 118q-94 0 -161 -81.5t-67 -225.5z" />
<glyph unicode="A" horiz-adv-x="1329" d="M41 31q0 14 16.5 23t50 20.5t46.5 17.5q10 4 18 8t14.5 8.5t12.5 9.5t9 7t7 10t6 10t7 13.5t6.5 15.5t7.5 19.5t8 23.5l313 866q8 23 16.5 45.5t12.5 34t8 20.5t9 13t12 4q23 2 53.5 32t34.5 30q10 0 18 -7.5t15.5 -22.5t12.5 -29.5t14 -43.5t15 -45l271 -764 q49 -135 79.5 -183t102.5 -75q82 -29 82 -63q0 -33 -59 -33q-20 0 -86 6t-103 6q-76 0 -164 -6t-110.5 -6t-44 9t-21.5 26q0 14 15.5 23t49 20.5t46.5 17.5q63 29 63 81q0 13 -4 28l-59 194q-8 25 -33 25h-342q-25 0 -33 -23l-78 -223q-6 -17 -6 -31q0 -41 51 -55 q76 -20 76 -57q0 -35 -71 -35q-20 0 -85 6t-83 6q-29 0 -73 -6t-56 -6q-68 0 -68 35zM478 523q3 -9 28 -9h250q31 0 35 12q1 2 1 7q0 16 -14 55l-125 383q-4 13 -8 13q-6 0 -14 -19l-144 -408q-10 -20 -10 -30q0 -2 1 -4z" />
<glyph unicode="B" horiz-adv-x="1071" d="M41 31q0 14 16.5 23t50 20.5t46.5 17.5q96 43 96 172v723q0 18 -1 33.5t-7 29t-9.5 21.5t-15.5 16.5t-16 12.5t-23.5 11t-27 9t-33 9.5t-35.5 9.5q-33 10 -33 35q0 36 68 36h4h225q18 0 112.5 5.5t145.5 5.5q129 0 229.5 -64.5t100.5 -175.5q0 -109 -49 -187.5 t-137 -107.5q-10 -4 -14.5 -11t-1.5 -13.5t11 -6.5q121 -18 199 -93t78 -193q0 -182 -135 -277.5t-350 -95.5q-23 0 -100 5t-95 5q-43 0 -97.5 -2t-92 -5t-41.5 -3q-68 6 -68 35zM444 211q0 -63 40 -97t71 -34q111 0 174.5 76.5t63.5 187.5q0 131 -67 191.5t-220 60.5 q-61 0 -62 -55v-330zM444 743q0 -57 62 -57q96 0 174 67.5t78 159.5q0 104 -63.5 164t-155.5 60q-59 0 -77 -11.5t-18 -44.5v-338z" />
<glyph unicode="C" horiz-adv-x="1386" d="M94 563q0 297 216.5 489.5t525.5 192.5q94 0 239.5 -41t147.5 -41q61 -6 61 -225q0 -57 -37 -57q-43 0 -82 129q-20 63 -136 103t-234 40q-199 0 -335 -146.5t-136 -357.5q0 -242 158.5 -417t398.5 -175q59 0 104 13.5t83 49.5t58.5 61.5t59.5 86t57 86.5q10 16 37 17 q33 0 33 -58q0 -23 -82 -194q-25 -53 -41 -69.5t-53 -31.5q-145 -51 -340 -51q-176 0 -335 72t-263.5 211t-104.5 313z" />
<glyph unicode="D" horiz-adv-x="1466" d="M41 31q0 14 16.5 23t50 20.5t46.5 17.5q96 43 96 172v723q0 23 -3 39t-6 28.5t-14.5 22.5t-16.5 16.5t-24.5 13.5t-27.5 10t-36 10.5t-40 11.5q-33 10 -33 35q0 36 68 36h4q33 0 83 -1t81 -1q63 0 202.5 8.5t202.5 8.5q174 0 329 -69t255 -202t100 -301 q0 -135 -39 -253.5t-114.5 -212t-200.5 -147.5t-285 -54q-111 0 -236.5 11t-160.5 11q-41 0 -95.5 -3t-92 -6t-41.5 -3q-68 6 -68 35zM444 342q0 -150 87 -207t241 -57q172 0 272.5 161.5t100.5 372.5q0 223 -151.5 372t-370.5 149q-72 0 -125.5 -17.5t-53.5 -48.5v-725z " />
<glyph unicode="E" horiz-adv-x="1165" d="M41 31q0 14 16.5 23t50 20.5t46.5 17.5q96 43 96 172v723q0 18 -1 33.5t-7 29t-9.5 21.5t-15.5 16.5t-16 12.5t-23.5 11t-27 9t-33 9.5t-35.5 9.5q-33 10 -33 35q0 36 68 36h4h588q49 0 140 5.5t103 5.5q47 0 54 -29q18 -74 18 -168q0 -53 -33 -53q-39 0 -73 78 q-33 67 -162 67h-4h-244q-39 0 -51.5 -10t-12.5 -33v-344q0 -63 48 -63h176q31 0 54 8t34.5 17t36.5 32q6 6 19 21.5t23.5 22.5t20.5 7q23 0 23 -41q0 -6 -4.5 -54t-4.5 -64.5t1 -61.5t1 -55q0 -53 -26 -54q-8 0 -16.5 6.5t-15.5 16.5t-12 18.5t-12.5 21.5t-9.5 15 q-27 43 -71 43h-215q-29 0 -39.5 -10t-10.5 -39v-229q0 -86 36 -140.5t106 -54.5h223q57 0 94 9.5t65.5 41t42 55t42.5 85.5q18 39 55 39q29 0 29 -52q0 -39 -31 -124t-47 -111q-10 -18 -14.5 -24.5t-14.5 -10.5t-26 -4q-20 0 -278.5 5t-385.5 5q-43 0 -97.5 -2t-92 -5 t-41.5 -3q-68 6 -68 35z" />
<glyph unicode="F" horiz-adv-x="1001" d="M41 31q0 14 16.5 23t50 20.5t46.5 17.5q96 43 96 172v723q0 18 -1 33.5t-7 29t-9.5 21.5t-15.5 16.5t-16 12.5t-23.5 11t-27 9t-33 9.5t-35.5 9.5q-33 10 -33 35q0 36 68 36h4h571q49 0 140.5 5.5t103.5 5.5q47 0 53 -29q18 -74 19 -168q0 -53 -33 -53q-39 0 -74 78 q-33 67 -162 67h-4h-227q-39 0 -51.5 -10t-12.5 -33l-2 -338q0 -63 47 -63h160q31 0 54.5 8t35 17.5t35.5 31.5q6 6 19.5 21.5t23.5 22.5t21 7q23 0 22 -41q0 -6 -4 -54t-4 -64.5t1 -61.5t1 -55q0 -53 -27 -53q-8 0 -16 6t-15.5 16t-12.5 18.5t-12 21.5t-9 15q-27 43 -72 43 h-198q-29 0 -39.5 -10t-10.5 -39l2 -256q0 -131 97 -174q12 -6 46 -18t50 -20.5t16 -22.5q0 -29 -65 -35q-4 0 -46 3t-100.5 6t-101.5 3t-97.5 -3t-92 -6t-41.5 -3q-68 6 -68 35z" />
<glyph unicode="G" horiz-adv-x="1454" d="M94 549q0 301 223.5 498.5t540.5 197.5q68 0 120 -6t78.5 -14t76 -23.5t86.5 -25.5q18 -4 34 -68q25 -92 25 -201q0 -31 -33 -30q-25 0 -67 81q-102 195 -390 195q-199 0 -331.5 -158.5t-132.5 -373.5q0 -231 139 -405.5t354 -174.5q84 0 174 25.5t90 52.5v248 q0 16 -36.5 42.5t-73.5 41.5q-10 4 -24.5 9t-21.5 7t-17.5 6t-14.5 7t-9 8.5t-7.5 10.5t-2.5 11q0 33 44 33q25 0 132 -4t144 -4q35 0 94.5 4t83.5 4q41 0 41 -41q0 -10 -15.5 -24.5t-33.5 -22.5q-25 -10 -58.5 -39t-33.5 -45v-215q0 -27 27.5 -56.5t27.5 -36.5 q0 -35 -217 -73.5t-381 -38.5q-248 0 -441.5 178t-193.5 420z" />
<glyph unicode="H" horiz-adv-x="1484" d="M41 31q0 14 16.5 23t50 20.5t46.5 17.5q96 43 96 172v723q0 18 -1 33.5t-7 29t-9.5 21.5t-15.5 16.5t-16 12.5t-23.5 11t-27 9t-33 9.5t-35.5 9.5q-33 10 -33 35q0 16 22.5 26t49.5 10q41 0 115.5 -5t111.5 -5t103.5 5t101.5 5q27 0 49.5 -10t22.5 -26q0 -25 -31 -35 q-102 -29 -123 -47q-27 -27 -27 -105v-303q0 -23 27 -22h543q27 0 26 26v299q0 82 -24.5 103.5t-122.5 48.5q-33 10 -33 35q0 16 22.5 26t49.5 10q41 0 105.5 -5t101.5 -5t113.5 5t111.5 5q27 0 49.5 -10t22.5 -26q0 -25 -31 -35q-10 -2 -36 -9.5t-33 -9.5t-26.5 -9 t-24.5 -11t-17.5 -12.5t-15.5 -16.5t-9 -21.5t-7 -28.5t-1 -34v-723q0 -129 96 -172q12 -6 46 -18t50.5 -20.5t16.5 -22.5q0 -29 -66 -35q-4 0 -46 3t-100 6t-101.5 3t-92.5 -3t-81.5 -6t-36.5 -3q-68 6 -68 35q0 14 16.5 23t50 20.5t46.5 17.5q47 20 61 61.5t14 110.5v277 q0 23 -28 22h-537h-4q-27 0 -27 -18v-281q0 -70 14.5 -110.5t61.5 -61.5q12 -6 46 -18t50.5 -20.5t16.5 -22.5q0 -29 -66 -35q-4 0 -41 3t-90 6t-96 3t-97.5 -3t-92 -6t-41.5 -3q-68 6 -68 35z" />
<glyph unicode="I" horiz-adv-x="694" d="M41 31q0 14 16.5 23t50 20.5t46.5 17.5q96 43 96 172v723q0 18 -1 33.5t-7 29t-9.5 21.5t-15.5 16.5t-16 12.5t-23.5 11t-27 9t-33 9.5t-35.5 9.5q-33 10 -33 35q0 16 22.5 26t49.5 10q41 0 115.5 -5t111.5 -5t113.5 5t111.5 5q27 0 49.5 -10t22.5 -26q0 -25 -31 -35 q-10 -2 -35.5 -9.5t-32.5 -9.5t-26.5 -9t-25 -11t-17.5 -12.5t-15 -16.5t-9.5 -21.5t-7.5 -28.5t-1 -34v-723q0 -129 97 -172q12 -6 46 -18t50 -20.5t16 -22.5q0 -29 -65 -35q-4 0 -46 3t-100.5 6t-101.5 3t-97.5 -3t-92 -6t-41.5 -3q-68 6 -68 35z" />
<glyph unicode="J" horiz-adv-x="643" d="M-141 -293q0 41 23.5 78t49.5 37q68 0 103 -53q51 -78 96 -78q68 0 93.5 79.5t25.5 241.5v973q0 20 -1 35.5t-7 28t-9.5 21.5t-15.5 17.5t-16 12.5t-23.5 11t-26 9t-34 9.5t-35.5 9.5q-33 10 -33 35q0 16 22.5 26t49.5 10q41 0 115.5 -5t111.5 -5t114 5t111 5 q27 0 49.5 -10t22.5 -26q0 -25 -31 -35q-10 -2 -35.5 -9.5t-32.5 -9.5t-26.5 -9t-25 -11t-17.5 -12.5t-15 -17.5t-9.5 -21.5t-7.5 -28t-1 -35.5v-698q0 -154 -9 -257.5t-29.5 -163t-37 -85t-46.5 -60.5q-105 -116 -268 -116h-3q-92 0 -142 32.5t-50 69.5z" />
<glyph unicode="K" horiz-adv-x="1286" d="M41 31q0 14 16.5 23t50 20.5t46.5 17.5q96 43 96 172v723q0 18 -1 33.5t-7 29t-9.5 21.5t-15.5 16.5t-16 12.5t-23.5 11t-27 9t-33 9.5t-35.5 9.5q-33 10 -33 35q0 16 22.5 26t49.5 10q41 0 115.5 -5t111.5 -5t114 5t111 5q27 0 49.5 -10t22.5 -26q0 -25 -31 -35 q-10 -2 -35.5 -9.5t-32.5 -9.5t-26.5 -9t-25 -11t-17.5 -12.5t-15 -16.5t-9.5 -21.5t-7.5 -28.5t-1 -34v-266q0 -27 8.5 -35t28.5 -8q27 0 97 88l229 285q28 34 27.5 55.5t-27.5 30.5q-35 10 -35 37q0 16 22.5 26t49.5 10q14 0 72.5 -5t75 -5t65.5 5t65 5q27 0 49.5 -10 t22.5 -26q0 -23 -35 -35q-188 -63 -285 -183l-92 -94q-116 -120 -116 -179q0 -25 15 -51t71 -100q84 -117 136 -171t169 -152q43 -35 107.5 -69t101.5 -34q18 0 34.5 -14t16.5 -22q0 -29 -38 -57.5t-97 -28.5q-145 0 -295 112q-113 84 -277 316q-29 41 -65.5 78.5 t-55.5 37.5q-23 0 -34 -35.5t-11 -72.5v-156q0 -129 97 -172q12 -6 46 -18t50 -20.5t16 -22.5q0 -29 -65 -35q-4 0 -46 3t-100.5 6t-101.5 3t-97.5 -3t-92 -6t-41.5 -3q-68 6 -68 35z" />
<glyph unicode="L" horiz-adv-x="1210" d="M41 31q0 14 16.5 23t50 20.5t46.5 17.5q96 43 96 172v723q0 18 -1 33.5t-7 29t-9.5 21.5t-15.5 16.5t-16 12.5t-23.5 11t-27 9t-33 9.5t-35.5 9.5q-33 10 -33 35q0 36 70 36h4q41 0 115.5 -5t111.5 -5t114 5t111 5q27 0 49.5 -10t22.5 -26q0 -25 -31 -35 q-10 -4 -35.5 -10.5t-33.5 -9.5t-26.5 -9t-25 -10t-17.5 -12.5t-15 -16.5t-10.5 -21.5t-7.5 -28.5t-1 -34v-702q0 -84 36 -138.5t106 -54.5h223q39 0 69.5 11.5t50 24.5t40 43t30 48.5t27.5 60.5t27 60q18 39 55 39t37 -96q0 -39 -26.5 -132.5t-41.5 -115.5 q-12 -25 -22.5 -32t-34.5 -7q-20 0 -286.5 5t-393.5 5q-43 0 -97.5 -2t-92 -5t-41.5 -3q-68 6 -68 35z" />
<glyph unicode="M" horiz-adv-x="1665" d="M42 54q15 9 50 20.5t47 17.5q94 41 119 215l70 545q5 42 5 74q1 44 -9 71q-16 45 -62 86q-12 12 -43 32t-49 36t-18 31q0 28 64 28h5q35 0 106.5 -5t121.5 -5q41 0 70.5 -29.5t58.5 -99.5l225 -553q4 -10 23.5 -22.5t27.5 -12.5q29 0 59 70l289 600q16 33 37 40t68 7 q25 0 125 10.5t135 10.5q33 0 32 -35q0 -14 -15 -23.5t-83 -38.5q-49 -20 -67 -59q-14 -32 -14 -95q0 -14 1 -30l35 -676q8 -133 96 -172q12 -6 46 -18t50.5 -20.5t16.5 -22.5q0 -29 -66 -35q-4 0 -46 3t-100 6t-101 3t-97.5 -3t-92.5 -6t-42 -3q-67 6 -67 34v1q0 14 16 23 t50 20.5t46 17.5q97 43 97 160v12l-17 395q-12 199 -41 199q-14 0 -23.5 -5t-34 -43t-54.5 -114l-187 -428q-16 -37 -58 -115.5t-54 -78.5q-16 0 -33 24.5t-47 102.5l-203 520q-51 131 -72 131h-16t-9 -33t-12 -110l-26 -437q-1 -11 -1 -22q0 -41 12 -85q15 -56 52 -73 q12 -6 46 -18t50.5 -20.5t16.5 -22.5q0 -29 -66 -35q-4 0 -34.5 3t-77.5 6t-90 3t-86 -3t-71 -6t-32 -3q-67 6 -67 34q0 15 15 24z" />
<glyph unicode="N" horiz-adv-x="1402" d="M43 54q16 9 50 20.5t46 17.5q96 43 97 172v535q0 143 -29 178l-76 84q-12 14 -29.5 32.5t-26.5 29t-19.5 21.5t-14.5 19t-4 15q0 23 31 22h198q41 0 109 -74l543 -608q156 -174 178 -174q12 0 15 24.5t3 118.5v500q0 23 -3 40t-6 29.5t-14.5 23t-15.5 15.5t-24.5 13 t-27.5 10t-37 10.5t-40 10.5q-33 10 -33 35q0 16 22.5 26t49.5 10q41 0 95.5 -5t91 -5t93 5t91.5 5q27 0 49 -10t22 -26q0 -25 -30 -35q-12 -4 -36 -10.5t-33 -8.5t-26.5 -8t-23.5 -11t-17.5 -12.5t-15.5 -16.5t-9 -21.5t-7 -27.5t-2 -36v-817q0 -53 3 -99t3 -69 q0 -25 -41 -25q-20 0 -70.5 33t-103.5 90l-602 670q-43 49 -60 49q-14 0 -14 -139v-416q0 -129 96 -172q12 -6 46 -18t50.5 -20.5t16.5 -22.5q0 -29 -66 -35q-4 0 -34.5 3t-77.5 6t-90 3t-86 -3t-71 -6t-32 -3q-67 6 -67 34q0 15 16 24z" />
<glyph unicode="O" horiz-adv-x="1372" d="M70 604q0 287 193.5 454t502.5 167q209 0 384 -183.5t175 -406.5q0 -268 -175 -464t-433 -196q-279 0 -463 176.5t-184 452.5zM299 676q0 -231 123 -418.5t323 -187.5q170 0 260.5 150.5t90.5 352.5q0 217 -109.5 387t-298.5 170q-164 0 -276.5 -139t-112.5 -315z" />
<glyph unicode="P" horiz-adv-x="1095" d="M41 31q0 14 16.5 23t50 20.5t46.5 17.5q96 43 96 172v723q0 18 -1 33.5t-7 29t-9.5 21.5t-15.5 16.5t-16 12.5t-23.5 11t-27 9t-33 9.5t-35.5 9.5q-33 10 -33 35q0 33 72 36q258 20 446 21q174 0 305.5 -77t131.5 -220q0 -211 -250 -346q-76 -41 -131 -41q-37 0 -37 35 q0 8 8 15t32.5 23.5t47.5 34.5q125 106 125 248q0 100 -77 169t-181 69q-43 0 -73 -20.5t-30 -49.5v-807q0 -129 97 -172q12 -6 45.5 -18t50 -20.5t16.5 -22.5q0 -29 -65 -35q-4 0 -46 3t-100.5 6t-101.5 3q-39 0 -91.5 -3t-91 -6t-42.5 -3q-68 6 -68 35z" />
<glyph unicode="Q" horiz-adv-x="1544" d="M94 575q0 274 202 469t478 195q244 0 418 -178t174 -424q0 -328 -244 -506q-20 -14 -41.5 -29.5t-34 -23.5t-24.5 -18.5t-18.5 -15.5t-11.5 -12t-7 -13.5t-2 -12.5q0 -43 139.5 -134t235.5 -130q188 -78 275 -111.5t218 -73.5t246 -54.5t254 -14.5q297 0 426 49t191 225 q10 29 31.5 48.5t45.5 19.5q33 0 49.5 -21.5t16.5 -50.5q0 -92 -84 -174t-210 -132t-261 -78.5t-250 -28.5q-117 0 -212 5t-184 21.5t-144.5 25.5t-142.5 41t-121 45t-137 58t-140 60q-98 43 -253 128t-177 97q-115 55 -328 176q-373 217 -373 573zM324 666q0 -156 43 -293 t142 -233.5t239 -96.5q127 0 266 139q123 123 123 383q0 238 -118 410t-317 172q-166 0 -272 -147.5t-106 -333.5z" />
<glyph unicode="R" horiz-adv-x="1333" d="M41 31q0 14 16.5 23t50 20.5t46.5 17.5q96 43 96 172v715q0 18 -1 33.5t-7 29t-9.5 21.5t-15.5 16t-16 12.5t-23.5 11.5t-27 9t-33 9t-35.5 9q-33 10 -33 35q0 33 72 37q258 20 446 21q174 0 305.5 -75t131.5 -218q0 -170 -162 -287q-8 -6 -16.5 -11t-11.5 -8t-5 -7.5 t-2 -10.5q0 -26 51 -102q193 -287 383 -424q33 -25 117 -33q35 -4 35 -35q0 -27 -43 -44t-101 -17q-170 0 -260 96q-186 195 -323 426q-41 68 -170 68q-57 0 -58 -103v-174q0 -129 97 -172q12 -6 45.5 -18t50 -20.5t16.5 -22.5q0 -29 -65 -35q-4 0 -46 3t-100.5 6t-101.5 3 q-39 0 -91.5 -3t-91 -6t-42.5 -3q-68 6 -68 35zM438 737q1 -59 21 -90q25 -33 63 -33q45 0 91 12.5t61 28.5q125 106 125 244q0 100 -77 167t-181 67q-43 0 -73 -20.5t-30 -49.5v-326z" />
<glyph unicode="S" horiz-adv-x="837" d="M70 145q0 137 55 138q39 0 65 -93q18 -57 77 -95t145 -38q80 0 129 66.5t49 159.5q0 68 -82 135l-307 252q-90 72 -90 184q0 154 107 265.5t257 111.5q109 0 207 -55q45 -27 57.5 -67t12.5 -108q0 -55 -41 -55q-16 0 -31.5 18.5t-40.5 57.5l-3 6l-3 6t-4 6 q-47 74 -162 74q-74 0 -121 -54t-47 -132q0 -14 2 -26.5t8 -24t11.5 -19.5t17.5 -20.5t18 -17.5t23.5 -19.5t23.5 -20.5l289 -243q98 -82 99 -209q0 -152 -124 -251.5t-288 -99.5q-117 0 -215 46q-57 27 -75.5 50t-18.5 72z" />
<glyph unicode="T" horiz-adv-x="1212" d="M72 985q0 20 5 57t5 72q0 18 -2 51t-2 41q0 20 10 35.5t25 15.5q8 0 18 -6t25.5 -19t29.5 -22q27 -2 54.5 -6t44 -6t22.5 -2h715q80 0 143 35q8 4 19.5 13t20.5 13.5t20 4.5q16 0 26.5 -11.5t10.5 -25.5q0 -6 -4.5 -34t-4.5 -54q0 -29 2 -81t2 -61q0 -47 -28 -47 q-20 0 -74 92q-35 57 -74 58h-317q-25 0 -25 -64v-770q0 -129 97 -172q12 -6 45.5 -18t50 -20.5t16.5 -22.5q0 -29 -65 -35q-4 0 -46 3t-100.5 6t-101.5 3t-97.5 -3t-92 -6t-42.5 -3q-67 6 -67 34q0 15 16.5 24t50 20.5t46.5 17.5q96 43 96 172v770q0 63 -33 64h-250 q-37 0 -53 -14.5t-35 -47.5q-6 -10 -15 -31.5t-15 -34t-15.5 -22.5t-19.5 -10q-37 0 -37 47z" />
<glyph unicode="U" horiz-adv-x="1263" d="M0 1174q0 16 22.5 26t49.5 10q41 0 83 -5t78.5 -5t117.5 5t116 5q27 0 49.5 -10t22.5 -26q0 -25 -31 -35q-70 -23 -103.5 -55.5t-33.5 -92.5v-409q0 -260 64.5 -376t244.5 -116q199 0 274.5 135t75.5 398v381q0 53 -12 77.5t-25.5 30.5t-70.5 25q-35 12 -35 37 q0 16 22.5 26t48.5 10q16 0 67.5 -5t66 -5t65.5 5t66 5q27 0 49 -10t22 -26q0 -23 -34 -35q-72 -23 -92.5 -47.5t-20.5 -83.5v-496q0 -238 -141.5 -381t-368.5 -143q-258 0 -359.5 139t-101.5 397v463q0 72 -22.5 95.5t-120.5 56.5q-33 10 -33 35z" />
<glyph unicode="V" horiz-adv-x="1140" d="M0 1174q0 16 22.5 26t49.5 10q41 0 83 -5t78.5 -5t128 5t125.5 5q27 0 49.5 -10t22.5 -26q0 -25 -31 -35q-80 -27 -116 -61q-22 -21 -21 -52q0 -19 8 -43l201 -537q37 -100 62 -100q35 0 75 123l152 459q17 65 17 105q0 27 -8 41q-20 38 -91 63q-35 12 -35 37 q0 16 22.5 26t49.5 10q14 0 72.5 -5t75 -5t65.5 5t65 5q27 0 49.5 -10t22.5 -26q0 -23 -35 -35q-66 -20 -100.5 -66.5t-63.5 -124.5l-254 -700q-102 -279 -135 -279q-27 0 -78 142l-311 827q-23 61 -36 88t-50 59.5t-98 53.5q-33 10 -33 35z" />
<glyph unicode="W" horiz-adv-x="1509" d="M0 1174q0 16 22.5 26t49.5 10q16 0 76.5 -4t75 -4t63.5 4t65 4q72 0 72 -30.5t-31 -40.5q-16 -6 -23.5 -16.5t-6 -27t8.5 -38t17 -47.5q4 -8 6 -14.5t4 -12.5l201 -537q37 -100 62 -100q35 0 75 123l15 43l-160 426q-6 14 -19.5 54t-19.5 55.5t-18.5 40t-25.5 36 t-28 15.5q-33 8 -32 35q0 36 43 36h2q14 0 65 -4t65.5 -4t59.5 4t59 4q27 0 49.5 -10t22.5 -26q0 -25 -31 -35q-27 -8 -34 -30t-0.5 -48.5t24.5 -77.5l70 -188l45 133q18 57 27.5 90t10.5 59.5t-8 40t-32 19.5q-35 12 -35 37q0 36 48 36h3q14 0 53 -4t55.5 -4t65.5 4t66 4 q51 0 51 -36q0 -23 -35 -35q-66 -20 -100.5 -66.5t-63.5 -124.5l-102 -282l82 -220q37 -100 61 -100q35 0 76 123l152 459q35 107 35 151q0 45 -37 58q-35 12 -35 37q0 36 46 36h3q14 0 57 -4t57.5 -4t63.5 4t64 4q51 0 51 -36q0 -23 -35 -35q-66 -20 -100.5 -66.5 t-63.5 -124.5l-254 -700q-102 -279 -135 -279q-27 0 -78 142l-108 286l-54 -149q-102 -279 -135 -279q-27 0 -78 142l-311 827q-23 61 -36 88t-50 59.5t-98 53.5q-33 10 -33 35z" />
<glyph unicode="X" horiz-adv-x="1253" d="M41 31q0 14 16.5 23t50 20.5t46.5 17.5q115 51 176 133l237 359l-155 288q-111 209 -250 258q-41 14 -41 44q0 34 68 34h4q41 0 82.5 -4t78.5 -4t99.5 4t97.5 4q72 0 72 -34q0 -25 -31 -35q-68 -23 -68 -60q0 -33 19 -65l139 -258l111 166q65 100 65 144q0 19 -17.5 40.5 t-43.5 30.5q-35 12 -35 37q0 34 68 34h4q14 0 73.5 -4t73.5 -4t65.5 4t65.5 4q72 0 72 -34q0 -23 -35 -35q-150 -49 -229 -172l-193 -297l229 -424q57 -109 183 -154q82 -29 82 -63q0 -33 -60 -33q-20 0 -85.5 6t-102.5 6q-76 0 -164 -6t-110.5 -6t-44 9t-21.5 26 q0 14 15.5 23t49 20.5t45.5 17.5q27 12 39.5 26.5t9 33t-8.5 31t-19 34.5l-150 279l-198 -308q-20 -31 -24.5 -59.5t20.5 -40.5q65 -18 65 -56q0 -36 -71 -36q-20 0 -85 6t-83 6q-29 0 -73 -6t-56 -6q-68 0 -68 35z" />
<glyph unicode="Y" horiz-adv-x="882" d="M0 1174q0 16 22.5 26t49.5 10q41 0 83 -5t78.5 -5t99 5t97.5 5q27 0 49.5 -10t22.5 -26q0 -25 -31 -35q-61 -20 -61 -49q0 -8 24.5 -61.5t48.5 -102.5l27 -47q41 -84 63 -84q4 0 8.5 2t9.5 7t9 11t11 18.5t12.5 23.5t16.5 29.5t19 35.5l76 133q10 18 -10 44.5t-49 37.5 q-35 12 -35 37q0 16 22.5 26t49.5 10q16 0 73.5 -5t74 -5t65.5 5t65 5q27 0 49.5 -10t22.5 -26q0 -23 -35 -35q-10 -4 -32.5 -11.5t-30 -9.5t-22.5 -8t-21.5 -10t-18.5 -12.5t-19 -17.5t-18.5 -21.5t-24 -30t-25.5 -36.5t-32 -48l-116 -180q-12 -18 -20.5 -37t-11.5 -36 t-4 -26.5t0 -26t1 -18.5v-344q0 -131 96 -174q12 -6 46 -17.5t50.5 -20.5t16.5 -23q0 -29 -66 -35q-4 0 -46 3t-100.5 6t-101.5 3t-97 -3t-92 -6t-42 -3q-68 6 -68 35q0 14 16.5 23t50.5 20.5t46 17.5q96 43 96 174v150q0 37 -2 67.5t-5 50t-10 44t-10 32.5t-13.5 34 t-12.5 32l-92 237q-63 162 -260 226q-33 10 -33 35z" />
<glyph unicode="Z" horiz-adv-x="1210" d="M76 53q0 8 13 26.5t50 67t66 89.5l508 718q31 45 40 63.5t9 47.5q0 45 -98 45h-275q-115 0 -162 -53q-10 -12 -39.5 -50t-48 -57.5t-26.5 -19.5q-31 0 -31 57q0 53 22 189q8 45 48 45q10 0 63 -11.5t109 -11.5h372q27 0 158 3t168 3q61 0 72 -16q8 -10 8 -31 q0 -25 -76 -129l-573 -805q-49 -74 -50 -96q0 -35 138 -35h315q39 0 69.5 11.5t50 24.5t40 43t30 48.5t28 60.5t26.5 60q18 39 55 39t37 -96q0 -39 -26.5 -132.5t-41.5 -115.5q-12 -25 -22 -32t-35 -7q-39 0 -274.5 5t-264.5 5q-80 0 -215 -5t-200 -5q-37 0 -37 57z" />
<glyph unicode="[" horiz-adv-x="548" d="M96 -356v1482q0 49 13.5 59.5t64.5 10.5h338q37 0 37 -29q0 -20 -13.5 -39.5t-39.5 -19.5h-222q-45 0 -62 -20.5t-17 -67.5v-1233q0 -106 71 -106h230q53 0 53 -31q0 -18 -17.5 -38t-35.5 -20h-336q-39 0 -51.5 8.5t-12.5 43.5z" />
<glyph unicode="\" horiz-adv-x="718" d="M4 1386q0 29 9 39.5t32 10.5q27 0 39 -15.5t39 -79.5l567 -1335q18 -47 19 -72q0 -29 -23 -28q-45 0 -65 45l-590 1364q-27 53 -27 71z" />
<glyph unicode="]" horiz-adv-x="548" d="M0 -379q0 20 13.5 40t39.5 20h221q45 0 62.5 20t17.5 68v1232q0 106 -71 107h-230q-53 0 -53 31q0 18 17.5 37.5t35.5 19.5h336q39 0 51.5 -8t12.5 -43v-1483q0 -49 -13.5 -59.5t-64.5 -10.5h-338q-37 0 -37 29z" />
<glyph unicode="^" horiz-adv-x="567" d="M61 1030q0 20 69 148.5t112 199.5q20 37 40.5 37t41.5 -37q45 -74 113.5 -200.5t68.5 -147.5q0 -27 -19 -26q-20 0 -61 45q-90 104 -125 151q-19 25 -37 0q-41 -57 -123 -151q-41 -45 -61 -45q-18 0 -19 26z" />
<glyph unicode="_" horiz-adv-x="1208" d="M0 -207q0 100 170 101h897h14q29 0 45.5 -1.5t39 -3.5t32.5 -10t10 -22q0 -96 -172 -97h-895q-141 0 -141 33z" />
<glyph unicode="`" horiz-adv-x="477" d="M77 1352q0 23 35 35t78 12q33 0 55 -37q35 -59 94.5 -185t59.5 -147q0 -27 -19 -26q-20 0 -61 45q-63 68 -152.5 176t-89.5 127z" />
<glyph unicode="a" d="M-16 31q0 41 112 75q72 25 97 82l268 623q18 43 26 49q14 12 34 31.5t33 32t27.5 25t24.5 18.5t17 6q12 0 29.5 -21.5t27.5 -58.5l209 -688q6 -23 37.5 -56t74.5 -51q61 -25 62 -67q0 -29 -66 -35q-4 0 -24.5 3t-58 6t-80.5 3t-80 -3t-57.5 -6t-24.5 -3q-68 6 -68 35 q0 23 16.5 36t57.5 27q14 6 30.5 28.5t12.5 41.5l-33 108q-10 51 -59 52h-199q-41 0 -57 -45l-31 -95q-8 -25 -8 -43q0 -36 33 -45q88 -29 88 -65q0 -29 -66 -35q-4 0 -25.5 3t-60.5 6t-82 3t-82 -3t-61.5 -6t-26.5 -3q-68 6 -67 35zM423 418q5 -4 30 -4h157q18 0 20 5 q1 1 1 4q0 5 -4 15q-2 2 -3 4t-1 4l-68 224q-4 10 -10 14q-3 2 -6 2t-7 -2q-6 -4 -10 -16l-98 -230q-3 -9 -3 -14q0 -4 2 -6z" />
<glyph unicode="b" horiz-adv-x="935" d="M61 31q0 8 7.5 16t20.5 15.5t25.5 13.5t31 13t28.5 11t18.5 10.5t14.5 11.5t11 13t8 13.5t5 17.5t3.5 16t2.5 19.5t1 19.5v21.5v21.5v441q0 18 -1 31.5t-1 24.5t-5.5 20.5t-6.5 15.5t-11 11t-12 8t-17.5 8t-21.5 7.5t-27.5 8.5t-32.5 8q-33 10 -32 43q0 16 22.5 26.5 t48.5 10.5q39 0 134.5 8t138.5 8q86 0 151.5 -8t129 -29.5t98 -66.5t34.5 -113q0 -141 -170 -188q-10 -2 -12 -7.5t4 -10.5t17 -7q88 -14 148 -80.5t60 -152.5q0 -119 -104 -202t-233 -83q-25 0 -95 6t-123 6q-43 0 -87 -3t-71.5 -6t-31.5 -3q-68 6 -68 35zM414 236 q0 -57 33.5 -91t91.5 -34q59 0 96 49t37 125q0 168 -197 168q-61 0 -61 -41v-176zM414 606q0 -59 47 -59q90 0 141 34.5t51 135.5q0 49 -51 79.5t-113 30.5q-43 0 -59 -17t-16 -85v-119z" />
<glyph unicode="c" horiz-adv-x="1046" d="M98 449q0 211 161 362.5t378 151.5q66 0 133.5 -14.5t87.5 -30.5q61 -47 84 -71t23 -44q0 -51 -22.5 -101.5t-39 -50.5t-25 9.5t-24.5 42t-33 57.5q-66 100 -207 100q-137 0 -222 -118.5t-85 -276.5q0 -154 79 -271.5t212 -117.5q96 0 213 108q14 12 33.5 41t35 49.5 t25.5 20.5q33 0 33 -49q0 -154 -70 -185q-180 -81 -310 -81h-3q-190 0 -323.5 139t-133.5 330z" />
<glyph unicode="d" horiz-adv-x="1185" d="M61 31q0 8 7.5 16t20.5 15.5t25.5 13.5t31 13t28.5 11t18.5 10.5t14.5 11.5t11 13t8 13.5t5 17.5t3.5 16t2.5 19.5t1 19.5v21.5v21.5v441q0 18 -1 31.5t-1 24.5t-5.5 20.5t-6.5 15.5t-11 11t-12 8t-17.5 8t-21.5 7.5t-27.5 8.5t-32.5 8q-33 10 -32 43q0 16 22.5 26.5 t48.5 10.5q57 0 192.5 10t219.5 10q139 0 265 -41t214 -133t88 -219q0 -238 -152.5 -396.5t-379.5 -158.5q-33 0 -139.5 4t-129.5 4q-43 0 -87 -3t-71.5 -6t-31.5 -3q-68 6 -68 35zM414 250q0 -66 51 -109t147 -43q145 0 224 118t79 280q0 145 -102 244.5t-246 99.5 q-92 0 -122.5 -25.5t-30.5 -101.5v-463z" />
<glyph unicode="e" horiz-adv-x="907" d="M61 31q0 8 7.5 16t20.5 15.5t25.5 13.5t31 13t28.5 11t18.5 10.5t14.5 11.5t11 13t8 13.5t5 17.5t3.5 16t2.5 19.5t1 19.5v21.5v21.5v441q0 18 -1 31.5t-1 24.5t-5.5 20.5t-6.5 15.5t-11 11t-12 8t-17.5 8t-21.5 7.5t-27.5 8.5t-32.5 8q-33 10 -32 43q0 16 22.5 26.5 t48.5 10.5q41 0 95.5 -4t91.5 -4q35 0 189.5 4t199.5 4q25 0 30 -4t13 -35q12 -37 12 -100.5t-35 -63.5q-41 0 -67 70q-14 36 -61 36h-3h-143q-33 0 -41 -9t-8 -40v-176q0 -82 32 -82h103q39 0 62.5 20.5t38 41t30.5 20.5q25 0 25 -137q0 -80 -4.5 -109.5t-24.5 -29.5 q-12 0 -23.5 14t-20.5 30.5t-31.5 31t-55.5 14.5h-94q-18 0 -22.5 -1t-9.5 -16.5t-5 -50.5v-139q0 -88 71 -88h172q37 0 76 92q0 2 4 8l4 13q16 45 52 45q45 0 45 -76q0 -53 -33 -132t-57 -79q-68 0 -211.5 6t-217.5 6q-27 0 -99.5 -6t-90.5 -6q-20 0 -44 10t-24 25z" />
<glyph unicode="f" horiz-adv-x="845" d="M61 31q0 8 7.5 16t20.5 15.5t25.5 13.5t31 13t28.5 11t18.5 10.5t14.5 11.5t11 13t8 13.5t5 17.5t3.5 16t2.5 19.5t1 19.5v21.5v21.5v441q0 18 -1 31.5t-1 24.5t-5.5 20.5t-6.5 15.5t-11 11t-12 8t-17.5 8t-21.5 7.5t-27.5 8.5t-32.5 8q-33 10 -32 43q0 16 22.5 26.5 t48.5 10.5q41 0 95.5 -5t91.5 -5q41 0 222 5t191 5q25 0 30 -5t13 -34q12 -49 13 -101q0 -63 -35 -63q-41 0 -68 70q-14 36 -60 36h-3h-166q-33 0 -41 -9t-8 -40v-176q0 -82 33 -82h124q39 0 68 20.5t43 41t21 20.5q24 0 24 -127v-10q0 -80 -4 -109.5t-25 -29.5 q-6 0 -19 22.5t-42 45t-70 22.5h-116q-39 0 -39 -49v-107q2 -98 20 -125q18 -25 47 -39q10 -4 28.5 -11t31 -13t26 -13.5t20.5 -15.5t7 -16q0 -29 -66 -35q-4 0 -35.5 3t-79.5 6t-91 3t-87.5 -3t-72 -6t-31.5 -3q-70 6 -70 35z" />
<glyph unicode="g" horiz-adv-x="1028" d="M80 449q0 211 160.5 362.5t377.5 151.5q141 0 265 -50q41 -18 41 -73q0 -57 -12.5 -116.5t-26.5 -59.5q-25 0 -40.5 21.5t-35.5 74.5q-18 47 -80.5 73.5t-132.5 26.5q-137 0 -222 -118.5t-85 -276.5q0 -154 78.5 -271.5t212.5 -117.5q53 0 96 27.5t43 64.5v108 q0 35 -21.5 47.5t-113.5 38.5q-33 10 -33 44q0 16 22.5 26t49.5 10q41 0 95 -5t91 -5t70.5 5t68.5 5q53 0 53 -36q0 -31 -30 -44q-76 -25 -76 -86v-118q0 -14 1 -35t1 -24t-6 -12t-13.5 -13t-27.5 -13q-180 -81 -310 -81h-3q-190 0 -323.5 139t-133.5 330z" />
<glyph unicode="h" horiz-adv-x="1318" d="M61 31q0 8 7.5 16t20.5 15.5t25.5 13.5t31 13t28.5 11t18.5 10.5t14.5 11.5t11 13t8 13.5t5 17.5t3.5 16t2.5 19.5t1 19.5v21.5v21.5v441q0 18 -1 31.5t-1 24.5t-5.5 20.5t-6.5 15.5t-11 11t-12 8t-17.5 8t-21.5 7.5t-27.5 8.5t-32.5 8q-33 10 -32 43q0 16 22.5 26.5 t48.5 10.5q41 0 95.5 -5t91.5 -5t82 5t79 5q27 0 49.5 -10.5t22.5 -26.5q0 -33 -31 -43q-84 -23 -100 -41.5t-16 -101.5v-160q0 -37 26 -37h416q39 2 39 37v160q0 84 -16.5 102t-94.5 41q-33 10 -32 43q0 16 22.5 26.5t48.5 10.5q41 0 83 -5t79 -5t93.5 5t90.5 5 q27 0 49.5 -10.5t22.5 -26.5q0 -33 -31 -43q-98 -29 -112 -41q-27 -20 -27 -102v-441q0 -100 21 -129q14 -23 45 -35q10 -4 28.5 -11t30.5 -13t25.5 -13.5t20.5 -15.5t7 -16q0 -29 -65 -35q-4 0 -36 3t-80 6t-91 3t-81 -3t-59.5 -6t-25.5 -3q-68 6 -68 35q0 8 7.5 16 t20.5 15.5t25.5 13.5t31 13t28.5 11q14 6 23.5 17.5t12.5 31t4 30.5t0 42t-1 43v119q0 33 -27 33h-426q-28 0 -28 -39v-113q0 -145 41 -164q10 -4 28.5 -11t30.5 -13t25.5 -13.5t20.5 -15.5t7 -16q0 -29 -65 -35q-4 0 -30 3t-68 6t-85 3t-87 -3t-71.5 -6t-31.5 -3 q-68 6 -68 35z" />
<glyph unicode="i" horiz-adv-x="565" d="M61 31q0 8 7.5 16t20.5 15.5t25.5 13.5t31 13t28.5 11t18.5 10.5t14.5 11.5t11 13t8 13.5t5 17.5t3.5 16t2.5 19.5t1 19.5v21.5v21.5v441q0 18 -1 31.5t-1 24.5t-5.5 20.5t-6.5 15.5t-11 11t-12 8t-17.5 8t-21.5 7.5t-27.5 8.5t-32.5 8q-33 10 -32 43q0 16 22.5 26.5 t48.5 10.5q41 0 95.5 -5t91.5 -5t93 5t91 5q27 0 49.5 -10.5t22.5 -26.5q0 -33 -31 -43q-98 -29 -113 -41q-26 -19 -26 -96v-6v-441q0 -100 20 -129q14 -23 45 -35q10 -4 28.5 -11t31 -13t26 -13.5t20.5 -15.5t7 -16q0 -29 -66 -35q-4 0 -35.5 3t-80 6t-91.5 3t-87 -3 t-71.5 -6t-31.5 -3q-68 6 -68 35z" />
<glyph unicode="j" horiz-adv-x="602" d="M-168 -299q0 47 35 84t80 37q27 0 48 -31t44.5 -61.5t56.5 -30.5q49 0 81 28.5t43 87t14.5 99.5t3.5 113v678q0 18 -1 31.5t-1 24.5t-5.5 20.5t-6.5 15.5t-11 11t-12 8t-17.5 8t-21.5 7.5t-27.5 8.5t-32.5 8q-33 10 -32 43q0 16 22.5 26.5t48.5 10.5q41 0 95.5 -5 t91.5 -5t93 5t91 5q27 0 49.5 -10.5t22.5 -26.5q0 -33 -31 -43q-98 -29 -113 -41q-26 -19 -26 -96v-6v-605q0 -201 -94.5 -354.5t-264.5 -153.5q-78 0 -150.5 32t-72.5 77z" />
<glyph unicode="k" horiz-adv-x="1107" d="M61 31q0 8 7.5 16t20.5 15.5t25.5 13.5t31 13t28.5 11t18.5 10.5t14.5 11.5t11 13t8 13.5t5 17.5t3.5 16t2.5 19.5t1 19.5v21.5v21.5v441q0 18 -1 31.5t-1 24.5t-5.5 20.5t-6.5 15.5t-11 11t-12 8t-17.5 8t-21.5 7.5t-27.5 8.5t-32.5 8q-33 10 -32 43q0 16 22.5 26.5 t48.5 10.5q41 0 95.5 -5t91.5 -5t81 5t78 5q27 0 49.5 -10.5t22.5 -26.5q0 -33 -31 -43q-88 -25 -101 -41t-13 -102v-168q0 -25 4 -31t18 -6q41 0 131 108l138 168q16 20 8 42t-37 30q-33 10 -33 43q0 16 22.5 26.5t49.5 10.5q8 0 49 -5t61 -5q27 0 83.5 5t80.5 5 q27 0 49.5 -10.5t22.5 -26.5q0 -33 -31 -43q-145 -41 -188 -70q-35 -22 -64 -57l-137 -168q-20 -25 -18 -37t34 -53l207 -262q41 -53 156 -103q61 -25 61 -67q0 -29 -65 -35q-4 0 -24.5 3t-58.5 6t-81 3t-80 -3t-57.5 -6t-24.5 -3q-67 6 -67 34q0 24 16 37t57 27q17 6 17 22 q0 18 -23 50l-131 166q-52 67 -108 67h-2q-20 -2 -27.5 -8t-7.5 -24v-170q0 -74 49 -97q78 -35 78 -69q0 -29 -66 -35q-4 0 -22.5 3t-54.5 6t-79 3t-87 -3t-71.5 -6t-31.5 -3q-68 6 -68 35z" />
<glyph unicode="l" horiz-adv-x="989" d="M61 31q0 8 7.5 16t20.5 15.5t25.5 13.5t31 13t28.5 11t18.5 10.5t14.5 11.5t11 13t8 13.5t5 17.5t3.5 16t2.5 19.5t1 19.5v21.5v21.5v441q0 18 -1 31.5t-1 24.5t-5.5 20.5t-6.5 15.5t-11 11t-12 8t-17.5 8t-21.5 7.5t-27.5 8.5t-32.5 8q-33 10 -32 43q0 16 22.5 26.5 t48.5 10.5q41 0 95.5 -5t91.5 -5t93 5t91 5q27 0 49.5 -10.5t22.5 -26.5q0 -33 -31 -43q-98 -29 -113 -41q-26 -19 -26 -96v-6v-441q0 -82 21.5 -105.5t88.5 -23.5h176q39 0 74 42t55 89q16 45 52 45q45 0 45 -75q0 -20 -14.5 -73.5t-52.5 -110t-83 -56.5q-70 0 -233.5 6 t-231.5 6q-43 0 -85 -3t-67.5 -6t-29.5 -3q-68 6 -68 35z" />
<glyph unicode="m" horiz-adv-x="1476" d="M47 31q0 39 103 69q104 35 112 119l49 412q4 30 4 54q0 29 -6 51q-10 38 -23.5 48.5t-43.5 20.5q-2 2 -140 43q-33 10 -32 43q0 16 22.5 26.5t48.5 10.5q41 0 140.5 -5t136.5 -5q55 0 76 -41l225 -476q20 -41 43 -41q30 0 65 74l203 432q25 51 98 52q12 0 83 5t110 5 q27 0 49.5 -10.5t22.5 -26.5q0 -33 -31 -43q-47 -14 -63.5 -18.5t-43 -16.5t-34 -23.5t-13.5 -31t-4 -45.5l27 -363q10 -143 30.5 -187t69.5 -61q88 -29 88 -71q0 -29 -65 -35q-4 0 -23.5 3t-55.5 6t-79 3t-87 -3t-71.5 -6t-31.5 -3q-68 6 -68 35q0 36 90 63q16 4 23.5 23.5 t7.5 36t-2 41t-2 26.5l-27 328q-4 33 -14 29q-6 0 -13 -15l-153 -303q-4 -6 -34 -76.5t-53.5 -107.5t-43.5 -37q-8 0 -15.5 2t-14.5 7t-12 10t-11.5 14.5t-10.5 15.5t-11 19.5t-10 19.5t-10.5 21.5t-9.5 21.5l-192 418q-14 31 -21 -19l-2 -22l-14 -264q-1 -9 -1 -18 q0 -49 18 -95q22 -56 55 -70q10 -4 29.5 -12t30.5 -13t25.5 -12.5t20.5 -15.5t6 -16q0 -29 -65 -35q-4 0 -36 3t-80 6t-91 3t-84 -3t-66.5 -6t-29.5 -3q-68 6 -68 35z" />
<glyph unicode="n" horiz-adv-x="1103" d="M92.5 917.5q22.5 10.5 48.5 10.5q41 0 97.5 -5t89.5 -5q45 0 127 -103l360 -446q4 -4 12 -15q20 -14 23 2v349q0 109 -107 143q-33 10 -32 43q0 37 55 37q14 0 65.5 -5t79.5 -5q27 0 69 5t60 5q59 0 60 -37q0 -35 -31 -43q-41 -12 -70.5 -50t-29.5 -89v-367q0 -37 7 -116 t7 -99q0 -147 -29 -147q-31 0 -70.5 33.5t-117.5 129.5l-358 449q-6 6 -11 -10q-6 -27 -6 -80v-238q0 -100 21 -129q14 -23 45 -35q31 -14 44 -21t28.5 -20.5t15.5 -27.5q0 -29 -66 -35q-4 0 -23.5 3t-56.5 6t-80 3t-81.5 -3t-61 -6t-26.5 -3q-68 6 -68 35q0 8 7 16 t20.5 15.5t25.5 13.5t30.5 13t29 11t18.5 10.5t14 11.5t11.5 13t8.5 13.5t5 17.5t3 16t2 19.5t1 19.5v21.5v21.5v381q0 102 -31 131q-45 45 -125 72q-32 10 -32 41q0 18 22.5 28.5z" />
<glyph unicode="o" horiz-adv-x="1146" d="M80 436q0 217 149.5 372t362.5 155q197 0 340 -125t143 -314q0 -227 -161.5 -385.5t-389.5 -158.5q-186 0 -315 134t-129 322zM289 520q0 -176 78.5 -313t224.5 -137q129 0 200.5 122.5t71.5 280.5q0 154 -90 274.5t-229 120.5q-117 0 -186.5 -106.5t-69.5 -241.5z" />
<glyph unicode="p" horiz-adv-x="942" d="M61 31q0 8 7.5 16t20.5 15.5t25.5 13.5t31 13t28.5 11t18.5 10.5t14.5 11.5t11 13t8 13.5t5 17.5t3.5 16t2.5 19.5t1 19.5v21.5v21.5v441q0 18 -1 31.5t-1 24.5t-5.5 20.5t-6.5 15.5t-11 11t-12 8t-17.5 8t-21.5 7.5t-27.5 8.5t-32.5 8q-33 10 -32 43q0 16 22.5 26.5 t48.5 10.5q37 0 127 7t148 7q113 0 211 -26.5t170.5 -93t72.5 -163.5q0 -117 -98 -209t-199 -92q-57 0 -57 33q0 35 39 45q45 12 79 68.5t34 140.5q0 94 -52.5 138t-132.5 44q-31 0 -42 -5t-19 -31.5t-8 -85.5v-441q0 -100 20 -129q14 -23 45 -35q10 -4 28.5 -11t31 -13 t26 -13.5t20.5 -15.5t7 -16q0 -29 -66 -35q-4 0 -35.5 3t-80 6t-91.5 3t-87 -3t-71.5 -6t-31.5 -3q-68 6 -68 35z" />
<glyph unicode="q" horiz-adv-x="1198" d="M80 440q0 219 166 371t389 152q193 0 329 -135.5t136 -327.5q0 -106 -26.5 -205.5t-92.5 -185.5t-160 -121q-20 -8 -20 -19q-2 -2 2 -4q33 -16 161 -82.5t194.5 -96.5t179 -75t214 -64.5t203.5 -19.5q80 0 142.5 21.5t70.5 21.5q35 0 35 -39q0 -47 -122 -92t-230 -45 q-139 0 -300 54.5t-392.5 159t-364.5 153.5q-111 41 -170 82q-170 115 -257 224t-87 273zM295 471q0 -188 88 -329.5t248 -141.5q72 0 124 40t80.5 106.5t41 139t12.5 154.5q0 170 -83 299t-231 129q-133 0 -206.5 -119.5t-73.5 -277.5z" />
<glyph unicode="r" horiz-adv-x="1208" d="M61 31q0 8 7.5 16t20.5 15.5t25.5 13.5t31 13t28.5 11t18.5 10.5t14.5 11.5t11 13t8 13.5t5 17.5t3.5 16t2.5 19.5t1 19.5v21.5v21.5v441q0 18 -1 31.5t-1 24.5t-5.5 20.5t-6.5 15.5t-11 11t-12 8t-17.5 8t-21.5 7.5t-27.5 8.5t-32.5 8q-33 10 -32 43q0 16 22.5 26.5 t48.5 10.5q41 0 95.5 -5t91.5 -5q35 0 112.5 7t116.5 7q121 0 209 -70.5t88 -181.5q0 -84 -48 -146.5t-128 -84.5q-27 -6 -4 -23q70 -57 179.5 -198.5t164.5 -164.5q18 -8 40.5 -16t36 -12t24.5 -10.5t16.5 -12.5t5.5 -16q0 -72 -144 -72q-39 0 -93 19.5t-91 56.5 q-51 51 -130 153.5t-126 151.5q-66 70 -113 70h-20t-6 -11.5t-4 -39.5v-60q0 -100 20 -129q14 -23 45 -35q10 -4 28.5 -11t31 -13t26 -13.5t20.5 -15.5t7 -16q0 -29 -66 -35q-4 0 -35.5 3t-80 6t-91.5 3t-87 -3t-71.5 -6t-31.5 -3q-68 6 -68 35zM414 561q0 -74 67 -74 q74 0 127.5 54.5t53.5 128.5q0 68 -52.5 111.5t-124.5 43.5q-31 0 -51 -18.5t-20 -48.5v-197z" />
<glyph unicode="s" horiz-adv-x="763" d="M76 205q0 35 30 35q18 0 51 -40t86.5 -81t118.5 -41q55 0 91 40t36 97q0 39 -17 71.5t-56 61.5t-64.5 44.5t-79.5 41.5q-184 90 -184 264q0 121 105.5 193t242.5 72q33 0 58.5 -6.5t51 -16.5t42.5 -14q47 -14 47 -43q0 -145 -33 -146q-37 0 -57 37q-39 70 -148 70 q-47 0 -80.5 -30t-33.5 -75q0 -61 43 -98t149 -92q127 -66 172 -128.5t45 -172.5q0 -129 -117.5 -198.5t-271.5 -69.5q-74 0 -132 23.5t-67 47.5q-28 70 -28 149v5z" />
<glyph unicode="t" d="M80 735q0 84 21.5 149.5t52.5 65.5q12 0 65 -26.5t111 -26.5h440q63 0 135 28.5t78 28.5q43 0 43 -59q0 -29 -25.5 -106.5t-46.5 -77.5q-16 0 -44.5 42t-65.5 42h-156q-29 0 -37 -2t-15 -20.5t-7 -65.5v-443q0 -100 20 -129q14 -23 45 -35q10 -4 28.5 -11t31 -13 t26 -13.5t20.5 -15.5t7 -16q0 -29 -66 -35q-4 0 -35.5 3t-79.5 6t-91 3t-87.5 -3t-72 -6t-31.5 -3q-68 6 -68 35q0 8 7.5 16t20.5 15.5t25.5 13.5t31 13t28.5 11t18.5 10.5t14.5 11.5t11 13t8 13.5t5.5 17.5t3.5 16t2 19.5t1 19.5v21.5v21.5v438q0 61 -9.5 77t-33.5 16h-164 q-23 0 -64 -56.5t-53 -56.5q-49 0 -49 53z" />
<glyph unicode="u" horiz-adv-x="1269" d="M92.5 917.5q22.5 10.5 48.5 10.5q41 0 95.5 -5t91.5 -5t93 5t91 5q27 0 49.5 -10.5t22.5 -26.5q0 -33 -31 -43q-98 -29 -113 -41q-26 -19 -26 -96v-6v-338q0 -113 76.5 -196t185.5 -83q127 0 194.5 72.5t67.5 197.5v334q0 51 -34 95t-70 55q-43 12 -43 49q0 16 22.5 26.5 t48.5 10.5q18 0 57 -5t62 -5q20 0 69.5 5t69.5 5q27 0 49.5 -10.5t22.5 -26.5q0 -35 -35 -43q-70 -18 -93.5 -52t-23.5 -96v-282q0 -186 -115.5 -314.5t-293.5 -128.5q-184 0 -288.5 131.5t-104.5 317.5v281q0 18 -1 31.5t-1 24.5t-5.5 20.5t-6.5 15.5t-11 11t-12 8t-17.5 8 t-21.5 7.5t-27.5 8.5t-32.5 8q-32 10 -32 41q0 18 22.5 28.5z" />
<glyph unicode="v" horiz-adv-x="1124" d="M10 891q0 16 22.5 26.5t49.5 10.5t92.5 -5t94 -5t97 5t87.5 5q27 0 49 -10.5t22 -26.5q0 -35 -47 -49q-59 -16 -69 -34q-4 -6 -4 -15q0 -20 14 -56l145 -360q14 -33 29 -33q16 0 33 37l163 356q13 26 13 47q0 43 -56 58q-43 12 -43 49q0 16 23 26.5t49 10.5q18 0 57 -5 t62 -5q20 0 74.5 5t74.5 5q27 0 49.5 -10.5t22.5 -26.5q0 -35 -35 -43q-74 -20 -121 -74.5t-106 -181.5l-166 -361q-18 -39 -41.5 -114.5t-43 -106t-54.5 -30.5q-10 0 -20.5 7t-21.5 22.5t-19.5 30.5t-20.5 43t-19.5 46t-20.5 54t-22 55l-163 405q-70 170 -197 205 q-33 10 -33 43z" />
<glyph unicode="w" horiz-adv-x="1566" d="M10 891q0 16 22.5 26.5t49.5 10.5t92.5 -5t94 -5t97 5t87.5 5q27 0 49 -10.5t22 -26.5q0 -35 -47 -49q-59 -14 -69 -32q-3 -6 -3 -17q0 -20 13 -56l121 -360q8 -18 17 -27.5t21.5 -3.5t22.5 35l115 356q3 10 3 19q0 28 -32 51q-37 29 -82 41q-33 10 -33 43 q0 16 22.5 26.5t49.5 10.5t92.5 -5t94 -5t97 5t87.5 5q27 0 49 -10.5t22 -26.5q0 -35 -47 -49q-102 -27 -120 -47q-20 -20 -9 -58l121 -360q15 -35 30 -35l32 39l139 356q12 26 12 46q0 13 -5 23q-13 26 -50 36q-43 12 -43 49q0 16 22.5 26.5t49.5 10.5q18 0 57 -5t61 -5 q20 0 74.5 5t75.5 5q27 0 49 -10.5t22 -26.5q0 -35 -34 -43q-70 -18 -114 -70.5t-114 -185.5l-141 -361q-12 -31 -26.5 -74.5l-23.5 -70.5t-21.5 -54.5t-29 -39.5t-38.5 -12q-35 0 -65.5 63t-78.5 195l-90 270q-4 12 -9 18t-10 2t-9 -16l-90 -281q-6 -20 -16.5 -53 t-16.5 -52.5t-15.5 -46t-17.5 -41.5t-19.5 -29.5t-24.5 -21.5t-30 -7q-10 0 -20 7t-21.5 22.5t-19.5 30.5t-20.5 43t-19.5 46t-20.5 54t-21.5 55l-139 405q-20 61 -69.5 121.5t-127.5 83.5q-33 10 -33 43z" />
<glyph unicode="x" d="M20 31q0 33 117 67q106 35 154 90l190 234l-180 235q-4 6 -20.5 28l-19.5 26t-17.5 21.5t-18.5 21.5l-17 17t-22.5 18.5t-24 15.5t-28.5 15t-32.5 13.5t-39.5 14.5q-33 10 -32 43q0 16 22.5 26.5t49 10.5t92 -5t94 -5t97.5 5t87 5q27 0 49.5 -10.5t22.5 -26.5 q0 -35 -47 -49q-47 -13 -47 -41q0 -24 32 -64l121 -168l137 168q20 25 20 48q0 7 -2 15q-9 30 -44 42q-43 12 -43 49q0 16 22.5 26.5t48.5 10.5q18 0 57.5 -5t61.5 -5q20 0 74.5 5t75.5 5q27 0 49 -10.5t22 -26.5q0 -35 -34 -43q-59 -16 -82 -25.5t-60 -42t-92 -102.5 l-151 -191l204 -282q45 -63 160 -113q35 -14 48 -26.5t13 -34.5q0 -29 -65 -35q-4 0 -24.5 3t-58.5 6t-81 3q-31 0 -92 -6t-70 -6q-23 0 -45 10t-22 25q0 23 16.5 36t56.5 27q8 3 8 11q0 17 -32 59l-133 174l-121 -154q-31 -41 -31 -63q0 -19 21 -25q88 -29 88 -65 q0 -29 -66 -35q-4 0 -25.5 3t-60.5 6t-82 3t-84 -3t-66.5 -6t-29.5 -3q-68 6 -68 35z" />
<glyph unicode="y" horiz-adv-x="1124" d="M2 891q0 16 22.5 26.5t49 10.5t92 -5t94.5 -5t97.5 5t86.5 5q27 0 49.5 -10.5t22.5 -26.5q0 -35 -47 -49q-61 -16 -73 -36q-4 -6 -4 -16q0 -20 18 -53l90 -147q29 -45 46 -38t66 73l82 112q17 25 17 49q0 8 -1 16q-8 32 -42 40q-43 12 -43 49q0 16 22.5 26.5t48.5 10.5 q18 0 57.5 -5t61.5 -5q20 0 74.5 5t75.5 5q27 0 49 -10.5t22 -26.5q0 -35 -35 -43q-49 -14 -63 -18.5t-45 -23t-56.5 -46t-68.5 -82.5l-125 -170q-35 -47 -42 -71.5t-7 -71.5v-134q0 -49 2 -64t15.5 -33.5t47.5 -33.5q10 -4 29 -11t31 -13t25.5 -13.5t20.5 -15.5t7 -16 q0 -29 -65 -35q-4 0 -36 3t-80 6t-91 3t-87 -3t-72 -6t-32 -3q-67 6 -67 34q0 9 7 17t20.5 15.5t25.5 13.5t30.5 13t28.5 11q45 20 54.5 39t9.5 70v10v8v103q0 74 -45 139l-123 188q-2 4 -14.5 24.5t-19.5 30t-20.5 29t-27.5 30.5t-33.5 26.5t-45.5 28t-54 22.5 q-33 10 -33 43z" />
<glyph unicode="z" horiz-adv-x="999" d="M66 66q0 12 13 31.5t42 53t47 60.5l414 539q27 33 20.5 48t-47.5 15h-240q-29 0 -51 -13.5t-31.5 -25.5t-29 -45t-25.5 -43q-25 -39 -51 -39q-47 0 -47 62q0 16 18.5 89.5t32.5 108.5q23 51 53 51q6 0 59.5 -19t110.5 -19h334q27 0 91.5 8t78.5 8q51 0 51 -35 q0 -29 -22 -57l-486 -621q-29 -39 -36 -61.5t18 -28.5h317q37 0 73 43t56 90q16 45 52 45q45 0 45 -75q0 -27 -35 -135.5t-55 -108.5q-55 0 -267.5 7t-263.5 7q-35 0 -95 -7t-75 -7q-23 0 -46 26.5t-23 47.5z" />
<glyph unicode="{" horiz-adv-x="763" d="M51 578q0 6 3 8t9.5 2t10.5 2q195 72 194 237q0 61 -13 176t-13 189q0 133 125 202.5t288 69.5q37 0 37 -30q0 -25 -53 -25q-106 0 -173 -50t-67 -157q0 -72 13.5 -184.5t13.5 -169.5q0 -92 -70.5 -164t-150.5 -104q-8 -5 4 -9q63 -16 140 -98t77 -172q0 -57 -13.5 -170 t-13.5 -184q0 -106 66.5 -156.5t173.5 -50.5q53 0 53 -25q0 -31 -37 -30q-164 0 -288.5 69.5t-124.5 202.5q0 74 13 188.5t13 176.5q0 166 -194 237q-23 8 -23 19z" />
<glyph unicode="|" horiz-adv-x="321" d="M113 -389v1565q0 29 24.5 51t50.5 22q14 0 17.5 -13t3.5 -60v-1561q0 -25 -22.5 -43t-49.5 -18q-25 0 -24 57z" />
<glyph unicode="}" horiz-adv-x="763" d="M72 -285q0 25 53 25q106 0 174 50t68 157q0 72 -13.5 184.5t-13.5 169.5q0 90 77 172t140 98q10 4 4 9q-80 33 -150.5 104.5t-70.5 163.5q0 57 13.5 169.5t13.5 184.5q0 106 -68 156.5t-174 50.5q-53 0 -53 25q0 31 37 30q164 0 288.5 -69.5t124.5 -202.5 q0 -74 -13 -188.5t-13 -176.5q0 -166 194 -237q4 -2 10.5 -2t9.5 -2t3 -8q0 -10 -23 -19q-195 -72 -194 -237q0 -61 13 -176t13 -189q0 -133 -125 -202.5t-288 -69.5q-37 0 -37 30z" />
<glyph unicode="~" horiz-adv-x="790" d="M82 375q0 43 68.5 115.5t136.5 72.5q49 0 115.5 -32.5t115.5 -32.5q39 0 89 44t57 44q16 0 30.5 -10.5t14.5 -24.5q0 -39 -73.5 -114t-141.5 -75q-51 0 -114 34t-114 34q-37 0 -87 -45t-54 -45q-14 0 -28.5 10t-14.5 25z" />
<glyph unicode="&#xa1;" horiz-adv-x="423" d="M86 -317q0 285 33 444q39 207 75.5 207t49.5 -78q47 -340 47 -553q0 -45 -34 -79t-79 -34q-92 0 -92 93zM88 692q0 53 35 95t86 42q45 0 77.5 -30.5t32.5 -75.5q0 -53 -31.5 -93t-80.5 -40q-47 0 -83 29.5t-36 72.5z" />
<glyph unicode="&#xa3;" horiz-adv-x="1228" d="M82 98q0 76 162 185q66 45 82 88q51 141 84 315h-123q-31 0 -83 -11t-69 -11q-37 0 -37 22q0 33 11.5 61.5t27.5 28.5h287q27 172 35 223q37 209 156.5 312.5t304.5 103.5q59 0 100 -62.5t41 -146.5q0 -47 -24.5 -66.5t-78.5 -19.5q-41 0 -40 49q0 10 6 46t6 38 q0 31 -33 53.5t-74 22.5q-70 0 -121 -60.5t-71 -148.5q-2 -8 -47 -344h243q68 0 68 -24.5t-19.5 -45t-44.5 -20.5h-260q-14 -90 -39 -160q-39 -109 -102 -186q-20 -31 -3 -46t81 -32q61 -16 179 -82.5t196 -66.5q68 0 94.5 16t26.5 59q0 2 -6.5 34t-6.5 61q0 111 80 110.5 t80 -131.5q0 -109 -113.5 -198t-230.5 -89q-37 0 -68.5 5.5t-54 8.5t-51.5 19.5t-40 20.5t-41 29.5t-35 29.5t-39 39t-38 39q-29 35 -57.5 26.5t-81.5 -77.5q-49 -66 -73.5 -83.5t-75.5 -17.5q-29 0 -49.5 23.5t-20.5 60.5z" />
<glyph unicode="&#xa4;" horiz-adv-x="989" d="M78 199q0 10 6 16l88 96q-72 94 -72 241.5t72 240.5l-88 96q-6 6 -6 14q0 20 21.5 42t41.5 22q10 0 17 -6l92 -84q100 76 244 75q147 0 241 -75l94 86q6 6 17 6q18 0 39.5 -20.5t21.5 -41.5q0 -12 -8 -20l-84 -92q72 -94 72 -241.5t-72 -242.5l88 -96q6 -6 6 -14 q0 -20 -21.5 -42t-41.5 -22q-10 0 -17 6l-94 86q-94 -76 -241.5 -75.5t-241.5 75.5l-96 -86q-6 -6 -17 -6q-20 0 -40.5 20.5t-20.5 41.5zM223 553q0 -123 75 -200t195.5 -77t195.5 77t75 200t-75 199.5t-195.5 76.5t-195.5 -76.5t-75 -199.5z" />
<glyph unicode="&#xa6;" horiz-adv-x="321" d="M113 236q0 29 24.5 51t50.5 22q14 0 17.5 -13t3.5 -60v-621q0 -25 -22.5 -43t-49.5 -18q-25 0 -24 57v625zM113 551v625q0 29 24.5 51t50.5 22q14 0 17.5 -13t3.5 -60v-621q0 -25 -22.5 -43t-49.5 -18q-25 0 -24 57z" />
<glyph unicode="&#xa7;" horiz-adv-x="681" d="M45 -190.5q0 51.5 78 51.5q23 0 69 -35t78 -35q45 0 73 41t28 96q0 31 -81 132.5t-163 234.5t-82 237q0 135 55.5 277.5t174 250t270.5 107.5q47 0 82 -29.5t35 -78.5q0 -25 -23 -45.5t-66 -20.5q-33 0 -92 54q-20 18 -69 18q-45 0 -77 -40t-32 -89q0 -37 52.5 -109.5 t114.5 -146.5t114.5 -175.5t52.5 -187.5q0 -131 -58.5 -273t-167 -244.5t-231.5 -102.5q-55 0 -95 30.5t-40 82zM162 649q0 -74 86 -221t170 -259t92 -112q10 0 19.5 46.5t9.5 78.5q0 59 -85 202.5t-170 258.5t-94 115q-28 0 -28 -109z" />
<glyph unicode="&#xa8;" horiz-adv-x="667" d="M51 1231q0 45 31 76.5t76 31.5t77.5 -31.5t32.5 -76.5t-32.5 -77t-77.5 -32t-76 32t-31 77zM399 1231q0 45 33 76.5t78 31.5t75.5 -31.5t30.5 -76.5t-30.5 -77t-75.5 -32t-78 32t-33 77z" />
<glyph unicode="&#xa9;" horiz-adv-x="1386" d="M82 614.5q0 266.5 207.5 444.5t488.5 178q242 0 407 -185.5t165 -437.5t-165 -438t-407 -186q-281 0 -488.5 179t-207.5 445.5zM154 614.5q0 -237.5 186 -395.5t438 -158q213 0 356.5 165t143.5 388.5t-143.5 387t-356.5 163.5q-252 0 -438 -156.5t-186 -394zM305 612 q0 178 143 294t336 116q102 0 230 -61q61 -29 61 -160q0 -57 -37 -58q-23 0 -43 28t-30 60q-10 37 -75 71t-130 34q-113 0 -192 -81t-79 -196q0 -143 80 -251.5t209 -108.5t230 150q47 72 57 71q23 0 22 -57q0 -51 -32 -121q-18 -39 -94 -78q-109 -51 -216 -51 q-178 0 -309 114.5t-131 284.5z" />
<glyph unicode="&#xab;" horiz-adv-x="1310" d="M205 432q0 10 6 14q193 131 395 349q25 25 49 24q6 0 13.5 -15.5t7.5 -23.5q0 -12 -12 -32q-144 -218 -230 -304q-14 -14 0 -28q125 -125 230 -314q8 -12 8 -24q0 -10 -7.5 -24.5t-13.5 -14.5q-25 0 -61 37q-170 176 -348 297q-37 25 -37 59zM635 432q0 10 6 14 q193 131 395 349q25 25 49 24q6 0 13.5 -15.5t7.5 -23.5q0 -12 -12 -32q-144 -218 -230 -304q-14 -14 0 -28q125 -125 230 -314q8 -12 8 -24q0 -10 -7.5 -24.5t-13.5 -14.5q-25 0 -61 37q-170 176 -348 297q-37 25 -37 59z" />
<glyph unicode="&#xad;" horiz-adv-x="790" d="M92 399q0 37 19.5 75t56.5 42l487 39q63 4 64 -57q0 -39 -17.5 -69t-50.5 -32l-448 -37q-111 -10 -111 39z" />
<glyph unicode="&#xae;" horiz-adv-x="2048" />
<glyph unicode="&#xaf;" horiz-adv-x="593" d="M51 1270q0 27 12 64t37 37h416q10 0 18 -8.5t8 -16.5q0 -39 -16 -69.5t-47 -30.5h-399q-10 0 -19.5 7t-9.5 17z" />
<glyph unicode="&#xb0;" horiz-adv-x="731" d="M84 1006q0 111 83 187.5t198 76.5q119 0 208 -67.5t89 -174.5q0 -129 -86.5 -223t-210.5 -94q-119 0 -200 87t-81 208zM201 989q0 -72 51 -122t123 -50q74 0 124 56.5t50 134.5q0 68 -55.5 110.5t-128.5 42.5q-68 0 -116 -51t-48 -121z" />
<glyph unicode="&#xb1;" horiz-adv-x="868" d="M86 61q0 29 30.5 51.5t78.5 22.5h583q37 0 61.5 -16.5t24.5 -40.5q0 -27 -22.5 -51.5t-65.5 -24.5l-581 -2q-109 0 -109 61zM86 629q0 29 30.5 51t78.5 22h215v216q0 51 19.5 79.5t46 28.5t47 -20.5t20.5 -65.5v-238h235q37 0 61.5 -16t24.5 -41q0 -27 -22.5 -51.5 t-65.5 -24.5h-233v-239q0 -82 -66 -82q-68 0 -67 78v241h-215q-109 0 -109 62z" />
<glyph unicode="&#xb2;" horiz-adv-x="636" d="M47 897q0 29 33 55l76 60q70 55 143.5 134t73.5 128q0 53 -32 79.5t-77 26.5q-16 0 -33.5 -4t-29 -7t-29.5 -14.5t-23.5 -15.5t-27 -20.5t-23.5 -18.5q-14 -10 -29.5 0.5t-15.5 32.5q0 47 89 100.5t177 53.5q76 0 138.5 -37t62.5 -102q0 -25 -7 -48.5t-25.5 -49t-34 -45 t-48 -49.5t-50 -45t-58.5 -49t-57 -48q-6 -6 4 -9.5t20 -3.5h205q47 0 58.5 2.5t25.5 14.5q35 27 45 24q4 0 9 -7t5 -11l-2 -4v-4q-31 -84 -41 -139q-4 -25 -24 -25h-412q-86 0 -86 45z" />
<glyph unicode="&#xb3;" horiz-adv-x="614" d="M94 956q0 14 12.5 36t24.5 22q16 0 27 -10q68 -45 133 -46q20 0 43.5 8.5t50.5 43t27 88.5q0 51 -39 83.5t-99 32.5q-23 0 -75 -14q-6 -2 -15.5 1t-13.5 10.5t0 11.5q14 14 31.5 23t39 16.5t29.5 11.5q61 33 87 58.5t26 72.5q0 31 -33 53.5t-63 22.5q-86 0 -148 -62 q-12 -12 -16 -12q-6 0 -12.5 8t-4.5 15q76 147 211 147q180 0 181 -145q0 -76 -121 -136q-6 -2 -6 -9t6 -7q59 0 100 -45t41 -109q0 -113 -95.5 -175t-193.5 -62q-135 0 -135 67z" />
<glyph unicode="&#xb4;" horiz-adv-x="423" d="M52 1089q0 20 60.5 145t94.5 187q23 37 56 37q43 0 76.5 -12.5t33.5 -34.5q0 -18 -89 -126.5t-152 -176.5q-41 -45 -62 -45q-18 0 -18 26z" />
<glyph unicode="&#xb5;" horiz-adv-x="1044" d="M63 14q0 14 7.5 83t7.5 106q0 31 -7.5 241.5t-7.5 257.5q0 74 26 125.5t81 51.5q45 0 70.5 -40t25.5 -114q0 -43 -31.5 -221t-31.5 -219q0 -47 41 -99.5t102 -52.5q80 0 128 31t85 100q18 37 31.5 76t20.5 64.5t10.5 75.5t3.5 65.5v80v76.5q0 63 33.5 116.5t82.5 53.5 q47 0 67.5 -42t20.5 -87q0 -35 -49 -187.5t-49 -209.5q0 -68 33 -128t96 -60q45 0 98 39l52 41q23 0 22 -19q0 -106 -63.5 -170.5t-137.5 -64.5q-49 0 -77.5 26.5t-59.5 102.5q-23 68 -26 110q-25 -53 -98.5 -144t-139.5 -91q-74 0 -128 23.5t-76.5 53t-40 53t-25.5 23.5 q-20 0 -21 -69q0 -74 25 -217q12 -70 43 -140.5t56.5 -115.5t25.5 -58q0 -33 -18.5 -59.5t-47.5 -26.5q-88 0 -129 105q-31 82 -31 454z" />
<glyph unicode="&#xb6;" horiz-adv-x="1200" d="M94 696q0 170 107.5 298t269.5 188.5t344 58.5h287q31 0 31 -45q0 -18 -9.5 -44t-19.5 -26h-215q-14 0 -25.5 -11t-11.5 -25v-1211q0 -166 -86 -298t-229 -132q-84 0 -144.5 57.5t-60.5 141.5q0 78 47 136t121 58q57 0 96 -37.5t39 -95.5q0 -43 -27.5 -72.5t-68.5 -29.5 q-23 0 -53.5 23.5t-36.5 23.5q-19 0 -19 -29q0 -41 28.5 -72.5t69.5 -31.5q100 0 154.5 90t54.5 209v286q0 51 -26 52q-256 0 -436.5 149.5t-180.5 388.5z" />
<glyph unicode="&#xb7;" horiz-adv-x="417" d="M82 762q0 53 37 90t90 37t90 -37t37 -90t-37 -90t-90 -37t-90 37t-37 90z" />
<glyph unicode="&#xb8;" horiz-adv-x="423" d="M71 -457q0 23 15.5 44.5t32.5 21.5q2 0 48 -30t70.5 -30t30.5 11.5t6 37.5q0 41 -84 112t-84 95q0 43 33 81t141 132h82q-57 -39 -88 -77.5t-31 -59.5q0 -16 41 -53t83 -86t42 -92q0 -80 -88 -136.5t-180 -56.5q-70 0 -70 86z" />
<glyph unicode="&#xbb;" horiz-adv-x="1310" d="M205 78q0 12 12 33q143 217 229 303q14 14 0 28q-125 125 -229 314q-8 12 -8 24q0 10 7 24.5t13 14.5q25 0 62 -37q170 -176 348 -297q37 -25 37 -59q0 -12 -6 -14q-193 -131 -396 -349q-25 -25 -49 -24q-6 0 -13 15.5t-7 23.5zM635 78q0 12 12 33q143 217 229 303 q14 14 0 28q-125 125 -229 314q-8 12 -8 24q0 10 7 24.5t13 14.5q25 0 62 -37q170 -176 348 -297q37 -25 37 -59q0 -12 -6 -14q-193 -131 -396 -349q-25 -25 -49 -24q-6 0 -13 15.5t-7 23.5z" />
<glyph unicode="&#xbf;" horiz-adv-x="544" d="M86 86q0 127 61 152q25 10 72 25.5t80 27.5q4 2 29.5 62.5t48.5 60.5q20 0 36.5 -60.5t16.5 -109.5q0 -100 -35 -115q-25 -10 -68.5 -23.5t-66.5 -23.5q-106 -45 -106 -143q0 -31 22.5 -63t46.5 -40q98 -27 152 -47q74 -27 74 -96q0 -147 -37 -148q-176 0 -251 140.5 t-75 400.5zM225 696q0 57 34 95t91 38q49 0 85 -33.5t36 -82.5q0 -53 -37 -88t-92 -35q-49 0 -83 29.5t-34 76.5z" />
<glyph unicode="&#xc0;" horiz-adv-x="1329" d="M41 31q0 14 16.5 23t50 20.5t46.5 17.5q10 4 18 8t14.5 8.5t12.5 9.5t9 7t7 10t6 10t7 13.5t6.5 15.5t7.5 19.5t8 23.5l313 866q8 23 16.5 45.5t12.5 34t8 20.5t9 13t12 4q23 2 53.5 32t34.5 30q10 0 18 -7.5t15.5 -22.5t12.5 -29.5t14 -43.5t15 -45l271 -764 q49 -135 79.5 -183t102.5 -75q82 -29 82 -63q0 -33 -59 -33q-20 0 -86 6t-103 6q-76 0 -164 -6t-110.5 -6t-44 9t-21.5 26q0 14 15.5 23t49 20.5t46.5 17.5q80 37 59 109l-59 194q-8 25 -33 25h-342q-25 0 -33 -23l-78 -223q-23 -68 45 -86q76 -20 76 -57q0 -35 -71 -35 q-20 0 -85 6t-83 6q-29 0 -73 -6t-56 -6q-68 0 -68 35zM432 1597q0 18 50.5 32.5t80.5 14.5q37 0 56 -26q25 -35 49 -76t52 -90t44 -78q10 -16 10 -31q0 -12 -12 -12t-37 18q-174 131 -266 209q-27 25 -27 39zM478 523q3 -9 28 -9h250q31 0 35 12.5t-13 61.5l-125 383 q-8 29 -22 -6l-144 -408q-12 -25 -9 -34z" />
<glyph unicode="&#xc1;" horiz-adv-x="1329" d="M41 31q0 14 16.5 23t50 20.5t46.5 17.5q10 4 18 8t14.5 8.5t12.5 9.5t9 7t7 10t6 10t7 13.5t6.5 15.5t7.5 19.5t8 23.5l313 866q8 23 16.5 45.5t12.5 34t8 20.5t9 13t12 4q23 2 53.5 32t34.5 30q10 0 18 -7.5t15.5 -22.5t12.5 -29.5t14 -43.5t15 -45l271 -764 q49 -135 79.5 -183t102.5 -75q82 -29 82 -63q0 -33 -59 -33q-20 0 -86 6t-103 6q-76 0 -164 -6t-110.5 -6t-44 9t-21.5 26q0 14 15.5 23t49 20.5t46.5 17.5q80 37 59 109l-59 194q-8 25 -33 25h-342q-25 0 -33 -23l-78 -223q-23 -68 45 -86q76 -20 76 -57q0 -35 -71 -35 q-20 0 -85 6t-83 6q-29 0 -73 -6t-56 -6q-68 0 -68 35zM478 523q3 -9 28 -9h250q31 0 35 12.5t-13 61.5l-125 383q-8 29 -22 -6l-144 -408q-12 -25 -9 -34zM602 1343q0 14 11 31q4 8 58 102t87 142q18 27 55 26q31 0 81 -14t50 -33q0 -14 -26 -39q-92 -78 -267 -209 q-24 -18 -36.5 -18t-12.5 12z" />
<glyph unicode="&#xc2;" horiz-adv-x="1329" d="M41 31q0 14 16.5 23t50 20.5t46.5 17.5q10 4 18 8t14.5 8.5t12.5 9.5t9 7t7 10t6 10t7 13.5t6.5 15.5t7.5 19.5t8 23.5l313 866q8 23 16.5 45.5t12.5 34t8 20.5t9 13t12 4q23 2 53.5 32t34.5 30q10 0 18 -7.5t15.5 -22.5t12.5 -29.5t14 -43.5t15 -45l271 -764 q49 -135 79.5 -183t102.5 -75q82 -29 82 -63q0 -33 -59 -33q-20 0 -86 6t-103 6q-76 0 -164 -6t-110.5 -6t-44 9t-21.5 26q0 14 15.5 23t49 20.5t46.5 17.5q80 37 59 109l-59 194q-8 25 -33 25h-342q-25 0 -33 -23l-78 -223q-23 -68 45 -86q76 -20 76 -57q0 -35 -71 -35 q-20 0 -85 6t-83 6q-29 0 -73 -6t-56 -6q-68 0 -68 35zM389 1343q0 12 15 25l200 170q51 45 84 45t84 -45l201 -170q12 -10 12 -25q0 -23 -28 -22q-18 0 -111.5 38.5t-136.5 63.5q-20 12 -41 0q-41 -25 -135.5 -62.5t-112.5 -37.5q-31 0 -31 20zM478 523q3 -9 28 -9h250 q31 0 35 12.5t-13 61.5l-125 383q-8 29 -22 -6l-144 -408q-12 -25 -9 -34z" />
<glyph unicode="&#xc3;" horiz-adv-x="1329" d="M41 31q0 14 16.5 23t50 20.5t46.5 17.5q10 4 18 8t14.5 8.5t12.5 9.5t9 7t7 10t6 10t7 13.5t6.5 15.5t7.5 19.5t8 23.5l313 866q8 23 16.5 45.5t12.5 34t8 20.5t9 13t12 4q23 2 53.5 32t34.5 30q10 0 18 -7.5t15.5 -22.5t12.5 -29.5t14 -43.5t15 -45l271 -764 q49 -135 79.5 -183t102.5 -75q82 -29 82 -63q0 -33 -59 -33q-20 0 -86 6t-103 6q-76 0 -164 -6t-110.5 -6t-44 9t-21.5 26q0 14 15.5 23t49 20.5t46.5 17.5q80 37 59 109l-59 194q-8 25 -33 25h-342q-25 0 -33 -23l-78 -223q-23 -68 45 -86q76 -20 76 -57q0 -35 -71 -35 q-20 0 -85 6t-83 6q-29 0 -73 -6t-56 -6q-68 0 -68 35zM407 1374q0 35 66.5 87t105.5 52q27 0 122 -4t122 -4q41 0 81 40t46 40q35 0 35 -35q0 -33 -67.5 -101.5t-106.5 -68.5q-25 0 -127.5 5t-126.5 5q-23 0 -66 -25.5t-51 -25.5q-12 0 -22.5 10.5t-10.5 24.5zM478 523 q3 -9 28 -9h250q31 0 35 12.5t-13 61.5l-125 383q-8 29 -22 -6l-144 -408q-12 -25 -9 -34z" />
<glyph unicode="&#xc4;" horiz-adv-x="1329" d="M41 31q0 14 16.5 23t50 20.5t46.5 17.5q10 4 18 8t14.5 8.5t12.5 9.5t9 7t7 10t6 10t7 13.5t6.5 15.5t7.5 19.5t8 23.5l313 866q8 23 16.5 45.5t12.5 34t8 20.5t9 13t12 4q23 2 53.5 32t34.5 30q10 0 18 -7.5t15.5 -22.5t12.5 -29.5t14 -43.5t15 -45l271 -764 q49 -135 79.5 -183t102.5 -75q82 -29 82 -63q0 -33 -59 -33q-20 0 -86 6t-103 6q-76 0 -164 -6t-110.5 -6t-44 9t-21.5 26q0 14 15.5 23t49 20.5t46.5 17.5q80 37 59 109l-59 194q-8 25 -33 25h-342q-25 0 -33 -23l-78 -223q-23 -68 45 -86q76 -20 76 -57q0 -35 -71 -35 q-20 0 -85 6t-83 6q-29 0 -73 -6t-56 -6q-68 0 -68 35zM391 1446q0 43 34 76.5t77 33.5t76.5 -33.5t33.5 -76.5t-33.5 -77t-76.5 -34t-77 34t-34 77zM478 523q3 -9 28 -9h250q31 0 35 12.5t-13 61.5l-125 383q-8 29 -22 -6l-144 -408q-12 -25 -9 -34zM774 1446q0 43 34 76.5 t77 33.5t76.5 -33.5t33.5 -76.5t-33.5 -77t-76.5 -34t-77 34t-34 77z" />
<glyph unicode="&#xc5;" horiz-adv-x="1329" d="M41 31q0 14 16.5 23t50 20.5t46.5 17.5q10 4 18 8t14.5 8.5t12.5 9.5t9 7t7 10t6 10t7 13.5t6.5 15.5t7.5 19.5t8 23.5l313 866q8 23 16.5 45.5t12.5 34t8 20.5t9 13t12 4q23 2 53.5 32t34.5 30q10 0 18 -7.5t15.5 -22.5t12.5 -29.5t14 -43.5t15 -45l271 -764 q49 -135 79.5 -183t102.5 -75q82 -29 82 -63q0 -33 -59 -33q-20 0 -86 6t-103 6q-76 0 -164 -6t-110.5 -6t-44 9t-21.5 26q0 14 15.5 23t49 20.5t46.5 17.5q80 37 59 109l-59 194q-8 25 -33 25h-342q-25 0 -33 -23l-78 -223q-23 -68 45 -86q76 -20 76 -57q0 -35 -71 -35 q-20 0 -85 6t-83 6q-29 0 -73 -6t-56 -6q-68 0 -68 35zM478 523q3 -9 28 -9h250q31 0 35 12.5t-13 61.5l-125 383q-8 29 -22 -6l-144 -408q-12 -25 -9 -34zM502 1442q0 68 56 111t130 43q68 0 119 -38t51 -100q0 -70 -55 -113.5t-131 -43.5q-70 0 -120 38.5t-50 102.5z M596 1448q0 -43 25.5 -68.5t68.5 -25.5q74 0 74 94q0 41 -24.5 66.5t-65.5 25.5q-78 0 -78 -92z" />
<glyph unicode="&#xc6;" horiz-adv-x="1816" d="M41 31q0 14 16.5 23t50 20.5t46.5 17.5q47 23 66.5 43.5t55.5 81.5l486 813q33 53 2 76t-123 33q-49 6 -49 38.5t72 32.5h696q49 0 140 5.5t104 5.5q47 0 53 -29q18 -74 18 -168q0 -53 -33 -53q-39 0 -73 78q-33 68 -166 67h-213q-39 0 -51.5 -10t-12.5 -33v-385 q0 -63 48 -63h145q31 0 54.5 8t34.5 17t36 32q6 6 19.5 21.5t23.5 22.5t20 7q23 0 23 -41q0 -6 -4 -54t-4 -64.5t1 -61.5t1 -55q0 -53 -27 -54q-8 0 -16 6.5t-15.5 16.5t-12.5 18.5t-12 21.5t-9 15q-27 43 -72 43h-184q-29 0 -39.5 -10t-10.5 -39v-188q0 -86 36 -140.5 t106 -54.5h192q57 0 94 9.5t66 41t42 55t42 85.5q18 39 55 39q29 0 29 -52q0 -39 -31 -124t-47 -111q-10 -18 -14 -24.5t-14.5 -10.5t-26.5 -4q-20 0 -263 5t-370 5q-43 0 -97.5 -2t-92 -5t-41.5 -3q-68 6 -68 35q0 14 16.5 23t50 20.5t46.5 17.5q96 43 96 170v213 q0 49 -25 49h-289q-33 0 -55 -43l-180 -307q-12 -20 -18.5 -33.5t1 -29t35.5 -23.5q76 -20 76 -57q0 -35 -71 -35q-20 0 -85 6t-83 6q-29 0 -73 -6t-56 -6q-68 0 -68 35zM660 633q4 -8 30 -8h217q25 0 25 47v348q0 57 -21 53q-10 -4 -20 -22l-223 -387q-12 -23 -8 -31z" />
<glyph unicode="&#xc7;" horiz-adv-x="1386" d="M94 563q0 297 216.5 489.5t525.5 192.5q94 0 239.5 -41t147.5 -41q61 -6 61 -225q0 -57 -37 -57q-43 0 -82 129q-20 63 -136 103t-234 40q-199 0 -335 -146.5t-136 -357.5q0 -242 158.5 -417t398.5 -175q59 0 104 13.5t83 49.5t58.5 61.5t59.5 86t57 86.5q10 16 37 17 q33 0 33 -58q0 -23 -82 -194q-25 -53 -41 -69.5t-53 -31.5q-145 -51 -340 -51q-176 0 -335 72t-263.5 211t-104.5 313zM620 -498q0 70 33 70q4 0 16.5 -7t40 -13.5t72.5 -6.5q33 0 59.5 19.5t26.5 60.5q0 43 -23.5 77t-72.5 34q-12 0 -28.5 -3t-24.5 -3q-25 0 -39.5 12 t-14.5 22q0 14 13 31l163 221h64l-84 -127q-14 -18 20 -32q53 -23 94.5 -70t41.5 -113q0 -96 -92.5 -166.5t-172.5 -70.5q-92 0 -92 65z" />
<glyph unicode="&#xc8;" horiz-adv-x="1165" d="M41 31q0 14 16.5 23t50 20.5t46.5 17.5q96 43 96 172v723q0 18 -1 33.5t-7 29t-9.5 21.5t-15.5 16.5t-16 12.5t-23.5 11t-27 9t-33 9.5t-35.5 9.5q-33 10 -33 35q0 37 72 36h588q49 0 140 5.5t103 5.5q47 0 54 -29q18 -74 18 -168q0 -53 -33 -53q-39 0 -73 78 q-33 68 -166 67h-244q-39 0 -51.5 -10t-12.5 -33v-344q0 -63 48 -63h176q31 0 54 8t34.5 17t36.5 32q6 6 19 21.5t23.5 22.5t20.5 7q23 0 23 -41q0 -6 -4.5 -54t-4.5 -64.5t1 -61.5t1 -55q0 -53 -26 -54q-8 0 -16.5 6.5t-15.5 16.5t-12 18.5t-12.5 21.5t-9.5 15 q-27 43 -71 43h-215q-29 0 -39.5 -10t-10.5 -39v-229q0 -86 36 -140.5t106 -54.5h223q57 0 94 9.5t65.5 41t42 55t42.5 85.5q18 39 55 39q29 0 29 -52q0 -39 -31 -124t-47 -111q-10 -18 -14.5 -24.5t-14.5 -10.5t-26 -4q-20 0 -278.5 5t-385.5 5q-43 0 -97.5 -2t-92 -5 t-41.5 -3q-68 6 -68 35zM370 1597q0 18 50.5 32.5t80.5 14.5q37 0 56 -26q25 -35 49 -76t52 -90t44 -78q10 -16 10 -31q0 -12 -12 -12t-37 18q-174 131 -266 209q-27 25 -27 39z" />
<glyph unicode="&#xc9;" horiz-adv-x="1165" d="M41 31q0 14 16.5 23t50 20.5t46.5 17.5q96 43 96 172v723q0 18 -1 33.5t-7 29t-9.5 21.5t-15.5 16.5t-16 12.5t-23.5 11t-27 9t-33 9.5t-35.5 9.5q-33 10 -33 35q0 37 72 36h588q49 0 140 5.5t103 5.5q47 0 54 -29q18 -74 18 -168q0 -53 -33 -53q-39 0 -73 78 q-33 68 -166 67h-244q-39 0 -51.5 -10t-12.5 -33v-344q0 -63 48 -63h176q31 0 54 8t34.5 17t36.5 32q6 6 19 21.5t23.5 22.5t20.5 7q23 0 23 -41q0 -6 -4.5 -54t-4.5 -64.5t1 -61.5t1 -55q0 -53 -26 -54q-8 0 -16.5 6.5t-15.5 16.5t-12 18.5t-12.5 21.5t-9.5 15 q-27 43 -71 43h-215q-29 0 -39.5 -10t-10.5 -39v-229q0 -86 36 -140.5t106 -54.5h223q57 0 94 9.5t65.5 41t42 55t42.5 85.5q18 39 55 39q29 0 29 -52q0 -39 -31 -124t-47 -111q-10 -18 -14.5 -24.5t-14.5 -10.5t-26 -4q-20 0 -278.5 5t-385.5 5q-43 0 -97.5 -2t-92 -5 t-41.5 -3q-68 6 -68 35zM540 1343q0 14 11 31q4 8 58 102t87 142q18 27 55 26q31 0 81 -14t50 -33q0 -14 -26 -39q-92 -78 -267 -209q-24 -18 -36.5 -18t-12.5 12z" />
<glyph unicode="&#xca;" horiz-adv-x="1165" d="M41 31q0 14 16.5 23t50 20.5t46.5 17.5q96 43 96 172v723q0 18 -1 33.5t-7 29t-9.5 21.5t-15.5 16.5t-16 12.5t-23.5 11t-27 9t-33 9.5t-35.5 9.5q-33 10 -33 35q0 37 72 36h588q49 0 140 5.5t103 5.5q47 0 54 -29q18 -74 18 -168q0 -53 -33 -53q-39 0 -73 78 q-33 68 -166 67h-244q-39 0 -51.5 -10t-12.5 -33v-344q0 -63 48 -63h176q31 0 54 8t34.5 17t36.5 32q6 6 19 21.5t23.5 22.5t20.5 7q23 0 23 -41q0 -6 -4.5 -54t-4.5 -64.5t1 -61.5t1 -55q0 -53 -26 -54q-8 0 -16.5 6.5t-15.5 16.5t-12 18.5t-12.5 21.5t-9.5 15 q-27 43 -71 43h-215q-29 0 -39.5 -10t-10.5 -39v-229q0 -86 36 -140.5t106 -54.5h223q57 0 94 9.5t65.5 41t42 55t42.5 85.5q18 39 55 39q29 0 29 -52q0 -39 -31 -124t-47 -111q-10 -18 -14.5 -24.5t-14.5 -10.5t-26 -4q-20 0 -278.5 5t-385.5 5q-43 0 -97.5 -2t-92 -5 t-41.5 -3q-68 6 -68 35zM327 1343q0 12 15 25l200 170q51 45 84 45t84 -45l201 -170q12 -10 12 -25q0 -23 -28 -22q-18 0 -111.5 38.5t-136.5 63.5q-20 12 -41 0q-41 -25 -135.5 -62.5t-112.5 -37.5q-31 0 -31 20z" />
<glyph unicode="&#xcb;" horiz-adv-x="1165" d="M41 31q0 14 16.5 23t50 20.5t46.5 17.5q96 43 96 172v723q0 18 -1 33.5t-7 29t-9.5 21.5t-15.5 16.5t-16 12.5t-23.5 11t-27 9t-33 9.5t-35.5 9.5q-33 10 -33 35q0 37 72 36h588q49 0 140 5.5t103 5.5q47 0 54 -29q18 -74 18 -168q0 -53 -33 -53q-39 0 -73 78 q-33 68 -166 67h-244q-39 0 -51.5 -10t-12.5 -33v-344q0 -63 48 -63h176q31 0 54 8t34.5 17t36.5 32q6 6 19 21.5t23.5 22.5t20.5 7q23 0 23 -41q0 -6 -4.5 -54t-4.5 -64.5t1 -61.5t1 -55q0 -53 -26 -54q-8 0 -16.5 6.5t-15.5 16.5t-12 18.5t-12.5 21.5t-9.5 15 q-27 43 -71 43h-215q-29 0 -39.5 -10t-10.5 -39v-229q0 -86 36 -140.5t106 -54.5h223q57 0 94 9.5t65.5 41t42 55t42.5 85.5q18 39 55 39q29 0 29 -52q0 -39 -31 -124t-47 -111q-10 -18 -14.5 -24.5t-14.5 -10.5t-26 -4q-20 0 -278.5 5t-385.5 5q-43 0 -97.5 -2t-92 -5 t-41.5 -3q-68 6 -68 35zM329 1446q0 43 34 76.5t77 33.5t76.5 -33.5t33.5 -76.5t-33.5 -77t-76.5 -34t-77 34t-34 77zM712 1446q0 43 34 76.5t77 33.5t76.5 -33.5t33.5 -76.5t-33.5 -77t-76.5 -34t-77 34t-34 77z" />
<glyph unicode="&#xcc;" horiz-adv-x="694" d="M41 31q0 14 16.5 23t50 20.5t46.5 17.5q96 43 96 172v723q0 18 -1 33.5t-7 29t-9.5 21.5t-15.5 16.5t-16 12.5t-23.5 11t-27 9t-33 9.5t-35.5 9.5q-33 10 -33 35q0 16 22.5 26t49.5 10q41 0 115.5 -5t111.5 -5t113.5 5t111.5 5q27 0 49.5 -10t22.5 -26q0 -25 -31 -35 q-10 -2 -35.5 -9.5t-32.5 -9.5t-26.5 -9t-25 -11t-17.5 -12.5t-15 -16.5t-9.5 -21.5t-7.5 -28.5t-1 -34v-723q0 -129 97 -172q12 -6 46 -17.5t50 -20.5t16 -23q0 -29 -65 -35q-4 0 -46 3t-100.5 6t-101.5 3t-97.5 -3t-92 -6t-41.5 -3q-68 6 -68 35zM92 1597q0 18 50.5 32.5 t80.5 14.5q37 0 56 -26q25 -35 49 -76t52 -90t44 -78q10 -16 10 -31q0 -12 -12 -12t-37 18q-174 131 -266 209q-27 25 -27 39z" />
<glyph unicode="&#xcd;" horiz-adv-x="694" d="M41 31q0 14 16.5 23t50 20.5t46.5 17.5q96 43 96 172v723q0 18 -1 33.5t-7 29t-9.5 21.5t-15.5 16.5t-16 12.5t-23.5 11t-27 9t-33 9.5t-35.5 9.5q-33 10 -33 35q0 16 22.5 26t49.5 10q41 0 115.5 -5t111.5 -5t113.5 5t111.5 5q27 0 49.5 -10t22.5 -26q0 -25 -31 -35 q-10 -2 -35.5 -9.5t-32.5 -9.5t-26.5 -9t-25 -11t-17.5 -12.5t-15 -16.5t-9.5 -21.5t-7.5 -28.5t-1 -34v-723q0 -129 97 -172q12 -6 46 -17.5t50 -20.5t16 -23q0 -29 -65 -35q-4 0 -46 3t-100.5 6t-101.5 3t-97.5 -3t-92 -6t-41.5 -3q-68 6 -68 35zM262 1343q0 14 11 31 q4 8 58 102t87 142q18 27 55 26q31 0 81 -14t50 -33q0 -14 -26 -39q-92 -78 -267 -209q-24 -18 -36.5 -18t-12.5 12z" />
<glyph unicode="&#xce;" horiz-adv-x="694" d="M41 31q0 14 16.5 23t50 20.5t46.5 17.5q96 43 96 172v723q0 18 -1 33.5t-7 29t-9.5 21.5t-15.5 16.5t-16 12.5t-23.5 11t-27 9t-33 9.5t-35.5 9.5q-33 10 -33 35q0 16 22.5 26t49.5 10q41 0 115.5 -5t111.5 -5t113.5 5t111.5 5q27 0 49.5 -10t22.5 -26q0 -25 -31 -35 q-10 -2 -35.5 -9.5t-32.5 -9.5t-26.5 -9t-25 -11t-17.5 -12.5t-15 -16.5t-9.5 -21.5t-7.5 -28.5t-1 -34v-723q0 -129 97 -172q12 -6 46 -17.5t50 -20.5t16 -23q0 -29 -65 -35q-4 0 -46 3t-100.5 6t-101.5 3t-97.5 -3t-92 -6t-41.5 -3q-68 6 -68 35zM49 1343q0 12 15 25 l200 170q51 45 84 45t84 -45l201 -170q12 -10 12 -25q0 -23 -28 -22q-18 0 -111.5 38.5t-136.5 63.5q-20 12 -41 0q-41 -25 -135.5 -62.5t-112.5 -37.5q-31 0 -31 20z" />
<glyph unicode="&#xcf;" horiz-adv-x="694" d="M41 31q0 14 16.5 23t50 20.5t46.5 17.5q96 43 96 172v723q0 18 -1 33.5t-7 29t-9.5 21.5t-15.5 16.5t-16 12.5t-23.5 11t-27 9t-33 9.5t-35.5 9.5q-33 10 -33 35q0 16 22.5 26t49.5 10q41 0 115.5 -5t111.5 -5t113.5 5t111.5 5q27 0 49.5 -10t22.5 -26q0 -25 -31 -35 q-10 -2 -35.5 -9.5t-32.5 -9.5t-26.5 -9t-25 -11t-17.5 -12.5t-15 -16.5t-9.5 -21.5t-7.5 -28.5t-1 -34v-723q0 -129 97 -172q12 -6 46 -17.5t50 -20.5t16 -23q0 -29 -65 -35q-4 0 -46 3t-100.5 6t-101.5 3t-97.5 -3t-92 -6t-41.5 -3q-68 6 -68 35zM51 1446q0 43 34 76.5 t77 33.5t76.5 -33.5t33.5 -76.5t-33.5 -77t-76.5 -34t-77 34t-34 77zM434 1446q0 43 34 76.5t77 33.5t76.5 -33.5t33.5 -76.5t-33.5 -77t-76.5 -34t-77 34t-34 77z" />
<glyph unicode="&#xd0;" horiz-adv-x="1386" d="M70 -2q0 49 82 80q88 76 88 184v47q0 41 14 217q-10 92 -10 109q2 31 4 60.5t3 44t1 16.5q0 315 -41 315q-8 23 -113 49q-20 8 -28 25v8q0 37 118 37q0 6 23 6q18 -2 34.5 -4t25 -3t10.5 -1q151 24 241 24h158q72 -4 240 -49q61 -2 184 -80q0 -2 115 -110q12 -20 65 -99 q61 -141 62 -217v-14q-12 -221 -35 -221q-25 -92 -76 -170q-12 -43 -152 -131q-23 -31 -133 -68q-29 -31 -162 -49q-57 -4 -69 -4h-21q-354 14 -366 14l-221 -51h-13q-29 2 -28 31v4zM434 762q2 -147 2 -322q0 -240 105 -311q86 -63 217 -63q88 0 196 81q92 106 107 197 q47 76 47 180q4 4 4 78q0 2 -51 178q-16 86 -72 133q-92 109 -160 138q-117 74 -204 73q-39 0 -52 2q-127 1 -127 -65v-39q-12 -225 -12 -260z" />
<glyph unicode="&#xd1;" horiz-adv-x="1402" d="M27 31q0 14 16 23t50 20.5t46 17.5q96 43 97 172v535q0 143 -29 178l-76 84q-12 14 -29.5 32.5t-26.5 29t-19.5 21.5t-14.5 19t-4 15q0 23 31 22h198q41 0 109 -74l543 -608q156 -174 178 -174q12 0 15 24.5t3 118.5v500q0 23 -3 40t-6 29.5t-14.5 23t-15.5 15.5 t-24.5 13t-27.5 10t-37 10.5t-40 10.5q-33 10 -33 35q0 16 22.5 26t49.5 10q41 0 95.5 -5t91 -5t93 5t91.5 5q27 0 49 -10t22 -26q0 -25 -30 -35q-12 -4 -36 -10.5t-33 -8.5t-26.5 -8t-23.5 -11t-17.5 -12.5t-15.5 -16.5t-9 -21.5t-7 -27.5t-2 -36v-817q0 -53 3 -99t3 -69 q0 -25 -41 -25q-20 0 -70.5 33t-103.5 90l-602 670q-43 49 -60 49q-14 0 -14 -139v-416q0 -129 96 -172q12 -6 46 -17.5t50.5 -20.5t16.5 -23q0 -29 -66 -35q-4 0 -34.5 3t-77.5 6t-90 3t-86 -3t-71 -6t-32 -3q-68 6 -67 35zM428 1374q0 35 66.5 87t105.5 52q27 0 122 -4 t122 -4q41 0 81 40t46 40q35 0 35 -35q0 -33 -67.5 -101.5t-106.5 -68.5q-25 0 -127.5 5t-126.5 5q-23 0 -66 -25.5t-51 -25.5q-12 0 -22.5 10.5t-10.5 24.5z" />
<glyph unicode="&#xd2;" horiz-adv-x="1372" d="M70 604q0 287 193.5 454t502.5 167q209 0 384 -183.5t175 -406.5q0 -268 -175 -464t-433 -196q-279 0 -463 176.5t-184 452.5zM299 676q0 -231 123 -418.5t323 -187.5q170 0 260.5 150.5t90.5 352.5q0 217 -109.5 387t-298.5 170q-164 0 -276.5 -139t-112.5 -315z M452 1597q0 18 50.5 32.5t80.5 14.5q37 0 56 -26q25 -35 49 -76t52 -90t44 -78q10 -16 10 -31q0 -12 -12 -12t-37 18q-174 131 -266 209q-27 25 -27 39z" />
<glyph unicode="&#xd3;" horiz-adv-x="1372" d="M70 604q0 287 193.5 454t502.5 167q209 0 384 -183.5t175 -406.5q0 -268 -175 -464t-433 -196q-279 0 -463 176.5t-184 452.5zM299 676q0 -231 123 -418.5t323 -187.5q170 0 260.5 150.5t90.5 352.5q0 217 -109.5 387t-298.5 170q-164 0 -276.5 -139t-112.5 -315z M622 1343q0 14 11 31q4 8 58 102t87 142q18 27 55 26q31 0 81 -14t50 -33q0 -14 -26 -39q-92 -78 -267 -209q-24 -18 -36.5 -18t-12.5 12z" />
<glyph unicode="&#xd4;" horiz-adv-x="1372" d="M70 604q0 287 193.5 454t502.5 167q209 0 384 -183.5t175 -406.5q0 -268 -175 -464t-433 -196q-279 0 -463 176.5t-184 452.5zM299 676q0 -231 123 -418.5t323 -187.5q170 0 260.5 150.5t90.5 352.5q0 217 -109.5 387t-298.5 170q-164 0 -276.5 -139t-112.5 -315z M409 1343q0 12 15 25l200 170q51 45 84 45t84 -45l201 -170q12 -10 12 -25q0 -23 -28 -22q-18 0 -111.5 38.5t-136.5 63.5q-20 12 -41 0q-41 -25 -135.5 -62.5t-112.5 -37.5q-31 0 -31 20z" />
<glyph unicode="&#xd5;" horiz-adv-x="1372" d="M70 604q0 287 193.5 454t502.5 167q209 0 384 -183.5t175 -406.5q0 -268 -175 -464t-433 -196q-279 0 -463 176.5t-184 452.5zM299 676q0 -231 123 -418.5t323 -187.5q170 0 260.5 150.5t90.5 352.5q0 217 -109.5 387t-298.5 170q-164 0 -276.5 -139t-112.5 -315z M428 1374q0 35 66.5 87t105.5 52q27 0 122 -4t122 -4q41 0 81 40t46 40q35 0 35 -35q0 -33 -67.5 -101.5t-106.5 -68.5q-25 0 -127.5 5t-126.5 5q-23 0 -66 -25.5t-51 -25.5q-12 0 -22.5 10.5t-10.5 24.5z" />
<glyph unicode="&#xd6;" horiz-adv-x="1372" d="M70 604q0 287 193.5 454t502.5 167q209 0 384 -183.5t175 -406.5q0 -268 -175 -464t-433 -196q-279 0 -463 176.5t-184 452.5zM299 676q0 -231 123 -418.5t323 -187.5q170 0 260.5 150.5t90.5 352.5q0 217 -109.5 387t-298.5 170q-164 0 -276.5 -139t-112.5 -315z M411 1446q0 43 34 76.5t77 33.5t76.5 -33.5t33.5 -76.5t-33.5 -77t-76.5 -34t-77 34t-34 77zM794 1446q0 43 34 76.5t77 33.5t76.5 -33.5t33.5 -76.5t-33.5 -77t-76.5 -34t-77 34t-34 77z" />
<glyph unicode="&#xd7;" horiz-adv-x="770" d="M92 659q0 25 17.5 41.5t42.5 16.5q31 0 63 -33l168 -168l166 166q33 33 67 33q53 0 54 -64q0 -37 -29 -65l-164 -164l170 -170q31 -31 31 -62q0 -23 -22.5 -44t-43.5 -21q-27 0 -57 31l-170 170l-154 -152q-49 -49 -84 -49q-23 0 -37 16.5t-14 40.5q0 45 41 86l152 154 l-152 151q-45 45 -45 86z" />
<glyph unicode="&#xd8;" horiz-adv-x="1372" d="M70 2q0 43 39 80l108 108q-147 166 -147 414q0 287 193.5 454t502.5 167q186 0 352 -152l74 74q78 78 111 78q16 0 19 -6.5t3 -24.5q0 -29 -27 -55l-124 -123q152 -176 151 -381q0 -268 -175 -464t-433 -196q-262 0 -443 158l-96 -96q-61 -61 -82 -62q-27 0 -26 27z M299 676q0 -180 74 -334l620 608q-119 180 -305 180q-164 0 -276.5 -139t-112.5 -315zM414 268q129 -199 331 -198q170 0 260.5 150.5t90.5 352.5q0 160 -64 304z" />
<glyph unicode="&#xd9;" horiz-adv-x="1263" d="M0 1174q0 16 22.5 26t49.5 10q41 0 83 -5t78.5 -5t117.5 5t116 5q27 0 49.5 -10t22.5 -26q0 -25 -31 -35q-70 -23 -103.5 -55.5t-33.5 -92.5v-409q0 -260 64.5 -376t244.5 -116q199 0 274.5 135t75.5 398v381q0 53 -12 77.5t-25.5 30.5t-70.5 25q-35 12 -35 37 q0 16 22.5 26t48.5 10q16 0 67.5 -5t66 -5t65.5 5t66 5q27 0 49 -10t22 -26q0 -23 -34 -35q-72 -23 -92.5 -47.5t-20.5 -83.5v-496q0 -238 -141.5 -381t-368.5 -143q-258 0 -359.5 139t-101.5 397v463q0 72 -22.5 95.5t-120.5 56.5q-33 10 -33 35zM444 1597q0 18 50.5 32.5 t80.5 14.5q37 0 56 -26q25 -35 49 -76t52 -90t44 -78q10 -16 10 -31q0 -12 -12 -12t-37 18q-174 131 -266 209q-27 25 -27 39z" />
<glyph unicode="&#xda;" horiz-adv-x="1263" d="M0 1174q0 16 22.5 26t49.5 10q41 0 83 -5t78.5 -5t117.5 5t116 5q27 0 49.5 -10t22.5 -26q0 -25 -31 -35q-70 -23 -103.5 -55.5t-33.5 -92.5v-409q0 -260 64.5 -376t244.5 -116q199 0 274.5 135t75.5 398v381q0 53 -12 77.5t-25.5 30.5t-70.5 25q-35 12 -35 37 q0 16 22.5 26t48.5 10q16 0 67.5 -5t66 -5t65.5 5t66 5q27 0 49 -10t22 -26q0 -23 -34 -35q-72 -23 -92.5 -47.5t-20.5 -83.5v-496q0 -238 -141.5 -381t-368.5 -143q-258 0 -359.5 139t-101.5 397v463q0 72 -22.5 95.5t-120.5 56.5q-33 10 -33 35zM614 1343q0 14 11 31 q4 8 58 102t87 142q18 27 55 26q31 0 81 -14t50 -33q0 -14 -26 -39q-92 -78 -267 -209q-24 -18 -36.5 -18t-12.5 12z" />
<glyph unicode="&#xdb;" horiz-adv-x="1263" d="M0 1174q0 16 22.5 26t49.5 10q41 0 83 -5t78.5 -5t117.5 5t116 5q27 0 49.5 -10t22.5 -26q0 -25 -31 -35q-70 -23 -103.5 -55.5t-33.5 -92.5v-409q0 -260 64.5 -376t244.5 -116q199 0 274.5 135t75.5 398v381q0 53 -12 77.5t-25.5 30.5t-70.5 25q-35 12 -35 37 q0 16 22.5 26t48.5 10q16 0 67.5 -5t66 -5t65.5 5t66 5q27 0 49 -10t22 -26q0 -23 -34 -35q-72 -23 -92.5 -47.5t-20.5 -83.5v-496q0 -238 -141.5 -381t-368.5 -143q-258 0 -359.5 139t-101.5 397v463q0 72 -22.5 95.5t-120.5 56.5q-33 10 -33 35zM401 1343q0 12 15 25 l200 170q51 45 84 45t84 -45l201 -170q12 -10 12 -25q0 -23 -28 -22q-18 0 -111.5 38.5t-136.5 63.5q-20 12 -41 0q-41 -25 -135.5 -62.5t-112.5 -37.5q-31 0 -31 20z" />
<glyph unicode="&#xdc;" horiz-adv-x="1263" d="M0 1174q0 16 22.5 26t49.5 10q41 0 83 -5t78.5 -5t117.5 5t116 5q27 0 49.5 -10t22.5 -26q0 -25 -31 -35q-70 -23 -103.5 -55.5t-33.5 -92.5v-409q0 -260 64.5 -376t244.5 -116q199 0 274.5 135t75.5 398v381q0 53 -12 77.5t-25.5 30.5t-70.5 25q-35 12 -35 37 q0 16 22.5 26t48.5 10q16 0 67.5 -5t66 -5t65.5 5t66 5q27 0 49 -10t22 -26q0 -23 -34 -35q-72 -23 -92.5 -47.5t-20.5 -83.5v-496q0 -238 -141.5 -381t-368.5 -143q-258 0 -359.5 139t-101.5 397v463q0 72 -22.5 95.5t-120.5 56.5q-33 10 -33 35zM403 1446q0 43 34 76.5 t77 33.5t76.5 -33.5t33.5 -76.5t-33.5 -77t-76.5 -34t-77 34t-34 77zM786 1446q0 43 34 76.5t77 33.5t76.5 -33.5t33.5 -76.5t-33.5 -77t-76.5 -34t-77 34t-34 77z" />
<glyph unicode="&#xdd;" horiz-adv-x="882" d="M0 1174q0 16 22.5 26t49.5 10q41 0 83 -5t78.5 -5t99 5t97.5 5q27 0 49.5 -10t22.5 -26q0 -25 -31 -35q-61 -20 -61 -49q0 -8 24.5 -61.5t48.5 -102.5l27 -47q41 -84 63 -84q4 0 8.5 2t9.5 7t9 11t11 18.5t12.5 23.5t16.5 29.5t19 35.5l76 133q10 18 -10 44.5t-49 37.5 q-35 12 -35 37q0 16 22.5 26t49.5 10q16 0 73.5 -5t74 -5t65.5 5t65 5q27 0 49.5 -10t22.5 -26q0 -23 -35 -35q-10 -4 -32.5 -11.5t-30 -9.5t-22.5 -8t-21.5 -10t-18.5 -12.5t-19 -17.5t-18.5 -21.5t-24 -30t-25.5 -36.5t-32 -48l-116 -180q-12 -18 -20.5 -37t-11.5 -36 t-4 -26.5t0 -26t1 -18.5v-344q0 -131 96 -174q12 -6 46 -17.5t50.5 -20.5t16.5 -23q0 -29 -66 -35q-4 0 -46 3t-100.5 6t-101.5 3t-97 -3t-92 -6t-42 -3q-68 6 -68 35q0 14 16.5 23t50.5 20.5t46 17.5q96 43 96 174v150q0 37 -2 67.5t-5 50t-10 44t-10 32.5t-13.5 34 t-12.5 32l-92 237q-63 162 -260 226q-33 10 -33 35zM450 1343q0 14 11 31q4 8 58 102t87 142q18 27 55 26q31 0 81 -14t50 -33q0 -14 -26 -39q-92 -78 -267 -209q-24 -18 -36.5 -18t-12.5 12z" />
<glyph unicode="&#xde;" horiz-adv-x="1095" d="M41 31q0 14 16.5 23t50 20.5t46.5 17.5q96 43 96 172v723q0 18 -1 33.5t-7 29t-9.5 21.5t-15.5 16.5t-16 12.5t-23.5 11t-27 9t-33 9.5t-35.5 9.5q-33 10 -33 35q0 16 22.5 26t49.5 10q41 0 115.5 -5t111.5 -5t114 5t111 5q27 0 49.5 -10t22.5 -26q0 -25 -31 -35 q-94 -27 -132 -57.5t-38 -94.5q0 -16 3.5 -24.5t8.5 -7.5t11 1q72 10 100 11q174 0 305.5 -77t131.5 -220q0 -211 -250 -346q-76 -41 -131 -41q-37 0 -37 34q0 8 8 15.5t32.5 24t47.5 34.5q125 106 125 248q0 100 -77 169t-181 69q-43 0 -73 -20.5t-30 -49.5v-543 q0 -129 97 -172q12 -6 45.5 -17.5t50 -20.5t16.5 -23q0 -29 -65 -35q-4 0 -46 3t-100.5 6t-101.5 3q-39 0 -91.5 -3t-91 -6t-42.5 -3q-68 6 -68 35z" />
<glyph unicode="&#xdf;" horiz-adv-x="1130" d="M31 37q0 27 90 53q39 12 58.5 50t19.5 81l2 520h-99q-55 6 -55 27q0 23 41 58.5t84 50.5q27 10 27 43q0 49 34.5 128.5t94 162.5t157 142.5t206 59.5t204.5 -57.5t96 -147.5q0 -80 -69 -164l-152 -182q-49 -57 -49 -92q0 -41 53 -90l215 -188q55 -47 76.5 -86t21.5 -97 q0 -143 -87 -234t-222 -91q-94 0 -135 16q-20 8 -25.5 10t-13.5 10.5t-12 20.5q-35 90 -35 129q0 66 23 66q53 0 90 -82q37 -78 157 -78q43 0 84 44t41 85q0 57 -96 143l-131 115q-47 43 -73.5 69.5t-52.5 67.5t-26 76q0 61 28 108t89 113l88 111q51 63 51 155 q0 63 -68.5 101.5t-148.5 38.5q-72 0 -122 -41t-75.5 -110t-35.5 -137.5t-10 -144.5v-649q0 -117 47 -131q68 -20 67 -53q0 -41 -69 -41q-25 0 -70 6t-59 6q-20 0 -90 -6t-93 -6q-72 0 -71 41z" />
<glyph unicode="&#xe0;" d="M-16 31q0 41 112 75q72 25 97 82l268 623q18 43 26 49q14 12 34 31.5t33 32t27.5 25t24.5 18.5t17 6q12 0 29.5 -21.5t27.5 -58.5l209 -688q6 -23 37.5 -56t74.5 -51q61 -25 62 -67q0 -29 -66 -35q-4 0 -24.5 3t-58 6t-80.5 3t-80 -3t-57.5 -6t-24.5 -3q-68 6 -68 35 q0 23 16.5 36t57.5 27q14 6 30.5 28.5t12.5 41.5l-33 108q-10 51 -59 52h-199q-41 0 -57 -45l-31 -95q-25 -74 25 -88q88 -29 88 -65q0 -29 -66 -35q-4 0 -25.5 3t-60.5 6t-82 3t-82 -3t-61.5 -6t-26.5 -3q-68 6 -67 35zM358 1422q0 23 35 35t78 12q33 0 55 -37 q35 -59 94.5 -185t59.5 -147q0 -27 -19 -26q-20 0 -61 45q-63 68 -152.5 176t-89.5 127zM423 418q5 -4 30 -4h157q18 0 20.5 5t-3.5 19q-2 2 -3 4t-1 4l-68 224q-4 10 -10 14t-12.5 0t-10.5 -16l-98 -230q-6 -16 -1 -20z" />
<glyph unicode="&#xe1;" d="M-16 31q0 41 112 75q72 25 97 82l268 623q18 43 26 49q14 12 34 31.5t33 32t27.5 25t24.5 18.5t17 6q12 0 29.5 -21.5t27.5 -58.5l209 -688q6 -23 37.5 -56t74.5 -51q61 -25 62 -67q0 -29 -66 -35q-4 0 -24.5 3t-58 6t-80.5 3t-80 -3t-57.5 -6t-24.5 -3q-68 6 -68 35 q0 23 16.5 36t57.5 27q14 6 30.5 28.5t12.5 41.5l-33 108q-10 51 -59 52h-199q-41 0 -57 -45l-31 -95q-25 -74 25 -88q88 -29 88 -65q0 -29 -66 -35q-4 0 -25.5 3t-60.5 6t-82 3t-82 -3t-61.5 -6t-26.5 -3q-68 6 -67 35zM423 418q5 -4 30 -4h157q18 0 20.5 5t-3.5 19 q-2 2 -3 4t-1 4l-68 224q-4 10 -10 14t-12.5 0t-10.5 -16l-98 -230q-6 -16 -1 -20zM514 1100q0 20 60.5 145t94.5 187q23 37 56 37q43 0 76.5 -12.5t33.5 -34.5q0 -18 -89 -126.5t-152 -176.5q-41 -45 -62 -45q-18 0 -18 26z" />
<glyph unicode="&#xe2;" d="M-16 31q0 41 112 75q72 25 97 82l268 623q18 43 26 49q14 12 34 31.5t33 32t27.5 25t24.5 18.5t17 6q12 0 29.5 -21.5t27.5 -58.5l209 -688q6 -23 37.5 -56t74.5 -51q61 -25 62 -67q0 -29 -66 -35q-4 0 -24.5 3t-58 6t-80.5 3t-80 -3t-57.5 -6t-24.5 -3q-68 6 -68 35 q0 23 16.5 36t57.5 27q14 6 30.5 28.5t12.5 41.5l-33 108q-10 51 -59 52h-199q-41 0 -57 -45l-31 -95q-25 -74 25 -88q88 -29 88 -65q0 -29 -66 -35q-4 0 -25.5 3t-60.5 6t-82 3t-82 -3t-61.5 -6t-26.5 -3q-68 6 -67 35zM374 1100q0 20 69 148.5t112 199.5q20 37 40.5 37 t41.5 -37q45 -74 113.5 -200.5t68.5 -147.5q0 -27 -19 -26q-20 0 -61 45q-90 104 -125 151q-19 25 -37 0q-41 -57 -123 -151q-41 -45 -61 -45q-18 0 -19 26zM423 418q5 -4 30 -4h157q18 0 20.5 5t-3.5 19q-2 2 -3 4t-1 4l-68 224q-4 10 -10 14t-12.5 0t-10.5 -16l-98 -230 q-6 -16 -1 -20z" />
<glyph unicode="&#xe3;" d="M-16 31q0 41 112 75q72 25 97 82l268 623q18 43 26 49q14 12 34 31.5t33 32t27.5 25t24.5 18.5t17 6q12 0 29.5 -21.5t27.5 -58.5l209 -688q6 -23 37.5 -56t74.5 -51q61 -25 62 -67q0 -29 -66 -35q-4 0 -24.5 3t-58 6t-80.5 3t-80 -3t-57.5 -6t-24.5 -3q-68 6 -68 35 q0 23 16.5 36t57.5 27q14 6 30.5 28.5t12.5 41.5l-33 108q-10 51 -59 52h-199q-41 0 -57 -45l-31 -95q-25 -74 25 -88q88 -29 88 -65q0 -29 -66 -35q-4 0 -25.5 3t-60.5 6t-82 3t-82 -3t-61.5 -6t-26.5 -3q-68 6 -67 35zM309 1112q0 20 73 96t107 76q27 0 110 -2t110 -2 q43 0 88 45t47 45q33 0 33 -34q0 -20 -79 -113.5t-114 -93.5q-25 0 -114 1t-115 1q-31 0 -72 -30t-45 -30q-29 0 -29 41zM423 418q5 -4 30 -4h157q18 0 20.5 5t-3.5 19q-2 2 -3 4t-1 4l-68 224q-4 10 -10 14t-12.5 0t-10.5 -16l-98 -230q-6 -16 -1 -20z" />
<glyph unicode="&#xe4;" d="M-16 31q0 41 112 75q72 25 97 82l268 623q18 43 26 49q14 12 34 31.5t33 32t27.5 25t24.5 18.5t17 6q12 0 29.5 -21.5t27.5 -58.5l209 -688q6 -23 37.5 -56t74.5 -51q61 -25 62 -67q0 -29 -66 -35q-4 0 -24.5 3t-58 6t-80.5 3t-80 -3t-57.5 -6t-24.5 -3q-68 6 -68 35 q0 23 16.5 36t57.5 27q14 6 30.5 28.5t12.5 41.5l-33 108q-10 51 -59 52h-199q-41 0 -57 -45l-31 -95q-25 -74 25 -88q88 -29 88 -65q0 -29 -66 -35q-4 0 -25.5 3t-60.5 6t-82 3t-82 -3t-61.5 -6t-26.5 -3q-68 6 -67 35zM314 1241.5q0 45.5 31.5 77t76.5 31.5t77 -31.5 t32 -77t-32 -77t-77 -31.5t-76.5 31.5t-31.5 77zM423 418q5 -4 30 -4h157q18 0 20.5 5t-3.5 19q-2 2 -3 4t-1 4l-68 224q-4 10 -10 14t-12.5 0t-10.5 -16l-98 -230q-6 -16 -1 -20zM664 1241.5q0 45.5 31.5 77t76.5 31.5t77 -31.5t32 -77t-32 -77t-77 -31.5t-76.5 31.5 t-31.5 77z" />
<glyph unicode="&#xe5;" d="M-16 31q0 41 112 75q72 25 97 82l268 623q18 43 26 49q14 12 34 31.5t33 32t27.5 25t24.5 18.5t17 6q12 0 29.5 -21.5t27.5 -58.5l209 -688q6 -23 37.5 -56t74.5 -51q61 -25 62 -67q0 -29 -66 -35q-4 0 -24.5 3t-58 6t-80.5 3t-80 -3t-57.5 -6t-24.5 -3q-68 6 -68 35 q0 23 16.5 36t57.5 27q14 6 30.5 28.5t12.5 41.5l-33 108q-10 51 -59 52h-199q-41 0 -57 -45l-31 -95q-25 -74 25 -88q88 -29 88 -65q0 -29 -66 -35q-4 0 -25.5 3t-60.5 6t-82 3t-82 -3t-61.5 -6t-26.5 -3q-68 6 -67 35zM419 1315.5q0 67.5 55.5 119.5t123 52t116.5 -46 t49 -114q0 -78 -54 -130t-124 -52q-68 0 -117 51.5t-49 119zM423 418q5 -4 30 -4h157q18 0 20.5 5t-3.5 19q-2 2 -3 4t-1 4l-68 224q-4 10 -10 14t-12.5 0t-10.5 -16l-98 -230q-6 -16 -1 -20zM514 1325q0 -47 22.5 -82.5t63.5 -35.5q35 0 52 32.5t17 73.5q0 43 -25.5 76 t-64.5 33q-31 0 -48 -30t-17 -67z" />
<glyph unicode="&#xe6;" horiz-adv-x="1996" d="M-16 31q0 41 112 75q72 25 97 82l268 623q18 43 26 49q14 12 34 31.5t33 32t27.5 25t24.5 18.5t17 6q12 0 29.5 -21.5t27.5 -58.5l209 -688q6 -23 37.5 -56t74.5 -51q61 -25 62 -67q0 -29 -66 -35q-4 0 -24.5 3t-58 6t-80.5 3t-80 -3t-57.5 -6t-24.5 -3q-68 6 -68 35 q0 23 16.5 36t57.5 27q14 6 30.5 28.5t12.5 41.5l-33 108q-10 51 -59 52h-199q-41 0 -57 -45l-31 -95q-25 -74 25 -88q88 -29 88 -65q0 -29 -66 -35q-4 0 -25.5 3t-60.5 6t-82 3t-82 -3t-61.5 -6t-26.5 -3q-68 6 -67 35zM423 418q5 -4 30 -4h157q18 0 20.5 5t-3.5 19 q-2 2 -3 4t-1 4l-68 224q-4 10 -10 14t-12.5 0t-10.5 -16l-98 -230q-6 -16 -1 -20zM1151 31q0 8 7.5 16t20.5 15.5t25.5 13.5t31 13t28.5 11t18.5 10.5t14.5 11.5t11 13t8 13.5t5 17.5t3.5 16t2.5 19.5t1 19.5v21.5v21.5v441q0 18 -1 31.5t-1 24.5t-5.5 20.5t-6.5 15.5 t-11 11t-12 8t-17.5 8t-21.5 7.5t-27.5 8.5t-32.5 8q-33 10 -32 43q0 16 22.5 26.5t48.5 10.5q41 0 95.5 -4t91.5 -4q35 0 189.5 4t199.5 4q25 0 30 -4t13 -35q12 -37 12 -100.5t-35 -63.5q-41 0 -67 70q-14 37 -64 36h-143q-33 0 -41 -9t-8 -40v-176q0 -82 32 -82h103 q39 0 62.5 20.5t38 41t30.5 20.5q25 0 25 -137q0 -80 -4.5 -109.5t-24.5 -29.5q-12 0 -23.5 14t-20.5 30.5t-31.5 31t-55.5 14.5h-94q-18 0 -22.5 -1t-9.5 -16.5t-5 -50.5v-139q0 -88 71 -88h172q37 0 76 92q0 2 4 8l4 13q16 45 52 45q45 0 45 -76q0 -53 -33 -132t-57 -79 q-68 0 -211.5 6t-217.5 6q-27 0 -99.5 -6t-90.5 -6q-20 0 -44 10t-24 25z" />
<glyph unicode="&#xe7;" horiz-adv-x="1046" d="M98 449q0 211 161 362.5t378 151.5q66 0 133.5 -14.5t87.5 -30.5q61 -47 84 -71t23 -44q0 -51 -22.5 -101.5t-39 -50.5t-25 9.5t-24.5 42t-33 57.5q-66 100 -207 100q-137 0 -222 -118.5t-85 -276.5q0 -154 79 -271.5t212 -117.5q96 0 213 108q14 12 33.5 41t35 49.5 t25.5 20.5q33 0 33 -49q0 -154 -70 -185q-182 -82 -313 -81q-190 0 -323.5 139t-133.5 330zM411 -442q0 23 15.5 44.5t32.5 21.5q2 0 48 -30t70.5 -30t30.5 11.5t6 37.5q0 41 -84 112t-84 95q0 43 33 81t141 132h82q-57 -39 -88 -77.5t-31 -59.5q0 -16 41 -53t83 -86t42 -92 q0 -80 -88 -136.5t-180 -56.5q-70 0 -70 86z" />
<glyph unicode="&#xe8;" horiz-adv-x="907" d="M61 31q0 8 7.5 16t20.5 15.5t25.5 13.5t31 13t28.5 11t18.5 10.5t14.5 11.5t11 13t8 13.5t5 17.5t3.5 16t2.5 19.5t1 19.5v21.5v21.5v441q0 18 -1 31.5t-1 24.5t-5.5 20.5t-6.5 15.5t-11 11t-12 8t-17.5 8t-21.5 7.5t-27.5 8.5t-32.5 8q-33 10 -32 43q0 16 22.5 26.5 t48.5 10.5q41 0 95.5 -4t91.5 -4q35 0 189.5 4t199.5 4q25 0 30 -4t13 -35q12 -37 12 -100.5t-35 -63.5q-41 0 -67 70q-14 37 -64 36h-143q-33 0 -41 -9t-8 -40v-176q0 -82 32 -82h103q39 0 62.5 20.5t38 41t30.5 20.5q25 0 25 -137q0 -80 -4.5 -109.5t-24.5 -29.5 q-12 0 -23.5 14t-20.5 30.5t-31.5 31t-55.5 14.5h-94q-18 0 -22.5 -1t-9.5 -16.5t-5 -50.5v-139q0 -88 71 -88h172q37 0 76 92q0 2 4 8l4 13q16 45 52 45q45 0 45 -76q0 -53 -33 -132t-57 -79q-68 0 -211.5 6t-217.5 6q-27 0 -99.5 -6t-90.5 -6q-20 0 -44 10t-24 25z M217 1422q0 23 35 35t78 12q33 0 55 -37q35 -59 94.5 -185t59.5 -147q0 -27 -19 -26q-20 0 -61 45q-63 68 -152.5 176t-89.5 127z" />
<glyph unicode="&#xe9;" horiz-adv-x="907" d="M61 31q0 8 7.5 16t20.5 15.5t25.5 13.5t31 13t28.5 11t18.5 10.5t14.5 11.5t11 13t8 13.5t5 17.5t3.5 16t2.5 19.5t1 19.5v21.5v21.5v441q0 18 -1 31.5t-1 24.5t-5.5 20.5t-6.5 15.5t-11 11t-12 8t-17.5 8t-21.5 7.5t-27.5 8.5t-32.5 8q-33 10 -32 43q0 16 22.5 26.5 t48.5 10.5q41 0 95.5 -4t91.5 -4q35 0 189.5 4t199.5 4q25 0 30 -4t13 -35q12 -37 12 -100.5t-35 -63.5q-41 0 -67 70q-14 37 -64 36h-143q-33 0 -41 -9t-8 -40v-176q0 -82 32 -82h103q39 0 62.5 20.5t38 41t30.5 20.5q25 0 25 -137q0 -80 -4.5 -109.5t-24.5 -29.5 q-12 0 -23.5 14t-20.5 30.5t-31.5 31t-55.5 14.5h-94q-18 0 -22.5 -1t-9.5 -16.5t-5 -50.5v-139q0 -88 71 -88h172q37 0 76 92q0 2 4 8l4 13q16 45 52 45q45 0 45 -76q0 -53 -33 -132t-57 -79q-68 0 -211.5 6t-217.5 6q-27 0 -99.5 -6t-90.5 -6q-20 0 -44 10t-24 25z M373 1100q0 20 60.5 145t94.5 187q23 37 56 37q43 0 76.5 -12.5t33.5 -34.5q0 -18 -89 -126.5t-152 -176.5q-41 -45 -62 -45q-18 0 -18 26z" />
<glyph unicode="&#xea;" horiz-adv-x="907" d="M61 31q0 8 7.5 16t20.5 15.5t25.5 13.5t31 13t28.5 11t18.5 10.5t14.5 11.5t11 13t8 13.5t5 17.5t3.5 16t2.5 19.5t1 19.5v21.5v21.5v441q0 18 -1 31.5t-1 24.5t-5.5 20.5t-6.5 15.5t-11 11t-12 8t-17.5 8t-21.5 7.5t-27.5 8.5t-32.5 8q-33 10 -32 43q0 16 22.5 26.5 t48.5 10.5q41 0 95.5 -4t91.5 -4q35 0 189.5 4t199.5 4q25 0 30 -4t13 -35q12 -37 12 -100.5t-35 -63.5q-41 0 -67 70q-14 37 -64 36h-143q-33 0 -41 -9t-8 -40v-176q0 -82 32 -82h103q39 0 62.5 20.5t38 41t30.5 20.5q25 0 25 -137q0 -80 -4.5 -109.5t-24.5 -29.5 q-12 0 -23.5 14t-20.5 30.5t-31.5 31t-55.5 14.5h-94q-18 0 -22.5 -1t-9.5 -16.5t-5 -50.5v-139q0 -88 71 -88h172q37 0 76 92q0 2 4 8l4 13q16 45 52 45q45 0 45 -76q0 -53 -33 -132t-57 -79q-68 0 -211.5 6t-217.5 6q-27 0 -99.5 -6t-90.5 -6q-20 0 -44 10t-24 25z M233 1100q0 20 69 148.5t112 199.5q20 37 40.5 37t41.5 -37q45 -74 113.5 -200.5t68.5 -147.5q0 -27 -19 -26q-20 0 -61 45q-90 104 -125 151q-19 25 -37 0q-41 -57 -123 -151q-41 -45 -61 -45q-18 0 -19 26z" />
<glyph unicode="&#xeb;" horiz-adv-x="907" d="M61 31q0 8 7.5 16t20.5 15.5t25.5 13.5t31 13t28.5 11t18.5 10.5t14.5 11.5t11 13t8 13.5t5 17.5t3.5 16t2.5 19.5t1 19.5v21.5v21.5v441q0 18 -1 31.5t-1 24.5t-5.5 20.5t-6.5 15.5t-11 11t-12 8t-17.5 8t-21.5 7.5t-27.5 8.5t-32.5 8q-33 10 -32 43q0 16 22.5 26.5 t48.5 10.5q41 0 95.5 -4t91.5 -4q35 0 189.5 4t199.5 4q25 0 30 -4t13 -35q12 -37 12 -100.5t-35 -63.5q-41 0 -67 70q-14 37 -64 36h-143q-33 0 -41 -9t-8 -40v-176q0 -82 32 -82h103q39 0 62.5 20.5t38 41t30.5 20.5q25 0 25 -137q0 -80 -4.5 -109.5t-24.5 -29.5 q-12 0 -23.5 14t-20.5 30.5t-31.5 31t-55.5 14.5h-94q-18 0 -22.5 -1t-9.5 -16.5t-5 -50.5v-139q0 -88 71 -88h172q37 0 76 92q0 2 4 8l4 13q16 45 52 45q45 0 45 -76q0 -53 -33 -132t-57 -79q-68 0 -211.5 6t-217.5 6q-27 0 -99.5 -6t-90.5 -6q-20 0 -44 10t-24 25z M172 1241.5q0 45.5 31.5 77t76.5 31.5t77 -31.5t32 -77t-32 -77t-77 -31.5t-76.5 31.5t-31.5 77zM522 1241.5q0 45.5 31.5 77t76.5 31.5t77 -31.5t32 -77t-32 -77t-77 -31.5t-76.5 31.5t-31.5 77z" />
<glyph unicode="&#xec;" horiz-adv-x="565" d="M61 31q0 8 7.5 16t20.5 15.5t25.5 13.5t31 13t28.5 11t18.5 10.5t14.5 11.5t11 13t8 13.5t5 17.5t3.5 16t2.5 19.5t1 19.5v21.5v21.5v441q0 18 -1 31.5t-1 24.5t-5.5 20.5t-6.5 15.5t-11 11t-12 8t-17.5 8t-21.5 7.5t-27.5 8.5t-32.5 8q-33 10 -32 43q0 16 22.5 26.5 t48.5 10.5q41 0 95.5 -5t91.5 -5t93 5t91 5q27 0 49.5 -10.5t22.5 -26.5q0 -33 -31 -43q-98 -29 -113 -41q-27 -20 -26 -102v-441q0 -100 20 -129q14 -23 45 -35q10 -4 28.5 -11t31 -13t26 -13.5t20.5 -15.5t7 -16q0 -29 -66 -35q-4 0 -35.5 3t-80 6t-91.5 3t-87 -3 t-71.5 -6t-31.5 -3q-68 6 -68 35zM90 1422q0 23 35 35t78 12q33 0 55 -37q35 -59 94.5 -185t59.5 -147q0 -27 -19 -26q-20 0 -61 45q-63 68 -152.5 176t-89.5 127z" />
<glyph unicode="&#xed;" horiz-adv-x="565" d="M61 31q0 8 7.5 16t20.5 15.5t25.5 13.5t31 13t28.5 11t18.5 10.5t14.5 11.5t11 13t8 13.5t5 17.5t3.5 16t2.5 19.5t1 19.5v21.5v21.5v441q0 18 -1 31.5t-1 24.5t-5.5 20.5t-6.5 15.5t-11 11t-12 8t-17.5 8t-21.5 7.5t-27.5 8.5t-32.5 8q-33 10 -32 43q0 16 22.5 26.5 t48.5 10.5q41 0 95.5 -5t91.5 -5t93 5t91 5q27 0 49.5 -10.5t22.5 -26.5q0 -33 -31 -43q-98 -29 -113 -41q-27 -20 -26 -102v-441q0 -100 20 -129q14 -23 45 -35q10 -4 28.5 -11t31 -13t26 -13.5t20.5 -15.5t7 -16q0 -29 -66 -35q-4 0 -35.5 3t-80 6t-91.5 3t-87 -3 t-71.5 -6t-31.5 -3q-68 6 -68 35zM246 1100q0 20 60.5 145t94.5 187q23 37 56 37q43 0 76.5 -12.5t33.5 -34.5q0 -18 -89 -126.5t-152 -176.5q-41 -45 -62 -45q-18 0 -18 26z" />
<glyph unicode="&#xee;" horiz-adv-x="565" d="M61 31q0 8 7.5 16t20.5 15.5t25.5 13.5t31 13t28.5 11t18.5 10.5t14.5 11.5t11 13t8 13.5t5 17.5t3.5 16t2.5 19.5t1 19.5v21.5v21.5v441q0 18 -1 31.5t-1 24.5t-5.5 20.5t-6.5 15.5t-11 11t-12 8t-17.5 8t-21.5 7.5t-27.5 8.5t-32.5 8q-33 10 -32 43q0 16 22.5 26.5 t48.5 10.5q41 0 95.5 -5t91.5 -5t93 5t91 5q27 0 49.5 -10.5t22.5 -26.5q0 -33 -31 -43q-98 -29 -113 -41q-27 -20 -26 -102v-441q0 -100 20 -129q14 -23 45 -35q10 -4 28.5 -11t31 -13t26 -13.5t20.5 -15.5t7 -16q0 -29 -66 -35q-4 0 -35.5 3t-80 6t-91.5 3t-87 -3 t-71.5 -6t-31.5 -3q-68 6 -68 35zM106 1100q0 20 69 148.5t112 199.5q20 37 40.5 37t41.5 -37q45 -74 113.5 -200.5t68.5 -147.5q0 -27 -19 -26q-20 0 -61 45q-90 104 -125 151q-19 25 -37 0q-41 -57 -123 -151q-41 -45 -61 -45q-18 0 -19 26z" />
<glyph unicode="&#xef;" horiz-adv-x="565" d="M45 1241.5q0 45.5 31.5 77t76.5 31.5t77 -31.5t32 -77t-32 -77t-77 -31.5t-76.5 31.5t-31.5 77zM61 31q0 8 7.5 16t20.5 15.5t25.5 13.5t31 13t28.5 11t18.5 10.5t14.5 11.5t11 13t8 13.5t5 17.5t3.5 16t2.5 19.5t1 19.5v21.5v21.5v441q0 18 -1 31.5t-1 24.5t-5.5 20.5 t-6.5 15.5t-11 11t-12 8t-17.5 8t-21.5 7.5t-27.5 8.5t-32.5 8q-33 10 -32 43q0 16 22.5 26.5t48.5 10.5q41 0 95.5 -5t91.5 -5t93 5t91 5q27 0 49.5 -10.5t22.5 -26.5q0 -33 -31 -43q-98 -29 -113 -41q-27 -20 -26 -102v-441q0 -100 20 -129q14 -23 45 -35q10 -4 28.5 -11 t31 -13t26 -13.5t20.5 -15.5t7 -16q0 -29 -66 -35q-4 0 -35.5 3t-80 6t-91.5 3t-87 -3t-71.5 -6t-31.5 -3q-68 6 -68 35zM395 1241.5q0 45.5 31.5 77t76.5 31.5t77 -31.5t32 -77t-32 -77t-77 -31.5t-76.5 31.5t-31.5 77z" />
<glyph unicode="&#xf0;" horiz-adv-x="911" d="M47 373q0 201 120 354.5t306 153.5q106 0 160 -54q14 -10 18 -4t8 37v189h-395q-49 0 -49 28q0 27 17.5 48.5t50.5 21.5h376v14q0 27 -23.5 53.5t-60.5 40.5q-47 16 -47 48q0 35 60 43q35 6 86 18t87 21.5t44 9.5q16 0 20 -11.5t4 -44.5v-192h258q35 0 52 37q25 61 45 61 q35 0 56.5 -39t21.5 -108q0 -20 -12.5 -34.5t-28.5 -14.5h-392v-877q0 -57 33 -57q14 0 59.5 6t51.5 6q8 0 17 -11.5t9 -21.5q0 -37 -26.5 -51t-136 -41t-134.5 -27q-23 0 -28 29q-8 29 -19 78q-6 29 -24 2q-70 -100 -209 -100q-156 0 -265.5 115.5t-109.5 273.5zM236 477 q0 -150 69.5 -256t194.5 -106q63 0 111 34.5t48 92.5v313q0 96 -67.5 167t-161.5 71q-98 0 -146 -95.5t-48 -220.5z" />
<glyph unicode="&#xf1;" horiz-adv-x="1103" d="M70 891q0 16 22.5 26.5t48.5 10.5q41 0 97.5 -5t89.5 -5q45 0 127 -103l360 -446q4 -4 12 -15q20 -14 23 2v349q0 109 -107 143q-33 10 -32 43q0 37 55 37q14 0 65.5 -5t79.5 -5q27 0 69 5t60 5q59 0 60 -37q0 -35 -31 -43q-41 -12 -70.5 -50t-29.5 -89v-367 q0 -37 7 -116t7 -99q0 -147 -29 -147q-31 0 -70.5 33.5t-117.5 129.5l-358 449q-6 6 -11 -10q-6 -27 -6 -80v-238q0 -100 21 -129q14 -23 45 -35q31 -14 44 -21t28.5 -20.5t15.5 -27.5q0 -29 -66 -35q-4 0 -23.5 3t-56.5 6t-80 3t-81.5 -3t-61 -6t-26.5 -3q-68 6 -68 35 q0 8 7 16t20.5 15.5t25.5 13.5t30.5 13t29 11t18.5 10.5t14 11.5t11.5 13t8.5 13.5t5 17.5t3 16t2 19.5t1 19.5v21.5v21.5v381q0 102 -31 131q-45 45 -125 72q-33 10 -32 43zM278 1112q0 20 73 96t107 76q27 0 110 -2t110 -2q43 0 88 45t47 45q33 0 33 -34q0 -20 -79 -113.5 t-114 -93.5q-25 0 -114 1t-115 1q-31 0 -72 -30t-45 -30q-29 0 -29 41z" />
<glyph unicode="&#xf2;" horiz-adv-x="1146" d="M80 436q0 217 149.5 372t362.5 155q197 0 340 -125t143 -314q0 -227 -161.5 -385.5t-389.5 -158.5q-186 0 -315 134t-129 322zM289 520q0 -176 78.5 -313t224.5 -137q129 0 200.5 122.5t71.5 280.5q0 154 -90 274.5t-229 120.5q-117 0 -186.5 -106.5t-69.5 -241.5z M348 1422q0 23 35 35t78 12q33 0 55 -37q35 -59 94.5 -185t59.5 -147q0 -27 -19 -26q-20 0 -61 45q-63 68 -152.5 176t-89.5 127z" />
<glyph unicode="&#xf3;" horiz-adv-x="1146" d="M80 436q0 217 149.5 372t362.5 155q197 0 340 -125t143 -314q0 -227 -161.5 -385.5t-389.5 -158.5q-186 0 -315 134t-129 322zM289 520q0 -176 78.5 -313t224.5 -137q129 0 200.5 122.5t71.5 280.5q0 154 -90 274.5t-229 120.5q-117 0 -186.5 -106.5t-69.5 -241.5z M504 1100q0 20 60.5 145t94.5 187q23 37 56 37q43 0 76.5 -12.5t33.5 -34.5q0 -18 -89 -126.5t-152 -176.5q-41 -45 -62 -45q-18 0 -18 26z" />
<glyph unicode="&#xf4;" horiz-adv-x="1146" d="M80 436q0 217 149.5 372t362.5 155q197 0 340 -125t143 -314q0 -227 -161.5 -385.5t-389.5 -158.5q-186 0 -315 134t-129 322zM289 520q0 -176 78.5 -313t224.5 -137q129 0 200.5 122.5t71.5 280.5q0 154 -90 274.5t-229 120.5q-117 0 -186.5 -106.5t-69.5 -241.5z M364 1100q0 20 69 148.5t112 199.5q20 37 40.5 37t41.5 -37q45 -74 113.5 -200.5t68.5 -147.5q0 -27 -19 -26q-20 0 -61 45q-90 104 -125 151q-19 25 -37 0q-41 -57 -123 -151q-41 -45 -61 -45q-18 0 -19 26z" />
<glyph unicode="&#xf5;" horiz-adv-x="1146" d="M80 436q0 217 149.5 372t362.5 155q197 0 340 -125t143 -314q0 -227 -161.5 -385.5t-389.5 -158.5q-186 0 -315 134t-129 322zM289 520q0 -176 78.5 -313t224.5 -137q129 0 200.5 122.5t71.5 280.5q0 154 -90 274.5t-229 120.5q-117 0 -186.5 -106.5t-69.5 -241.5z M299 1112q0 20 73 96t107 76q27 0 110 -2t110 -2q43 0 88 45t47 45q33 0 33 -34q0 -20 -79 -113.5t-114 -93.5q-25 0 -114 1t-115 1q-31 0 -72 -30t-45 -30q-29 0 -29 41z" />
<glyph unicode="&#xf6;" horiz-adv-x="1146" d="M80 436q0 217 149.5 372t362.5 155q197 0 340 -125t143 -314q0 -227 -161.5 -385.5t-389.5 -158.5q-186 0 -315 134t-129 322zM289 520q0 -176 78.5 -313t224.5 -137q129 0 200.5 122.5t71.5 280.5q0 154 -90 274.5t-229 120.5q-117 0 -186.5 -106.5t-69.5 -241.5z M303 1241.5q0 45.5 31.5 77t76.5 31.5t77 -31.5t32 -77t-32 -77t-77 -31.5t-76.5 31.5t-31.5 77zM653 1241.5q0 45.5 31.5 77t76.5 31.5t77 -31.5t32 -77t-32 -77t-77 -31.5t-76.5 31.5t-31.5 77z" />
<glyph unicode="&#xf7;" horiz-adv-x="960" d="M86 403q0 29 30.5 51.5t78.5 22.5h583q37 0 61.5 -16.5t24.5 -40.5q0 -27 -22.5 -51.5t-65.5 -24.5l-581 -2q-109 0 -109 61zM354 104q0 55 42.5 94.5t99.5 39.5q47 0 78.5 -38t31.5 -89q0 -53 -41 -87t-96 -34q-47 0 -81 33.5t-34 80.5zM354 696q0 55 42.5 94t99.5 39 q47 0 78.5 -37.5t31.5 -89.5q0 -53 -41 -86.5t-96 -33.5q-47 0 -81 33.5t-34 80.5z" />
<glyph unicode="&#xf8;" horiz-adv-x="997" d="M45 37q0 27 31 53l67 68q-98 133 -98 309q0 172 138.5 293t306 120.5t294.5 -100.5l58 58q43 43 84 43q25 0 24 -41q0 -20 -51 -72l-51 -49q102 -123 102 -283q0 -195 -136 -323.5t-335 -128.5q-156 0 -274 106l-66 -63q-45 -43 -67 -43q-27 0 -27 53zM250 485 q0 -102 37 -190l381 373q-80 127 -193 127q-104 0 -164.5 -94.5t-60.5 -215.5zM330 213q88 -133 202 -133q100 0 158 91t58 210q0 106 -37 203z" />
<glyph unicode="&#xf9;" horiz-adv-x="1269" d="M70 891q0 16 22.5 26.5t48.5 10.5q41 0 95.5 -5t91.5 -5t93 5t91 5q27 0 49.5 -10.5t22.5 -26.5q0 -33 -31 -43q-98 -29 -113 -41q-27 -20 -26 -102v-338q0 -113 76.5 -196t185.5 -83q127 0 194.5 72.5t67.5 197.5v334q0 51 -34 95t-70 55q-43 12 -43 49q0 16 22.5 26.5 t48.5 10.5q18 0 57 -5t62 -5q20 0 69.5 5t69.5 5q27 0 49.5 -10.5t22.5 -26.5q0 -35 -35 -43q-70 -18 -93.5 -52t-23.5 -96v-282q0 -186 -115.5 -314.5t-293.5 -128.5q-184 0 -288.5 131.5t-104.5 317.5v281q0 18 -1 31.5t-1 24.5t-5.5 20.5t-6.5 15.5t-11 11t-12 8t-17.5 8 t-21.5 7.5t-27.5 8.5t-32.5 8q-33 10 -32 43zM419 1422q0 23 35 35t78 12q33 0 55 -37q35 -59 94.5 -185t59.5 -147q0 -27 -19 -26q-20 0 -61 45q-63 68 -152.5 176t-89.5 127z" />
<glyph unicode="&#xfa;" horiz-adv-x="1269" d="M70 891q0 16 22.5 26.5t48.5 10.5q41 0 95.5 -5t91.5 -5t93 5t91 5q27 0 49.5 -10.5t22.5 -26.5q0 -33 -31 -43q-98 -29 -113 -41q-27 -20 -26 -102v-338q0 -113 76.5 -196t185.5 -83q127 0 194.5 72.5t67.5 197.5v334q0 51 -34 95t-70 55q-43 12 -43 49q0 16 22.5 26.5 t48.5 10.5q18 0 57 -5t62 -5q20 0 69.5 5t69.5 5q27 0 49.5 -10.5t22.5 -26.5q0 -35 -35 -43q-70 -18 -93.5 -52t-23.5 -96v-282q0 -186 -115.5 -314.5t-293.5 -128.5q-184 0 -288.5 131.5t-104.5 317.5v281q0 18 -1 31.5t-1 24.5t-5.5 20.5t-6.5 15.5t-11 11t-12 8t-17.5 8 t-21.5 7.5t-27.5 8.5t-32.5 8q-33 10 -32 43zM576 1100q0 20 60.5 145t94.5 187q23 37 56 37q43 0 76.5 -12.5t33.5 -34.5q0 -18 -89 -126.5t-152 -176.5q-41 -45 -62 -45q-18 0 -18 26z" />
<glyph unicode="&#xfb;" horiz-adv-x="1269" d="M70 891q0 16 22.5 26.5t48.5 10.5q41 0 95.5 -5t91.5 -5t93 5t91 5q27 0 49.5 -10.5t22.5 -26.5q0 -33 -31 -43q-98 -29 -113 -41q-27 -20 -26 -102v-338q0 -113 76.5 -196t185.5 -83q127 0 194.5 72.5t67.5 197.5v334q0 51 -34 95t-70 55q-43 12 -43 49q0 16 22.5 26.5 t48.5 10.5q18 0 57 -5t62 -5q20 0 69.5 5t69.5 5q27 0 49.5 -10.5t22.5 -26.5q0 -35 -35 -43q-70 -18 -93.5 -52t-23.5 -96v-282q0 -186 -115.5 -314.5t-293.5 -128.5q-184 0 -288.5 131.5t-104.5 317.5v281q0 18 -1 31.5t-1 24.5t-5.5 20.5t-6.5 15.5t-11 11t-12 8t-17.5 8 t-21.5 7.5t-27.5 8.5t-32.5 8q-33 10 -32 43zM436 1100q0 20 69 148.5t112 199.5q20 37 40.5 37t41.5 -37q45 -74 113.5 -200.5t68.5 -147.5q0 -27 -19 -26q-20 0 -61 45q-90 104 -125 151q-19 25 -37 0q-41 -57 -123 -151q-41 -45 -61 -45q-18 0 -19 26z" />
<glyph unicode="&#xfc;" horiz-adv-x="1269" d="M70 891q0 16 22.5 26.5t48.5 10.5q41 0 95.5 -5t91.5 -5t93 5t91 5q27 0 49.5 -10.5t22.5 -26.5q0 -33 -31 -43q-98 -29 -113 -41q-27 -20 -26 -102v-338q0 -113 76.5 -196t185.5 -83q127 0 194.5 72.5t67.5 197.5v334q0 51 -34 95t-70 55q-43 12 -43 49q0 16 22.5 26.5 t48.5 10.5q18 0 57 -5t62 -5q20 0 69.5 5t69.5 5q27 0 49.5 -10.5t22.5 -26.5q0 -35 -35 -43q-70 -18 -93.5 -52t-23.5 -96v-282q0 -186 -115.5 -314.5t-293.5 -128.5q-184 0 -288.5 131.5t-104.5 317.5v281q0 18 -1 31.5t-1 24.5t-5.5 20.5t-6.5 15.5t-11 11t-12 8t-17.5 8 t-21.5 7.5t-27.5 8.5t-32.5 8q-33 10 -32 43zM375 1241.5q0 45.5 31.5 77t76.5 31.5t77 -31.5t32 -77t-32 -77t-77 -31.5t-76.5 31.5t-31.5 77zM725 1241.5q0 45.5 31.5 77t76.5 31.5t77 -31.5t32 -77t-32 -77t-77 -31.5t-76.5 31.5t-31.5 77z" />
<glyph unicode="&#xfd;" horiz-adv-x="1124" d="M2 891q0 16 22.5 26.5t49 10.5t92 -5t94.5 -5t97.5 5t86.5 5q27 0 49.5 -10.5t22.5 -26.5q0 -35 -47 -49q-61 -16 -73.5 -36t14.5 -69l90 -147q29 -45 46 -38t66 73l82 112q23 33 15.5 65t-41.5 40q-43 12 -43 49q0 16 22.5 26.5t48.5 10.5q18 0 57.5 -5t61.5 -5 q20 0 74.5 5t75.5 5q27 0 49 -10.5t22 -26.5q0 -35 -35 -43q-49 -14 -63 -18.5t-45 -23t-56.5 -46t-68.5 -82.5l-125 -170q-35 -47 -42 -71.5t-7 -71.5v-134q0 -49 2 -64t15.5 -33.5t47.5 -33.5q10 -4 29 -11t31 -13t25.5 -13.5t20.5 -15.5t7 -16q0 -29 -65 -35q-4 0 -36 3 t-80 6t-91 3t-87 -3t-72 -6t-32 -3q-68 6 -67 35q0 8 7 16t20.5 15.5t25.5 13.5t30.5 13t28.5 11q45 20 54.5 39t9.5 70v10v8v103q0 74 -45 139l-123 188q-2 4 -14.5 24.5t-19.5 30t-20.5 29t-27.5 30.5t-33.5 26.5t-45.5 28t-54 22.5q-33 10 -33 43zM445 1100 q0 20 60.5 145t94.5 187q23 37 56 37q43 0 76.5 -12.5t33.5 -34.5q0 -18 -89 -126.5t-152 -176.5q-41 -45 -62 -45q-18 0 -18 26z" />
<glyph unicode="&#xfe;" horiz-adv-x="911" d="M6 -492q0 27 90 54q37 12 37 108v1485q0 70 -80 100q-47 16 -47 48q0 35 60 43q35 6 85 18t84.5 21.5t43.5 9.5q16 0 20 -11.5t4 -50.5v-530q0 -8 8 -11.5t21 7.5q29 29 98.5 55.5t132.5 26.5q125 0 216 -111t91 -244q0 -215 -134 -376.5t-333 -161.5q-25 0 -51 12 l-28 12q-20 0 -21 -28v-330q0 -51 26.5 -72.5t112.5 -46.5q88 -27 88 -53q0 -41 -69 -41q-20 0 -146.5 13.5t-236.5 13.5q-72 0 -72 40zM303 219q0 -55 44 -91t104 -36q113 0 172 100.5t59 239.5q0 342 -225 342q-68 0 -111 -51t-43 -121v-383z" />
<glyph unicode="&#xff;" horiz-adv-x="1124" d="M2 891q0 16 22.5 26.5t49 10.5t92 -5t94.5 -5t97.5 5t86.5 5q27 0 49.5 -10.5t22.5 -26.5q0 -35 -47 -49q-61 -16 -73.5 -36t14.5 -69l90 -147q29 -45 46 -38t66 73l82 112q23 33 15.5 65t-41.5 40q-43 12 -43 49q0 16 22.5 26.5t48.5 10.5q18 0 57.5 -5t61.5 -5 q20 0 74.5 5t75.5 5q27 0 49 -10.5t22 -26.5q0 -35 -35 -43q-49 -14 -63 -18.5t-45 -23t-56.5 -46t-68.5 -82.5l-125 -170q-35 -47 -42 -71.5t-7 -71.5v-134q0 -49 2 -64t15.5 -33.5t47.5 -33.5q10 -4 29 -11t31 -13t25.5 -13.5t20.5 -15.5t7 -16q0 -29 -65 -35q-4 0 -36 3 t-80 6t-91 3t-87 -3t-72 -6t-32 -3q-68 6 -67 35q0 8 7 16t20.5 15.5t25.5 13.5t30.5 13t28.5 11q45 20 54.5 39t9.5 70v10v8v103q0 74 -45 139l-123 188q-2 4 -14.5 24.5t-19.5 30t-20.5 29t-27.5 30.5t-33.5 26.5t-45.5 28t-54 22.5q-33 10 -33 43zM244 1241.5 q0 45.5 31.5 77t76.5 31.5t77 -31.5t32 -77t-32 -77t-77 -31.5t-76.5 31.5t-31.5 77zM594 1241.5q0 45.5 31.5 77t76.5 31.5t77 -31.5t32 -77t-32 -77t-77 -31.5t-76.5 31.5t-31.5 77z" />
<glyph unicode="&#x152;" horiz-adv-x="1892" d="M70 604q0 287 193.5 454t502.5 167q31 0 92.5 -7.5t93.5 -7.5h484q49 0 140 5.5t103 5.5q47 0 54 -29q18 -74 18 -168q0 -53 -33 -53q-39 0 -73 78q-33 68 -166 67h-244q-39 0 -51.5 -10t-12.5 -33v-344q0 -63 29 -63h195q31 0 54.5 8t34.5 17t36 32q6 6 19 21.5 t23.5 22.5t20.5 7q23 0 23 -41q0 -6 -4.5 -54t-4.5 -64.5t1 -61.5t1 -55q0 -53 -26 -54q-8 0 -16.5 6.5t-15.5 16.5t-12 18.5t-12.5 21.5t-9.5 15q-27 43 -71 43h-215q-29 0 -39.5 -10t-10.5 -39v-229q0 -86 36 -140.5t106 -54.5h223q57 0 94 9.5t65.5 41t42 55t42.5 85.5 q18 39 55 39q29 0 29 -52q0 -39 -31 -124t-47 -111q-10 -18 -14.5 -24.5t-14.5 -10.5t-26 -4q-20 0 -278.5 5t-385.5 5q-41 0 -138.5 -15.5t-211.5 -15.5q-279 0 -463 176.5t-184 452.5zM299 676q0 -231 123 -418.5t323 -187.5q90 0 164 49q68 45 68 145v668q0 45 -35 84 q-109 115 -254 114q-164 0 -276.5 -139t-112.5 -315z" />
<glyph unicode="&#x153;" horiz-adv-x="1454" d="M80 436q0 217 149.5 372t362.5 155q76 0 163.5 -21.5t116.5 -21.5q35 0 190 4t200 4q25 0 29.5 -4t13.5 -35q12 -37 12 -100.5t-35 -63.5q-41 0 -68 70q-14 37 -63 36h-143q-33 0 -41.5 -9t-8.5 -40v-176q0 -82 33 -82h103q39 0 62.5 20.5t37.5 41t31 20.5q25 0 24 -137 q0 -80 -4 -109.5t-24 -29.5q-12 0 -23.5 14t-21 30.5t-32 31t-54.5 14.5h-95q-18 0 -22 -1t-9.5 -16.5t-5.5 -50.5v-139q0 -88 72 -88h172q37 0 80 100q2 8 4 13q16 45 51 45q45 0 45 -76q0 -53 -32.5 -132t-57.5 -79q-68 0 -211 6t-217 6q-41 0 -145.5 -14t-194.5 -14 q-186 0 -315 134t-129 322zM289 520q0 -176 78.5 -313t224.5 -137q96 0 168 77q6 6 10 12.5t6 14.5t3 14.5t2 17.5t1 16v20.5v21.5v441q0 36 -20 59q-98 104 -217 104q-117 0 -186.5 -106.5t-69.5 -241.5z" />
<glyph unicode="&#x178;" horiz-adv-x="882" d="M0 1174q0 16 22.5 26t49.5 10q41 0 83 -5t78.5 -5t99 5t97.5 5q27 0 49.5 -10t22.5 -26q0 -25 -31 -35q-61 -20 -61 -49q0 -8 24.5 -61.5t48.5 -102.5l27 -47q41 -84 63 -84q4 0 8.5 2t9.5 7t9 11t11 18.5t12.5 23.5t16.5 29.5t19 35.5l76 133q10 18 -10 44.5t-49 37.5 q-35 12 -35 37q0 16 22.5 26t49.5 10q16 0 73.5 -5t74 -5t65.5 5t65 5q27 0 49.5 -10t22.5 -26q0 -23 -35 -35q-10 -4 -32.5 -11.5t-30 -9.5t-22.5 -8t-21.5 -10t-18.5 -12.5t-19 -17.5t-18.5 -21.5t-24 -30t-25.5 -36.5t-32 -48l-116 -180q-12 -18 -20.5 -37t-11.5 -36 t-4 -26.5t0 -26t1 -18.5v-344q0 -131 96 -174q12 -6 46 -17.5t50.5 -20.5t16.5 -23q0 -29 -66 -35q-4 0 -46 3t-100.5 6t-101.5 3t-97 -3t-92 -6t-42 -3q-68 6 -68 35q0 14 16.5 23t50.5 20.5t46 17.5q96 43 96 174v150q0 37 -2 67.5t-5 50t-10 44t-10 32.5t-13.5 34 t-12.5 32l-92 237q-63 162 -260 226q-33 10 -33 35zM239 1446q0 43 34 76.5t77 33.5t76.5 -33.5t33.5 -76.5t-33.5 -77t-76.5 -34t-77 34t-34 77zM622 1446q0 43 34 76.5t77 33.5t76.5 -33.5t33.5 -76.5t-33.5 -77t-76.5 -34t-77 34t-34 77z" />
<glyph unicode="&#x2c6;" horiz-adv-x="0" d="M61 1030q0 20 69 148.5t112 199.5q20 37 40.5 37t41.5 -37q45 -74 113.5 -200.5t68.5 -147.5q0 -27 -19 -26q-20 0 -61 45q-90 104 -125 151q-19 25 -37 0q-41 -57 -123 -151q-41 -45 -61 -45q-18 0 -19 26z" />
<glyph unicode="&#x2dc;" horiz-adv-x="423" d="M-283 163q0 20 73 96t107 76q27 0 110 -2t110 -2q43 0 88 45t47 45q33 0 33 -34q0 -20 -79 -113.5t-114 -93.5q-25 0 -114 1t-115 1q-31 0 -72 -30t-45 -30q-29 0 -29 41z" />
<glyph unicode="&#x2000;" horiz-adv-x="822" />
<glyph unicode="&#x2001;" horiz-adv-x="1644" />
<glyph unicode="&#x2002;" horiz-adv-x="822" />
<glyph unicode="&#x2003;" horiz-adv-x="1644" />
<glyph unicode="&#x2004;" horiz-adv-x="548" />
<glyph unicode="&#x2005;" horiz-adv-x="411" />
<glyph unicode="&#x2006;" horiz-adv-x="274" />
<glyph unicode="&#x2007;" horiz-adv-x="274" />
<glyph unicode="&#x2008;" horiz-adv-x="205" />
<glyph unicode="&#x2009;" horiz-adv-x="328" />
<glyph unicode="&#x200a;" horiz-adv-x="91" />
<glyph unicode="&#x2010;" horiz-adv-x="790" d="M92 399q0 37 19.5 75t56.5 42l487 39q63 4 64 -57q0 -39 -17.5 -69t-50.5 -32l-448 -37q-111 -10 -111 39z" />
<glyph unicode="&#x2011;" horiz-adv-x="790" d="M92 399q0 37 19.5 75t56.5 42l487 39q63 4 64 -57q0 -39 -17.5 -69t-50.5 -32l-448 -37q-111 -10 -111 39z" />
<glyph unicode="&#x2012;" horiz-adv-x="790" d="M92 399q0 37 19.5 75t56.5 42l487 39q63 4 64 -57q0 -39 -17.5 -69t-50.5 -32l-448 -37q-111 -10 -111 39z" />
<glyph unicode="&#x2013;" horiz-adv-x="1024" d="M82 379q0 31 29.5 66.5t70.5 35.5h686q47 0 60.5 -6t13.5 -29q0 -31 -23.5 -67.5t-64.5 -36.5h-713q-37 0 -48 6t-11 31z" />
<glyph unicode="&#x2014;" horiz-adv-x="2048" d="M82 379q0 31 29.5 66.5t70.5 35.5h1710q47 0 60.5 -6t13.5 -29q0 -31 -23.5 -67.5t-64.5 -36.5h-1737q-37 0 -48 6t-11 31z" />
<glyph unicode="&#x2018;" horiz-adv-x="481" d="M80 1120q0 104 95 235t183 131q29 0 29 -26q0 -10 -75 -90t-75 -138q0 -16 3 -29.5t10.5 -24.5t12.5 -18t19.5 -16.5t19.5 -13.5t23.5 -14.5t22.5 -12.5q80 -43 80 -102q0 -47 -34 -77t-81 -30q-96 0 -164.5 67t-68.5 159z" />
<glyph unicode="&#x2019;" horiz-adv-x="481" d="M53 1305q0 47 34 77t81 30q96 0 164.5 -67t68.5 -159q0 -104 -95 -235t-183 -131q-29 0 -29 26q0 10 75 90t75 138q0 16 -3 29.5t-10.5 24.5t-12.5 18t-19.5 16.5t-19.5 13.5t-23.5 14.5t-22.5 12.5q-80 43 -80 102z" />
<glyph unicode="&#x201a;" horiz-adv-x="481" d="M53 129q0 47 34 77t81 30q96 0 164.5 -67t68.5 -159q0 -104 -95 -235t-183 -131q-29 0 -29 26q0 10 75 90t75 138q0 16 -3 29.5t-10.5 24.5t-12.5 18t-19.5 16.5t-19.5 13.5t-23.5 14.5t-22.5 12.5q-80 43 -80 102z" />
<glyph unicode="&#x201c;" horiz-adv-x="882" d="M80 1120q0 104 95 235t183 131q29 0 29 -26q0 -10 -75 -90t-75 -138q0 -16 3 -29.5t10.5 -24.5t12.5 -18t19.5 -16.5t19.5 -13.5t23.5 -14.5t22.5 -12.5q80 -43 80 -102q0 -47 -34 -77t-81 -30q-96 0 -164.5 67t-68.5 159zM481 1120q0 104 95 235t183 131q29 0 29 -26 q0 -10 -75 -90t-75 -138q0 -16 3 -29.5t10.5 -24.5t12.5 -18t19.5 -16.5t19.5 -13.5t23.5 -14.5t22.5 -12.5q80 -43 80 -102q0 -47 -34 -77t-81 -30q-96 0 -164.5 67t-68.5 159z" />
<glyph unicode="&#x201d;" horiz-adv-x="909" d="M53 1305q0 47 34 77t81 30q96 0 164.5 -67t68.5 -159q0 -104 -95 -235t-183 -131q-29 0 -29 26q0 10 75 90t75 138q0 16 -3 29.5t-10.5 24.5t-12.5 18t-19.5 16.5t-19.5 13.5t-23.5 14.5t-22.5 12.5q-80 43 -80 102zM481 1305q0 47 34 77t81 30q96 0 164.5 -67t68.5 -159 q0 -104 -95 -235t-183 -131q-29 0 -29 26q0 10 75 90t75 138q0 16 -3 29.5t-10.5 24.5t-12.5 18t-19.5 16.5t-19.5 13.5t-23.5 14.5t-22.5 12.5q-80 43 -80 102z" />
<glyph unicode="&#x201e;" horiz-adv-x="909" d="M53 129q0 47 34 77t81 30q96 0 164.5 -67t68.5 -159q0 -104 -95 -235t-183 -131q-29 0 -29 26q0 10 75 90t75 138q0 16 -3 29.5t-10.5 24.5t-12.5 18t-19.5 16.5t-19.5 13.5t-23.5 14.5t-22.5 12.5q-80 43 -80 102zM481 129q0 47 34 77t81 30q96 0 164.5 -67t68.5 -159 q0 -104 -95 -235t-183 -131q-29 0 -29 26q0 10 75 90t75 138q0 16 -3 29.5t-10.5 24.5t-12.5 18t-19.5 16.5t-19.5 13.5t-23.5 14.5t-22.5 12.5q-80 43 -80 102z" />
<glyph unicode="&#x2026;" horiz-adv-x="1265" d="M86 119q0 53 44 86t103 33q43 0 75 -35t32 -76q0 -51 -38 -93t-87 -42q-57 0 -93 34.5t-36 92.5zM508 119q0 53 44 86t103 33q43 0 75 -35t32 -76q0 -51 -38 -93t-87 -42q-57 0 -93 34.5t-36 92.5zM930 119q0 53 44 86t103 33q43 0 75 -35t32 -76q0 -51 -38 -93t-87 -42 q-57 0 -93 34.5t-36 92.5z" />
<glyph unicode="&#x202f;" horiz-adv-x="328" />
<glyph unicode="&#x2039;" horiz-adv-x="880" d="M205 432q0 10 6 14q193 131 395 349q25 25 49 24q6 0 13.5 -15.5t7.5 -23.5q0 -12 -12 -32q-144 -218 -230 -304q-14 -14 0 -28q125 -125 230 -314q8 -12 8 -24q0 -10 -7.5 -24.5t-13.5 -14.5q-25 0 -61 37q-170 176 -348 297q-37 25 -37 59z" />
<glyph unicode="&#x203a;" horiz-adv-x="880" d="M205 78q0 12 12 33q143 217 229 303q14 14 0 28q-125 125 -229 314q-8 12 -8 24q0 10 7 24.5t13 14.5q25 0 62 -37q170 -176 348 -297q37 -25 37 -59q0 -12 -6 -14q-193 -131 -396 -349q-25 -25 -49 -24q-6 0 -13 15.5t-7 23.5z" />
<glyph unicode="&#x205f;" horiz-adv-x="411" />
<glyph unicode="&#x20ac;" horiz-adv-x="1417" d="M0 477q0 29 30.5 51.5t78.5 22.5h65v12q0 47 6 94h-18h-8q-100 0 -101 48q0 29 31 51t78 22h45q68 213 255 340t433 127q92 0 226 -41t136 -41q61 -6 62 -225q0 -57 -37 -57q-41 0 -82 129q-20 63 -124.5 103t-221.5 40q-164 0 -281.5 -103.5t-154.5 -271.5h475 q86 0 86 -43q0 -27 -22.5 -51.5t-65.5 -24.5l-488 -2v-8q0 -49 7 -98h430q86 0 86 -43q0 -27 -22.5 -51.5t-65.5 -24.5l-400 -2q55 -164 181 -262t305 -98q59 0 103 12t80 45t55.5 58.5t55 83t56.5 85.5q10 16 37 17q33 0 32 -58q0 -23 -81 -194q-25 -53 -41.5 -69.5 t-53.5 -31.5q-145 -51 -315 -51q-233 0 -421.5 127t-240.5 336h-81h-9q-31 0 -47 1t-34.5 12.5t-18.5 33.5z" />
<glyph unicode="&#x25fc;" horiz-adv-x="931" d="M0 0v932h932v-932h-932z" />
<glyph unicode="&#xfb01;" horiz-adv-x="1095" d="M31 37q0 27 90 53q39 12 58.5 50t19.5 81v463q0 37 -86 37q-18 0 -42 7t-24 22q0 37 125 81q27 10 27 62q0 86 53 202.5t169 217t259 100.5q123 0 188.5 -46t65.5 -126q0 -39 -46 -65.5t-93 -26.5q-20 0 -29.5 7t-30 34t-43.5 49q-63 63 -119 64q-57 0 -100 -40 t-64.5 -109t-30.5 -139.5t-9 -148.5q0 -27 45 -26l252 4q55 0 71 6q121 47 137.5 47t20.5 -12.5t4 -46.5v-617q0 -43 19.5 -81t58.5 -50q88 -27 88 -53q0 -41 -70 -41q-25 0 -95.5 6t-84.5 6q-20 0 -74.5 -6t-76.5 -6q-72 0 -72 41q0 35 90 61q47 14 47 123v397 q0 109 -125 109h-203q-33 0 -32 -47v-459q0 -111 37 -123q88 -27 88 -61q0 -41 -70 -41q-25 0 -75 6t-64 6q-20 0 -90 -6t-93 -6q-72 0 -71 41z" />
<glyph unicode="&#xfb02;" horiz-adv-x="1122" d="M31 37q0 27 90 53q39 12 58.5 50t19.5 81v471q0 29 -86 29q-18 0 -42 7t-24 22q0 37 125 81q27 10 27 60q0 219 127 370.5t333 151.5q57 0 117 -33q19 -8 33 -6q72 20 92 21q16 0 20.5 -11.5t4.5 -44.5v-1118q0 -43 19.5 -81t58.5 -50q88 -27 88 -53q0 -41 -70 -41 q-25 0 -95.5 6t-84.5 6q-20 0 -77.5 -6t-80.5 -6q-72 0 -72 41q0 27 90 53q20 6 31.5 18.5t16 36t5.5 36t1 40.5v506h-355q-33 0 -32 -47v-459q0 -115 57 -131q90 -27 90 -53q0 -41 -72 -41q-25 0 -86 6t-75 6q-20 0 -89 -6t-92 -6q-72 0 -71 41zM369 877q0 -33 45 -33h342 v282q0 59 -41 117q-39 55 -125 55q-100 0 -160.5 -64.5t-60.5 -158.5v-198z" />
<glyph unicode="&#xfb03;" horiz-adv-x="1613" d="M31 37q0 27 90 53q39 12 58.5 50t19.5 81v471q0 29 -86 29q-18 0 -42 7t-24 22q0 35 125 81q27 10 27 60q0 160 133 299t309 139q61 0 145 -39q61 -31 66 -30q12 0 57 49q43 45 121 74.5t168 29.5q123 0 188.5 -46t65.5 -126q0 -39 -46 -65.5t-93 -26.5q-20 0 -29.5 7 t-30 34t-43.5 49q-63 63 -118 64q-57 0 -100.5 -40t-65 -109t-30.5 -139.5t-9 -148.5q0 -27 45 -26l252 4q57 0 71 6q121 47 137.5 47t20.5 -12.5t4 -46.5v-617q0 -43 19.5 -81t58.5 -50q88 -27 88 -53q0 -41 -70 -41q-25 0 -95 6t-85 6q-20 0 -74.5 -6t-76.5 -6 q-72 0 -72 41q0 35 90 61q47 14 47 123v397q0 109 -125 109h-202q-33 0 -33 -47v-459q0 -111 37 -123q88 -27 88 -61q0 -41 -70 -41q-25 0 -75 6t-64 6q-18 0 -72.5 -6t-77.5 -6q-61 0 -61 41q0 29 80 53q45 14 45 131v459q0 47 -33 47h-266q-25 0 -36 -7t-12 -13.5 t-1 -26.5v-459q0 -111 59 -131q68 -20 68 -53q0 -41 -60 -41q-25 0 -82 6t-71 6q-20 0 -89 -6t-92 -6q-72 0 -71 41zM369 872q0 -12 1 -19t4 -10l4 -4t8 0t9 1h287q27 0 31 2t4 12v6q0 145 16 187q8 27 -2 49q-29 66 -63.5 92t-96.5 26q-94 0 -148 -63.5t-54 -181.5v-97z " />
<glyph unicode="&#xfb04;" horiz-adv-x="1640" d="M31 37q0 27 90 53q39 12 58.5 50t19.5 81v471q0 29 -86 29q-18 0 -42 7t-24 22q0 35 125 81q27 10 27 60q0 160 133 299t309 139q61 0 145 -39q61 -31 65.5 -30.5t8.5 4.5t18.5 17t30.5 28q122 104 269 104q57 0 116 -33q18 -8 33 -6q72 20 92 21q16 0 20.5 -11.5 t4.5 -44.5v-1118q0 -43 19.5 -81t58.5 -50q88 -27 88 -53q0 -41 -70 -41q-25 0 -95.5 6t-84.5 6q-20 0 -77.5 -6t-80.5 -6q-72 0 -72 41q0 27 91 53q20 6 31.5 18.5t15.5 36t5 36t1 40.5v506h-354q-33 0 -33 -47v-459q0 -115 57 -131q90 -27 90 -53q0 -41 -71 -41 q-25 0 -86.5 6t-75.5 6q-16 0 -69.5 -6t-78.5 -6q-61 0 -61 41q0 29 80 53q45 14 45 131v459q0 47 -33 47h-266q-25 0 -36 -7t-12 -13.5t-1 -26.5v-459q0 -111 59 -131q68 -20 68 -53q0 -41 -60 -41q-25 0 -82 6t-71 6q-20 0 -89 -6t-92 -6q-72 0 -71 41zM369 872 q0 -12 1 -19t4 -10l4 -4t8 0t9 1h287q27 0 31 2t4 12v6q0 145 16 187q8 27 -2 49q-29 66 -63.5 92t-96.5 26q-94 0 -148 -63.5t-54 -181.5v-97zM887 877q0 -33 45 -33h342v282q0 59 -41 117q-39 55 -125 55q-100 0 -160.5 -64.5t-60.5 -158.5v-198z" />
</font>
</defs>
</svg>
